<svg width="1920" height="1080" viewBox="0 0 1920 1080" fill="none" xmlns="http://www.w3.org/2000/svg">
<path d="M373.695 532.754C373.525 532.243 370.193 530 370.193 530C370.193 530 367.691 534.267 367.52 535.981C367.373 539.447 367.113 542.836 366.488 546.255L366.191 547.774C365.5 551.468 364.804 555.094 363.289 558.549L362.689 559.791C360.881 563.561 358.739 566.398 355.717 569.241C354.598 570.23 353.67 571.166 352.684 572.308C352.432 573.927 352.432 573.927 352.684 575.312C353.685 576.501 353.685 576.501 355.185 577.315C357.119 577.582 358.827 577.435 360.688 576.814L360.688 576.814C361.355 575.979 361.355 575.979 362.189 575.312C363.517 575.427 363.517 575.427 364.69 575.812L364.815 577.784C362.738 585.787 362.738 585.787 357.087 592.159C354.993 594.514 352.885 596.82 351.099 599.423C349.683 601.874 348.548 603.967 349.182 606.855C350.186 608.377 350.918 609.182 352.729 609.599C354.919 609.737 356.267 609.474 357.999 608.107C359.397 606.949 359.671 606.856 361.626 606.667C363.121 606.683 363.121 606.683 363.69 607.355C363.941 608.752 363.941 608.752 363.69 610.36C361.352 613.303 361.352 613.303 358.281 615.554C356.837 616.617 355.413 617.677 354.046 618.838C350.763 621.967 346.999 625.936 346.806 630.669C346.856 632.19 346.978 632.688 348.066 633.77C349.841 634.76 349.841 634.76 353.685 634.392C356.316 633.891 356.316 633.891 359.688 629.386C360.002 628.709 360.332 628.039 360.688 627.383C362.287 626.849 363.518 626.845 365.191 626.882C365.317 628.258 365.317 628.258 365.191 629.886C364.516 631.794 363.681 632.987 362.158 634.267C357.035 638.412 350.516 644.079 348.182 650.414C347.847 652.671 347.947 654.819 349.245 656.767C350.69 657.779 350.69 657.779 353.685 657.424C355.503 656.496 356.497 655.696 357.655 654.013L358.687 652.417C360.33 650.529 361.638 648.843 364.19 648.411C364.316 650.059 364.316 650.059 364.19 651.916C363.473 653.403 362.773 654.346 361.532 655.439C358.646 657.618 356.042 659.924 353.618 662.599C350.601 666.063 347.425 670.162 347.682 674.948C348.463 676.199 348.463 676.199 349.683 676.95C351.527 677.171 352.393 677.148 353.948 676.092C355.425 674.729 356.833 673.287 358.717 672.532C360.465 672.242 361.726 672.45 363.19 673.446L363.19 673.446C363.437 674.856 363.437 674.856 363.391 675.928C361.041 680.241 361.041 680.241 356.806 683.125L356.728 683.182C353.986 685.185 351.319 687.133 348.963 689.593C347.163 691.739 346.438 693.16 346.681 695.976C347.4 697.259 347.4 697.259 348.682 697.979C351.393 698.071 352.822 697.495 355.029 695.945C356.676 694.665 357.591 694.302 359.688 694.474C359.856 695.829 359.856 695.829 359.688 697.478C358.272 700.523 356.617 701.952 353.896 703.917C349.502 707.028 344.36 710.363 342.179 715.503C341.742 717.997 341.637 720.134 342.992 722.325C344.467 723.179 345.472 723.479 347.181 723.514C349.106 722.809 349.905 721.767 350.933 720.072C351.999 718.271 353.013 716.809 354.685 715.503C356.288 715.314 357.242 715.281 358.687 716.004L358.857 717.079C358.653 718.792 358.01 719.42 356.782 720.583C354.933 722.262 353.14 723.974 351.529 725.884C350.848 726.756 350.154 727.618 349.449 728.47C349.021 728.984 348.599 729.502 348.182 730.023C347.028 731.635 345.852 733.162 344.491 734.607C337.596 738.227 337.596 738.227 329.505 737.868C327.815 737.834 326.129 737.823 324.439 737.828C321.506 737.837 318.575 737.826 315.643 737.789C311.373 737.732 307.105 737.701 302.835 737.692C295.91 737.678 288.985 737.639 282.06 737.573C275.317 737.509 268.574 737.453 261.83 737.423L260.566 737.417C258.471 737.408 256.376 737.399 254.281 737.39C236.555 737.316 218.83 737.193 201.105 737.032L200.605 736.031L199.104 735.53V734.529C192.06 729.829 186.003 724.404 182.596 716.504C183.904 717.543 185.235 718.541 186.598 719.508C189.191 721.223 191.389 722.642 194.602 722.012C195.988 720.802 196.519 720.011 196.822 718.194C196.075 712.432 194.469 708.946 189.974 705.302C188.559 704.177 187.169 703.05 185.828 701.838C183.033 699.121 179.987 696.376 179.907 692.253C179.895 690.563 179.895 690.563 180.595 689.968C182.298 689.979 182.298 689.979 184.096 690.469L184.096 690.469C185.034 691.783 185.034 691.783 186.097 692.972C187.669 693.128 189.099 692.958 190.6 692.472C191.932 691.425 192.095 690.991 192.538 689.28C192.624 686.781 191.724 685.634 190.053 683.833L188.849 682.677C184.391 678.288 178.029 673.4 177.906 666.686C177.95 665.575 177.791 664.736 178.593 663.933L179.627 663.993L180.876 664.152C181.616 664.243 182.356 664.336 183.096 664.433V665.435C184.384 666.776 185.055 666.934 186.942 667.062C188.599 666.937 188.599 666.937 189.099 666.436C189.66 662.037 189.66 662.037 183.503 653.546C180.547 649.48 177.841 645.979 177.093 640.901C178.506 640.92 178.506 640.92 180.094 641.402C181.251 642.935 181.251 642.935 182.596 644.406C184.174 644.821 185.516 644.799 187.098 644.406C188.651 643.117 189.034 642.36 189.318 640.369C189.072 638.716 189.072 638.716 187.598 636.896L187.598 636.896C181.747 629.708 178.312 622.222 175.891 613.305C175.173 610.653 174.442 608.005 173.684 605.364L173.184 603.632C171.915 599.085 170.34 594.988 168.088 590.833C166.588 590.733 165.481 590.604 164.157 591.373C163.586 592.335 163.586 592.335 163.423 593.859L163.457 595.719C163.467 596.757 163.479 597.794 163.5 598.832C163.632 604.936 163.59 610.617 162.127 616.573L161.741 618.089C159.697 626.119 157.523 633.365 153.08 640.401C152.661 641.06 152.242 641.72 151.824 642.38C151.409 643.045 150.994 643.71 150.579 644.375C149.009 646.755 148.291 648.496 148.578 651.416C149.078 652.386 149.078 652.386 150.079 652.918C152.92 653.375 154.386 652.858 156.863 651.416C157.755 650.889 158.661 650.385 159.584 649.914C161.233 649.586 162.555 649.648 164.086 650.414C164.273 653.762 162.647 656.046 160.651 658.634L160.624 658.667C158.536 661.224 156.471 663.753 154.726 666.561C153.745 668.655 153.502 670.694 154.081 672.945C155.066 674.22 155.382 674.421 157.02 674.635C159.149 674.379 160.415 673.77 161.784 672.082C162.274 671.45 162.77 670.823 163.273 670.201C165.222 668.984 165.222 668.984 167.588 668.939L167.65 670.285C167.486 674.651 164.432 678.286 161.426 681.221C160.765 681.853 160.107 682.49 159.454 683.13L158.452 684.116L158.26 684.305C154.85 687.653 151.26 691.177 149.078 695.476C148.445 697.394 148.27 698.866 149.203 700.733C150.678 701.538 151.514 701.675 153.174 701.765C157.295 701.595 159.858 699.833 162.616 696.884C164.497 694.873 165.887 694.36 168.588 693.974L168.401 695.476C166.847 698.433 166.847 698.433 164.043 700.432C163.054 701.145 162.072 701.868 161.096 702.599L161.031 702.648C159.549 703.763 158.067 704.878 156.582 705.99C152.72 708.772 149.526 711.508 148.234 716.27C147.98 717.903 147.708 718.967 148.672 720.379C149.578 721.01 149.578 721.01 150.784 721.175L152.111 721.136C154.117 721.1 155.052 720.942 156.629 719.655L157.833 718.601C159.025 717.569 159.947 716.747 160.725 715.372L161.084 714.502L163.586 715.002C163.581 716.104 163.504 717.164 163.369 718.259C160.739 723.352 160.739 723.352 155.808 726.63C154.388 727.607 152.988 728.59 151.613 729.63L150.266 730.711C148.893 731.801 148.892 731.801 147.578 733.027L147.577 733.027C146.61 734.434 145.663 735.806 144.557 737.106C139.967 739.649 139.967 739.649 134.567 739.655L133.476 739.661C132.421 739.681 131.369 739.694 130.313 739.679C126.608 739.528 124.489 738.753 121.946 736.054L121.064 735.03L119.657 733.702C117.057 730.983 116 729.318 116.061 725.517C117.597 726.014 118.562 726.518 119.778 727.602C121.619 729.457 122.886 730.868 125.472 731.462C127.067 731.024 127.067 731.024 128.536 730.054C129.724 728.29 129.964 727.312 129.845 725.221C129.22 722.503 127.535 720.309 125.413 718.556C119.966 714.313 114.869 709.85 113.059 702.986C114.535 702.826 114.535 702.826 115.332 703.629L116.155 704.519C116.792 705.175 117.428 705.832 118.062 706.491C119.314 707.813 120.517 709.024 122.064 709.995C124.258 710.532 125.9 710.386 127.848 709.244C128.85 707.5 128.85 707.5 128.567 703.987V703.987C127.389 701.629 125.379 699.663 123.379 697.985L123.205 697.849C121.548 696.559 119.901 695.275 118.33 693.88C114.942 690.63 112.26 687.297 112.059 682.458L112.559 681.957C113.996 681.81 114.808 681.804 116.057 682.562C117.036 683.397 118.036 684.186 119.062 684.961C121.624 686.36 124.167 687.037 127.067 686.463C128.313 685.496 128.538 685.15 128.786 683.553C128.44 681.025 127.149 679.536 125.378 677.764C124.365 676.75 123.585 675.842 122.752 674.697C122.005 673.666 121.247 672.657 120.416 671.691C117.729 668.64 115.09 665.976 114.06 661.93L114.178 661.943C115.648 662.11 116.785 662.239 118.031 663.103C118.716 663.654 119.407 664.199 120.102 664.736C122.717 666.643 124.324 667.392 127.567 666.937C128.567 665.935 128.567 665.935 128.818 664.371C128.526 662.107 127.886 661.254 126.484 659.528C119.487 651.125 116.435 642.619 114.748 631.983C114.443 629.868 114.272 628.202 113.059 626.381C111.871 625.912 111.871 625.912 110.558 625.881H110.558C108.57 627.253 108.57 627.253 107.412 631.553C106.595 634.769 105.786 637.935 104.522 641.009C103.927 642.443 103.395 643.838 103.009 645.343C101.739 650.691 100.512 655.177 96.4257 659.051L95.1047 660.185C93.7704 661.758 93.6367 662.9 93.5492 664.934C94.0495 665.435 94.0495 665.435 95.2493 665.501L96.7384 665.497L96.7968 665.497C98.7241 665.503 100.237 665.507 101.878 664.355C103.575 663.033 104.848 662.131 107.056 661.93C107.226 663.243 107.226 663.243 107.056 664.934C105.816 669.182 103.045 672.275 99.7106 675.073C96.4973 677.642 91.8164 680.575 90.9541 684.899C91.0479 686.463 91.0479 686.463 91.6146 687.304C92.5487 687.965 92.5487 687.965 93.9733 688.13L95.5815 688.091C96.5724 688.076 97.5636 688.039 98.5518 687.965C99.6396 687.421 99.6396 687.421 100.959 685.243C102.099 683.338 102.925 682.62 105.055 681.957C104.952 682.793 104.835 683.627 104.711 684.461C103.762 689.36 101.744 691.481 97.7702 694.318C95.5235 695.854 93.596 697.179 92.0484 699.481C91.7261 701.134 91.8828 701.729 92.7988 703.142C94.0494 703.987 94.0495 703.987 95.8941 704.363L95.8942 704.363C97.9524 704.282 98.9165 703.391 100.397 702.016C101.928 700.427 102.836 699.726 105.055 699.481V700.983C103.046 709.293 97.9825 716.343 91.3293 721.517C89.062 723.278 86.7622 724.74 86.2642 727.676C86.5456 729.021 86.5456 729.021 87.5461 730.023C89.7253 731.406 91.4166 731.689 93.9264 731.675C96.5792 731.32 97.8954 730.33 99.5523 728.27C100.936 726.55 101.938 725.693 104.055 725.016C103.615 726.335 103.121 727.52 102.523 728.771C102.028 729.686 101.539 730.605 101.053 731.525C100.385 733.152 99.6887 734.443 98.6428 735.863C92.9996 738.039 92.9996 738.039 86.7036 737.662C85.5907 737.638 84.4776 737.625 83.3645 737.622C80.0882 737.626 76.8144 737.601 73.5388 737.533C73.5677 736.187 73.6231 734.869 73.5388 733.528C72.5338 731.276 72.5338 731.276 69.0052 728.396L68.9138 728.322C66.9646 726.763 65.0189 725.206 63.1271 723.576C60.2754 720.951 57.6806 717.872 57.4269 713.868C57.3777 712.543 57.3777 712.543 58.0307 711.998C60.0397 712.092 60.9378 712.424 62.5331 713.688L64.0339 715.002C66.6777 716.787 69.4334 716.895 72.5383 716.504C73.5388 715.503 73.5388 715.503 73.6541 714.564L73.6326 713.5C73.6175 711.853 73.4509 710.984 72.3644 709.698C70.7031 707.85 69.1062 705.97 67.5669 704.019C66.5705 702.753 65.5718 701.524 64.4794 700.34C62.0586 697.758 60.4412 695.221 59.0312 691.971C61.2735 692.156 62.6046 692.743 64.3811 694.119L64.518 694.226C66.5594 695.834 68.4148 697.296 71.1313 697.322C73.0385 696.978 73.0385 696.978 74.0391 695.976C74.1943 693.491 74.0023 692.53 72.4113 690.61C65.2094 682.058 61.3751 672.544 59.9692 661.461C59.7614 659.332 59.5758 657.969 58.0307 656.422C56.4674 656.266 56.4674 656.266 55.0292 656.422C54.5289 656.923 54.5289 656.923 54.1223 658.022L53.6359 659.489L53.0871 661.139L52.4966 662.931C51.4674 666.031 50.4424 669.131 49.455 672.244L48.9088 673.983C48.5616 675.087 48.215 676.191 47.8692 677.295C46.6787 681.178 45.6769 685.181 42.8607 688.218C41.6728 689.253 40.568 690.291 39.5211 691.47C38.9481 692.817 38.9295 693.482 39.0208 694.975C40.0214 695.976 40.0214 695.976 41.0336 696.109L42.21 696.102C44.3588 696.116 45.6636 695.594 47.3982 694.347C49.0799 693.045 50.3449 692.169 52.5279 691.971C52.6976 693.284 52.6976 693.284 52.5279 694.975C51.3098 698.987 48.9172 701.911 45.7333 704.562C42.3683 707.247 37.3617 710.473 36.3319 714.94C36.5195 716.504 36.5195 716.504 37.4888 717.725C39.4393 718.721 40.8766 718.856 43.0229 718.507C44.8887 717.786 45.6031 716.973 46.4935 715.253C47.4507 713.388 48.5585 712.759 50.5268 711.998C50.4029 713.189 50.2565 714.33 50.0266 715.503C48.9622 719.217 47.2691 721.637 44.0371 723.785C42.671 724.667 41.3316 725.553 40.0214 726.518V727.519H39.0208C38.2079 728.333 38.2079 728.333 37.5201 729.522C37.3297 731.078 37.2772 732.07 38.0203 733.465C39.0208 734.028 39.0208 734.028 39.9764 734.134C42.6335 734.182 43.7476 733.811 45.6493 732.088C47.1429 730.723 48.6995 729.884 50.5268 729.021C50.297 729.862 50.0676 730.703 49.8399 731.544L49.5576 732.589C49.1982 733.9 48.8574 735.212 48.5258 736.532L48.0255 739.536H-1V1080H1920C1938.13 1076.5 1386.52 858.768 1338.45 867.323L1337.32 867.21C1332.93 866.766 1332.93 866.766 1323.69 865.958L1323.61 865.951C1319.36 865.581 1315.11 865.211 1310.87 864.771C1307.67 864.436 1304.48 864.15 1301.27 863.987C1298.13 863.828 1295.01 863.559 1291.88 863.25C1290.23 863.085 1288.59 862.923 1286.94 862.761L1285.84 862.655C1281.19 862.201 1276.54 861.77 1271.88 861.343L1270.48 861.215C1266.68 860.866 1262.87 860.517 1259.06 860.169C1256.16 859.904 1253.27 859.639 1250.37 859.373C1249.01 859.248 1247.65 859.123 1246.29 858.999C1241.62 858.573 1236.96 858.134 1232.29 857.664C1228.6 857.289 1224.92 856.945 1221.22 856.625L1219.72 856.496C1215.42 856.126 1211.11 855.756 1206.82 855.309C1202.6 854.865 1198.38 854.502 1194.15 854.165C1192.95 854.07 1191.75 853.973 1190.55 853.874L1189.23 853.764C1186.08 853.5 1182.93 853.237 1179.78 853.041C1178.29 852.951 1176.8 852.853 1175.31 852.746C1174.61 852.694 1173.91 852.644 1173.2 852.596C1171.92 852.533 1170.63 852.454 1169.35 852.356C1166.32 851.952 1164.82 851.001 1162.86 848.68L1162.11 847.683C1159.52 844.784 1157.7 841.7 1156.1 838.17L1156.34 838.383C1159.09 840.836 1162.28 843.685 1165.91 844.454L1165.93 844.455C1167.57 844.506 1168.63 844.538 1169.97 843.535C1170.86 842.335 1170.86 842.335 1170.75 839.438C1170.24 834.858 1168.5 831.147 1164.93 828.182C1164.03 827.481 1163.13 826.774 1162.23 826.062L1160.82 824.933L1159.41 823.809C1156.48 821.213 1154.26 818.128 1153.94 814.169C1153.93 812.7 1153.93 812.7 1154.6 812.135C1156.02 811.842 1156.02 811.842 1157.6 812.135C1158.42 813.146 1159.26 814.148 1160.1 815.139C1161.86 815.347 1163.02 815.434 1164.61 814.638C1165.83 813.381 1166.52 812.469 1166.95 810.758C1166.26 807.469 1166.26 807.469 1158.79 800.401L1158.79 800.4C1155.43 797.27 1152.53 794.12 1151.86 789.412L1151.94 788.039C1151.98 787.225 1152.03 786.411 1152.1 785.599L1152.26 785.605C1153.94 785.673 1155.12 785.72 1156.49 786.801C1158.12 788.369 1158.71 789.058 1161.04 789.322C1162.61 789.103 1162.61 789.103 1163.11 788.603C1163.7 783.992 1163.7 783.992 1157.63 775.616C1154.9 771.855 1151.27 767.924 1151.6 763.068C1153.01 763.086 1153.01 763.086 1154.6 763.569C1156.04 765.381 1156.53 766.46 1158.85 766.917C1160.6 766.573 1160.6 766.573 1162.07 765.54C1163.11 764.069 1163.11 764.069 1163.39 762.317C1163.11 760.564 1163.11 760.564 1162.22 759.369C1157.43 753.748 1153.32 747.547 1151.41 740.322C1150.34 735.892 1149.11 731.501 1147.81 727.133L1147.35 725.611C1146.11 721.452 1144.98 715.834 1142.1 712.499C1140.55 712.24 1139.6 712.172 1138.26 713.036C1137.43 714.235 1137.43 715.194 1137.44 716.626L1137.46 717.674C1137.47 718.795 1137.49 719.915 1137.51 721.036C1137.53 722.192 1137.55 723.348 1137.56 724.504C1137.57 724.99 1137.57 725.477 1137.58 725.964L1137.59 726.717C1137.63 728.489 1137.65 730.194 1137.36 731.949L1137.09 733.027C1135.19 742.896 1133.29 752.521 1127.89 761.181L1127.14 762.354C1126.63 763.146 1126.13 763.937 1125.62 764.726C1124.08 766.984 1122.93 768.745 1122.86 771.538L1122.86 771.545C1122.91 773.13 1122.92 773.419 1124.09 774.584C1126.66 775.101 1128.63 774.705 1130.84 773.332C1133.08 771.932 1134.98 771.672 1137.59 772.08C1138.23 772.617 1138.23 772.617 1138.28 773.864L1138.28 773.865C1137.08 777.825 1137.08 777.825 1134.4 781.135C1132.53 783.528 1130.61 785.886 1129.03 788.477C1127.93 790.591 1127.52 792.767 1128.09 795.112C1128.96 796.196 1129.34 796.564 1130.71 796.833C1133.03 796.463 1134.86 795.466 1136.38 793.697L1136.47 793.582C1137.14 792.707 1137.79 791.874 1138.59 791.106C1140.22 790.812 1140.22 790.812 1141.59 791.106C1141.76 795.271 1140.04 798.292 1137.28 801.307C1136.54 802.066 1135.81 802.837 1135.09 803.623C1134.77 804.298 1134.44 804.967 1134.09 805.626C1132.4 806.469 1131.24 807.383 1129.93 808.776L1129.15 809.631C1126.75 812.257 1124.59 814.888 1123.09 818.143C1122.42 820.096 1122.39 820.707 1123.21 822.586C1124.79 823.806 1125.36 823.83 1127.31 823.87C1131.68 823.766 1134 821.729 1137.03 818.8L1138.28 817.574C1139.85 816.461 1140.71 816.451 1142.6 816.641L1142.53 817.726C1142.03 819.344 1141.3 820.049 1140.02 821.119L1139.16 821.804C1137.5 823.161 1135.83 824.474 1134.11 825.741C1129.15 829.285 1124.07 832.663 1122.26 838.773C1121.93 840.444 1121.95 841.442 1122.8 842.927C1124.24 843.766 1125.35 843.993 1127.01 843.901C1129.88 843.306 1131.89 841.522 1133.68 839.297L1134.4 838.395C1135.36 837.39 1136.23 837.209 1137.59 837.169C1137.76 839.257 1137.71 840.718 1136.65 842.52C1135.59 844.177 1135.59 844.178 1134.97 845.397L1134.97 845.399L1134.59 846.181H1133.59L1133.02 846.922C1131.34 847.885 1131.34 847.885 1129.35 847.864L1128.28 847.84C1125.33 847.854 1122.45 847.569 1119.53 847.212C1116.14 846.795 1112.76 846.471 1109.35 846.212C1100.01 845.516 1090.68 844.642 1081.36 843.747L1080.31 843.646C1075.23 843.158 1070.14 842.668 1065.05 842.176C1059.61 841.647 1054.16 841.131 1048.71 840.68C1045.39 840.406 1042.07 840.122 1038.74 839.835C1034.91 839.503 1031.08 839.174 1027.25 838.856C1022.98 838.503 1018.72 838.142 1014.45 837.772L1013.75 837.711C1011.55 837.518 1009.35 837.325 1007.15 837.144C997.057 836.325 987.203 835.655 977.519 832.501C975.344 831.765 973.155 831.117 970.944 830.499C968.405 829.783 968.403 829.782 965.872 829.052L965.866 829.051L964.503 828.657C959.794 827.298 955.072 825.973 950.398 824.497C947.127 823.455 943.853 822.456 940.547 821.532L939.052 821.116C935.84 820.208 932.627 819.309 929.399 818.464C927.499 817.968 925.602 817.463 923.707 816.95C922.746 816.689 921.785 816.429 920.824 816.172C919.423 815.814 918.024 815.457 916.629 815.077L915.327 814.718C914.525 814.523 913.726 814.314 912.932 814.087C911.191 813.446 910.577 812.755 909.757 811.097C909.27 809.861 908.985 809.144 908.096 808.131L907.192 807.41L906.148 806.553C902.433 803.626 898.697 801.022 896.248 796.907L896.13 796.689C894.931 794.483 894.224 793.18 894.966 790.605L896.061 790.23C897.51 789.948 897.51 789.948 898.625 790.918C899.661 791.835 900.66 792.683 901.782 793.484C904.177 794.964 906.732 795.143 909.474 794.611C910.696 793.679 910.936 793.292 911.256 791.763C910.914 789.746 910.19 788.795 908.921 787.228L907.973 786.099C906.272 783.994 904.584 781.877 902.812 779.831C900.122 776.753 897.889 773.959 896.467 770.077L896.586 770.091C898.055 770.257 899.193 770.386 900.438 771.251C902.797 773.147 905.036 775.271 908.192 775.335C909.974 775.084 909.974 775.084 910.975 774.083C911.104 771.664 911.139 770.376 909.581 768.503C903.549 761.43 899.321 753.683 897.785 744.442L897.597 743.25C897.469 742.44 897.342 741.629 897.218 740.819L897.187 740.6C896.849 738.143 896.562 736.059 894.966 734.028C893.684 733.809 893.684 733.809 892.465 734.028C891.144 735.35 891.144 735.35 888.877 742.356L888.877 742.357L888.275 744.23C887.235 747.455 886.168 750.673 885.309 753.952C883.994 759.198 882.843 763.397 878.833 767.198L877.512 768.333C876.178 769.906 876.044 771.047 875.956 773.081C876.457 773.582 876.457 773.582 877.657 773.649L879.146 773.645L879.204 773.645C881.131 773.65 882.645 773.654 884.285 772.503C885.982 771.181 887.255 770.278 889.464 770.077C889.215 775.295 887.285 778.584 883.446 782.08C882.689 782.75 881.939 783.427 881.194 784.109L880.062 785.153C878.819 786.295 877.588 787.442 876.4 788.642L875.175 789.948C874.018 791.181 873.502 791.739 873.287 793.422C873.455 794.611 873.455 794.611 874.424 795.769C876.241 796.77 877.431 796.798 879.464 796.733C880.88 796.563 881.346 796.256 882.235 795.131L882.423 794.872C883.88 792.871 885.117 791.172 887.462 790.105C887.264 792.027 887.033 793.833 886.556 795.706C885.14 799.062 882.182 801.98 878.958 803.623C877.358 803.656 876.21 803.301 874.696 802.782C873.077 802.167 871.455 801.629 869.804 801.11L868.64 800.744C864.167 799.304 859.652 798.055 855.113 796.838L853.541 796.42C852.51 796.143 851.478 795.874 850.443 795.612L848.751 795.263L847.111 794.914L845.63 794.625C844.323 794.211 844.323 794.211 843.819 792.859C843.44 791.607 843.44 791.607 842.695 790.789L841.782 790.042C841.006 789.389 840.224 788.743 839.438 788.102C833.738 783.49 828.9 778.966 825.93 772.08C828.706 774.338 831.676 777.077 835.24 777.883C837.004 777.955 838.046 777.884 839.469 776.805C840.118 775.116 840.086 773.888 839.938 772.08C839.337 767.434 837.375 764.14 833.776 761.156C830.374 758.413 827.02 755.606 824.43 752.053C823.289 749.857 823.347 747.933 823.929 745.544C825.324 745.292 825.324 745.292 826.931 745.544C827.739 746.566 828.575 747.567 829.432 748.548C830.851 748.974 832.008 748.928 833.434 748.548C835.257 747.294 835.83 746.555 836.28 744.386C835.695 741.251 835.696 741.251 830.527 736.094C827.521 733.136 824.238 730.195 822.147 726.487C820.987 723.889 821.04 721.174 821.928 718.507C823.425 718.694 824.321 718.929 825.553 719.823C827.252 721.323 828.38 722.422 830.652 722.794C831.934 722.513 831.934 722.513 832.934 721.511C833.369 717.481 833.369 717.481 827.857 710.048C824.811 706.079 820.563 701.751 820.928 696.477L821.991 696.258C823.44 696.324 823.44 696.324 824.14 697.257C824.867 698.228 825.565 699.132 826.431 699.982C828.531 700.387 829.507 700.199 831.402 699.231C832.434 697.979 832.434 697.979 832.653 696.1C832.598 694.151 832.002 693.054 830.706 691.562C823.383 683.55 820.613 673.676 817.926 663.401C816.427 657.526 815.207 650.79 811.423 645.908C809.86 645.658 809.86 645.658 808.421 645.908C807.421 646.909 807.421 646.909 807.331 648.167L807.376 649.757L807.41 651.523C807.54 657.353 807.502 662.924 806.222 668.621L805.92 669.941C805.514 671.777 805.105 673.611 804.684 675.444L804.232 677.388C802.564 684.623 800.143 690.406 796.009 696.571C793.893 699.673 791.973 702.195 792.14 706.067C792.487 707.243 792.953 707.744 793.914 708.493C795.668 708.724 796.66 708.619 798.254 707.836C801.322 705.871 803.279 705.078 806.921 705.489C807.526 705.996 807.526 705.996 807.577 707.023C807.292 709.702 806.053 711.704 804.408 713.77C801.33 717.418 797.29 721.52 797.103 726.549L797.125 726.69C797.416 728.528 797.477 728.916 798.916 730.023C800.907 730.185 802.115 730.163 803.694 728.904L804.576 728.145C805.198 727.611 805.813 727.069 806.42 726.518C807.691 725.078 807.691 725.078 808.922 724.015C810.06 724.037 810.06 724.037 810.923 724.515C811.092 725.828 811.092 725.828 810.923 727.519C809.648 731.812 806.735 735.628 803.294 738.44C799.07 741.871 793.281 747.199 792.184 752.698C792.115 754.117 792.181 755.219 792.995 756.41C793.914 757.06 793.914 757.06 795.303 757.242L796.884 757.216C801.203 757.2 801.203 757.2 806.358 752.209L807.604 750.983C809.176 749.87 810.039 749.86 811.923 750.05C812.131 751.951 812.131 751.951 811.329 752.798L810.422 753.555C808.18 755.477 805.898 757.348 803.511 759.088C798.183 762.872 793.642 766.18 791.584 772.604C791.241 774.149 791.327 774.939 792.132 776.305C793.581 777.189 794.682 777.375 796.376 777.275C799.293 776.748 800.913 775.176 802.731 772.988L803.532 771.933C804.626 770.88 805.435 770.748 806.921 770.578C807.09 771.912 807.09 771.912 806.921 773.582C805.971 776.247 804.583 778.25 802.418 780.091C801.193 780.9 800.65 781.124 799.177 780.924L797.785 780.512L796.211 780.057L794.57 779.559L793.006 779.102L791.407 778.634C790.239 778.294 789.073 777.945 787.911 777.588C783.547 776.003 779.662 774.953 774.983 774.927L773.407 774.941C771.258 774.962 769.11 774.998 766.962 775.053C763.349 775.185 759.725 775.36 756.129 774.905C753.379 774.189 751.963 772.294 750.375 770.056C749.391 768.575 749.391 768.575 748.269 767.494C746.159 765.769 744.092 764.001 742.174 762.063C740.958 760.522 740.808 759.507 740.886 757.56C741.855 756.373 741.855 756.373 743.606 756.434C745.735 756.583 746.487 757.177 748.007 758.626C748.859 759.451 749.725 760.263 750.602 761.061C752.318 762.398 753.246 762.702 755.394 762.567C756.394 761.566 756.394 761.566 756.551 760.314C755.936 753.43 752.324 748.739 747.358 744.23C745.604 742.699 743.916 741.215 742.48 739.373C740.854 737.017 739.898 735.515 740.386 732.526C741.276 731.426 741.276 731.426 742.434 731.409L743.638 731.431L743.713 731.432C744.977 731.442 745.735 731.448 746.889 732.025C748.673 733.318 750.423 734.535 752.392 735.53C754.928 736.004 756.733 735.972 758.896 734.529C759.146 733.246 759.146 733.246 758.896 731.525C756.993 726.713 753.244 722.888 749.109 719.915C747.406 718.729 745.752 717.537 744.169 716.191C741.501 713.773 740.102 711.673 739.886 707.993L740.386 707.492C742.711 707.406 744.508 707.255 746.362 708.808C747.106 709.469 747.868 710.11 748.644 710.733C750.528 711.888 752.254 711.918 754.393 711.497C755.034 710.857 755.034 710.857 755.394 707.492C754.804 706.919 754.804 706.919 754.018 705.914C752.458 703.981 750.899 702.056 749.25 700.199C748.508 699.385 747.769 698.569 747.032 697.75L745.889 696.477L744.605 695.063L743.356 693.629L742.213 692.341C741.176 690.621 741.233 689.439 741.386 687.465C743.311 687.303 743.311 687.303 744.513 688.091C746.249 689.196 747.967 690.228 749.891 690.97C752.146 691.192 752.997 691.233 754.893 689.968L755.058 689.029L755.019 687.965C754.983 686.342 754.87 685.422 753.662 684.255L752.705 683.428C751.94 682.764 751.168 682.107 750.391 681.457L750.383 681.45C748.518 679.984 746.663 678.526 744.888 676.95C742.76 674.685 740.969 672.684 740.886 669.44C742.493 669.193 743.561 669.243 744.966 670.091C746.401 671.122 747.732 672.208 749.404 672.808C750.75 673.053 751.65 673.078 752.861 672.413C753.634 671.002 753.587 670.023 753.393 668.439C752.378 666.53 752.378 666.53 749.091 665.014C746.825 663.989 744.609 662.946 742.582 661.498C741.052 660.07 740.448 659.344 740.136 657.236C740.25 655.963 740.25 655.963 740.886 655.421C742.379 655.26 743.181 655.301 744.494 656.061C746.815 657.843 748.438 658.864 751.392 658.926C751.892 658.425 751.892 658.425 752.048 656.641C751.951 652.691 751.951 652.691 746.502 646.375C745.049 644.69 743.625 642.999 742.293 641.214C740.877 639.149 740.511 637.863 740.886 635.394L742.887 634.392V635.894C743.419 636.99 743.419 636.99 744.388 637.897C746.429 638.2 747.533 638.087 749.359 637.115C750.391 635.894 750.391 635.894 750.61 634.111C750.382 632.317 749.983 631.463 748.685 630.203C748.083 629.654 747.497 629.087 746.921 628.511C740.361 621.337 737.942 613.765 738 604.24C738.01 602.955 738.009 601.67 738.004 600.385C737.997 599.561 737.992 598.737 737.986 597.913C738.004 596.075 738.07 594.367 737.454 592.61C736.884 591.834 736.884 591.834 735.665 591.365C734.383 591.334 734.383 591.334 733.587 591.963C732.075 593.834 732.075 593.834 731.631 600.753C730.936 611.763 728.198 623.013 719.938 630.794L718.503 632.086C717.207 633.584 716.917 634.429 716.874 636.395C717.868 637.921 718.629 638.729 720.44 639.141C722.6 639.273 723.974 639.046 725.66 637.647L726.879 636.395L728.88 637.396C729.308 644.149 725.719 648.689 721.405 653.614L721.312 653.721C720.304 654.867 719.296 656.013 718.302 657.171C715.671 660.323 713.012 663.658 713.372 667.938C714.109 669.414 714.996 670.043 716.373 670.942C718.065 671.224 719.249 671.362 720.719 670.377C723.153 668.398 724.753 668.12 727.879 668.439C728.089 670.065 728.089 670.065 727.879 671.944C726.822 673.658 725.795 674.64 724.18 675.832C720.075 678.724 716.281 681.754 713.36 685.896C711.744 688.638 710.758 690.794 711.371 693.974C712.698 695.584 713.497 695.928 715.56 696.195C719.446 695.726 721.139 694.411 723.565 691.474C724.6 690.193 725.618 689.028 726.879 687.965C728.235 687.755 728.235 687.755 729.38 687.965C729.829 689.024 729.829 689.024 729.88 690.469C729.209 692.591 728.247 694.142 726.598 695.632C722.285 698.88 718.258 703.303 714.873 707.492C712.762 710.438 712.375 713.425 712.872 717.005C713.872 718.507 713.872 718.507 714.867 718.724L716.029 718.726L717.18 718.755C719.375 718.299 720.598 716.842 721.982 715.157L722.055 715.06C724.085 712.364 725.551 710.416 728.88 709.495L728.845 709.766C728.556 712.003 728.304 713.958 726.879 715.785C722.891 719.027 719.071 722.479 715.873 726.518C713.409 729.995 711.744 732.708 712.371 737.032C713.372 738.034 713.372 738.034 715.123 738.347C717.256 738.323 717.256 738.323 719.906 736.031C721.14 734.928 721.14 734.928 722.376 734.029L722.377 734.028C724.707 733.658 725.424 733.725 727.379 735.03C727.842 736.218 727.842 736.218 727.879 737.533C724.873 741.984 724.873 741.984 720.37 745.161C718.337 746.63 716.361 748.111 714.492 749.786L714.45 749.828C712.539 751.771 711.104 753.23 711.027 756.058C711.151 757.606 711.239 757.929 712.371 759.062C714.897 759.367 716.285 759.273 718.406 757.842C720.273 756.532 721.613 756.2 723.877 756.058C724.316 757.162 724.316 757.162 724.378 758.562C722.947 761.205 721.059 763.194 718.65 764.975C714.643 767.844 708.963 771.081 707.572 776.172L707.369 777.087C694.417 777.103 681.466 777.102 668.515 777.076C662.208 777.064 655.901 777.053 649.594 777.062C644.063 777.07 638.532 777.072 633.001 777.057C630.067 777.047 627.134 777.035 624.2 777.043C612.396 777.09 600.988 777.35 589.58 773.961C587.785 773.392 585.993 772.844 584.177 772.349C583.09 772.054 582.003 771.757 580.919 771.45C577.207 770.387 577.207 770.387 567.551 768.076L567.546 768.075C562.477 766.862 557.419 765.636 552.401 764.224C549.306 763.34 546.204 762.558 543.068 761.83C537.304 760.509 531.518 759.16 525.839 757.511C522.851 756.625 519.867 755.836 516.827 755.156C512.966 754.299 509.129 753.421 505.326 752.334C500.865 751.06 496.372 749.933 491.868 748.818C490.317 748.435 488.766 748.05 487.217 747.662C482.826 746.556 478.439 745.432 474.029 744.404C470.07 743.481 466.135 742.533 462.231 741.397C455.354 739.384 448.742 737.479 441.543 737.283C440.057 737.284 438.715 737.21 437.228 737.032C435.91 736.078 435.357 735.272 434.594 733.848L434.102 732.651C433.805 731.944 433.512 731.235 433.226 730.523L433.284 730.552C435.25 731.536 437.099 732.462 438.743 733.938C439.711 734.857 440.662 735.731 441.73 736.532C443.671 736.95 444.387 736.708 446.139 735.812C447.649 734.042 447.892 732.325 447.734 730.023C446.506 726.887 443.762 724.419 441.261 722.262C436.49 718.189 432.36 714.195 430.725 707.993C432.007 708.185 432.617 708.384 433.547 709.313C435.464 711.758 437.441 714.046 440.23 715.503C442.197 715.969 443.699 715.81 445.482 714.783C446.441 713.144 446.488 711.954 446.387 710.08C446 707.357 446 707.357 440.73 702.986C437.828 700.647 434.896 698.377 432.497 695.507C430.615 692.745 429.784 690.805 430.224 687.465C432.267 687.221 433.013 687.298 434.664 688.591C435.468 689.324 436.242 689.977 437.148 690.58C439.571 691.92 441.969 692.576 444.732 691.971C446.15 690.897 446.229 690.491 446.577 688.654C446.504 686.653 445.774 685.707 444.451 684.242L444.211 683.995C443.229 682.988 442.264 681.998 441.379 680.899L441.175 680.629C440.165 679.286 439.158 677.946 438.057 676.675L437.322 675.843C436.822 675.273 436.322 674.703 435.821 674.134C433.873 671.999 432.838 670.252 432.226 667.437C435.233 667.948 435.233 667.948 437.603 669.941C438.765 670.893 439.883 671.772 441.23 672.444C443.386 672.832 444.873 672.684 446.733 671.443C446.91 669.312 446.815 668.157 445.467 666.491C438.175 657.745 434.125 648.324 432.695 637.021C432.47 634.847 432.256 633.497 430.725 631.889C429.505 631.388 429.505 631.388 428.223 631.388C426.967 632.399 426.312 633.136 425.776 634.667C425.102 637.983 424.192 641.148 423.116 644.354C422.718 645.52 422.322 646.687 421.927 647.854L421.325 649.632C420.808 651.158 420.293 652.684 419.807 654.22L419.457 655.358C419.252 656.015 419.047 656.673 418.844 657.33C417.933 660.357 416.362 662.225 414.206 664.496C413.302 665.443 412.47 666.367 411.715 667.437C411.465 669.159 411.465 669.159 411.715 670.442C412.215 670.942 412.215 670.942 413.306 671.009L414.654 671.005C416.514 671.01 417.959 670.987 419.526 669.863C421.403 668.376 422.763 667.618 425.222 667.437C424.751 672.899 422.313 676.181 418.249 679.704C416.625 681.092 415.077 682.518 413.587 684.05L412.715 684.961C410.942 686.75 409.378 688.095 408.901 690.625C409.214 691.971 409.214 691.971 409.81 692.798C410.714 693.473 410.714 693.473 412.029 693.637L413.497 693.598C414.405 693.584 415.312 693.547 416.217 693.473C417.504 692.829 417.504 692.829 419.219 690.469C419.612 689.107 419.612 689.107 420.219 687.965C421.746 687.516 421.746 687.516 423.221 687.465C423.131 688.207 423.023 688.947 422.908 689.687C422.024 693.952 420.013 696.531 416.499 699.043C414.197 700.632 411.816 702.144 410.214 704.488C409.909 706.322 409.85 707.328 410.746 708.963C411.715 709.495 411.715 709.495 413.497 709.62C415.168 709.498 415.742 709.413 416.958 708.341C418.941 706.515 420.691 705.418 423.221 704.488C421.116 712.507 417.795 719.745 411.312 725.129L411.043 725.347C410.013 726.18 408.983 727.012 407.974 727.87L407.212 728.521L407.178 728.549C405.41 730.011 404.768 730.541 404.492 732.87C404.711 734.529 404.711 734.529 405.712 735.53C408.202 737.073 409.866 737.259 412.715 737.032C414.778 736.63 415.629 735.616 416.936 734.06C418.362 732.336 419.601 731.351 421.72 730.523L419.719 736.532L418.718 739.536H393.205V735.53C391.271 729.844 385.611 726.043 380.519 723.402L379.698 723.013V722.012L378.698 720.885C377.523 719.269 377.516 718.456 377.697 716.504C379.808 716.328 380.584 716.689 382.199 718.006C384.024 719.526 385.443 720.879 387.827 721.292C389.438 720.962 390.158 720.797 391.204 719.508C391.552 716.901 391.367 715.216 389.895 712.955L389.203 711.998C387.272 709.287 385.306 706.971 382.668 704.926C380.682 703.402 378.913 701.852 377.304 699.927C376.42 698.55 376.358 697.559 376.697 695.976C377.625 694.852 377.625 694.852 379.042 694.756C381.239 695.046 382.558 696.08 384.201 697.478C385.499 698.7 386.753 699.941 388.203 700.983C389.922 701.234 389.922 701.234 391.204 700.983C391.704 700.482 391.704 700.482 391.788 699.317L391.798 697.854L391.82 696.407C391.381 690.959 387.074 686.458 383.159 683.054C381.713 681.806 380.335 680.611 379.073 679.172L378.197 677.952C376.816 676.224 376.064 675.022 376.009 672.82C375.998 670.93 375.998 670.93 377.197 669.941C379.614 669.809 381.328 669.818 383.339 671.257C385.891 673.114 387.779 674.197 390.985 674.228C392.789 674.155 393.413 674.239 394.706 672.945C394.86 671.811 394.86 671.811 394.706 670.442C392.309 664.919 388.458 661.173 383.681 657.703C382.292 656.696 380.909 655.686 379.553 654.636C377.241 652.698 375.85 650.648 375.477 647.66C375.567 646.442 375.567 646.442 376.196 645.908C378.955 645.577 380.263 646.08 382.356 647.721L382.449 647.798C384.156 649.194 385.533 650.321 387.765 650.633C389.387 650.386 390.108 650.136 391.204 648.912C391.474 647.218 391.301 646.553 390.338 645.114L389.109 643.718C388.405 642.905 387.7 642.093 386.987 641.288C384.769 638.782 382.581 636.248 380.4 633.709L379.698 632.89C378.565 631.57 377.627 630.363 376.697 628.885C376.666 627.43 376.666 627.43 377.197 626.381C378.712 626.252 379.534 626.29 380.878 627.039C382.123 627.918 383.343 628.693 384.701 629.386C387.1 629.828 388.662 629.746 390.704 628.384L390.892 626.694C390.658 624.431 389.919 623.559 388.304 622.02L387.327 621.187C386.621 620.578 385.913 619.973 385.201 619.372C383.564 618.039 382.006 616.669 380.497 615.19L380.322 615.007C378.148 612.734 376.625 611.142 376.697 607.856C378.323 607.692 379.087 607.792 380.523 608.623C382.465 610.026 384.249 611.606 386.733 611.643C388.203 611.361 388.203 611.361 389.203 610.36C389.391 608.951 389.391 608.951 389.203 607.355C387.9 605.264 386.53 604.391 384.357 603.411C381.105 601.98 378.459 600.58 376.132 597.821C375.676 596.099 375.676 596.099 376.196 594.338C378.733 594.014 379.892 594.331 381.981 595.84L383.124 596.671C384.539 597.553 385.573 597.627 387.202 597.342C387.702 596.841 387.702 596.841 387.796 595.214V595.214C387.608 591.457 385.609 588.874 383.141 586.166C380.014 582.805 376.45 579.142 376.196 574.31L378.698 573.309V575.312L379.698 576.313C381.219 576.566 382.676 576.53 384.201 576.313C385.482 575.5 385.482 575.5 386.202 574.31C386.46 572.362 386.359 571.54 385.248 569.892C384.581 569.156 383.916 568.419 383.263 567.67L382.567 566.865C376.164 559.556 373.748 552.729 373.783 543.129C373.789 541.838 373.782 540.548 373.77 539.258C373.762 538.432 373.755 537.606 373.748 536.781C373.751 535.435 373.736 534.1 373.695 532.754Z" fill="#510130"/>
</svg>
