<svg width="1920" height="1080" viewBox="0 0 1920 1080" fill="none" xmlns="http://www.w3.org/2000/svg">
<path fill-rule="evenodd" clip-rule="evenodd" d="M48.3093 448.191C48.5666 448.311 48.7796 448.526 49.1916 448.942L49.1916 448.942C49.2935 449.376 49.3496 449.614 49.3959 449.855C49.4525 450.149 49.4946 450.445 49.5882 451.104L49.786 452.429L49.9914 453.839C51.3876 462.722 54.5421 470.052 60.211 477.028C61.2842 478.379 61.9309 479.209 62.2536 480.935C62.1126 481.547 62.0461 481.835 61.9201 482.095C61.8079 482.325 61.6485 482.533 61.3473 482.926C59.7392 483.616 58.4716 483.559 56.8689 482.953C55.7455 482.129 54.7101 481.235 53.66 480.318C52.1907 479.193 50.997 478.918 49.1916 478.648C50.1623 481.465 51.828 483.48 53.6912 485.734L53.6912 485.734L53.6912 485.734L53.8833 485.967C54.4442 486.683 55.004 487.401 55.5627 488.119C57.0904 490.053 58.7116 491.885 60.3726 493.703C61.4199 494.906 61.6262 495.594 61.6405 497.16L61.6588 498.075V498.075C61.6185 498.407 61.5947 498.602 61.5216 498.777C61.4167 499.027 61.2103 499.236 60.7075 499.743L60.7075 499.743C58.0547 500.12 55.8071 499.775 53.4568 498.452C53.0239 498.073 52.5973 497.688 52.1772 497.295C50.6325 496.093 49.8154 496.107 47.9121 496.299C48.0344 500.186 49.2657 502.414 51.9906 505.143C53.4848 506.528 55.0173 507.862 56.5607 509.19C57.3856 509.904 58.1978 510.629 59.0014 511.367L59.7795 512.07C61.2223 513.53 61.7315 514.556 61.8004 516.641C61.7729 517.834 61.717 518.465 61.0274 519.44C59.7828 520.337 58.6973 520.31 57.2026 520.272L57.1954 520.272C55.1016 519.75 53.6807 518.202 52.2542 516.649L52.2541 516.649L52.2539 516.648L52.2538 516.648L52.2536 516.648C52.0864 516.466 51.9192 516.284 51.7507 516.103C51.0027 515.294 50.6312 514.893 50.2011 514.569C49.7767 514.249 49.2952 514.005 48.3386 513.52C49.4274 518.901 52.7425 522.072 56.8261 525.414C59.6119 527.712 62.5425 530.441 63 534.212C62.818 535.651 62.4204 536.459 61.5713 537.615L83.7808 545.05C85.6182 543.713 88.1493 542.29 89.6758 541.504L90.0747 540.488C90.488 539.454 90.9396 538.451 91.4085 537.441C92.0827 535.928 92.4924 534.557 92.6614 532.894C90.7287 533.839 89.6098 535.182 88.288 536.837C87.2736 537.916 86.4105 538.407 84.9508 538.62C82.543 538.633 80.7885 538.191 78.5865 537.199C78.4509 537.062 78.3585 536.969 78.2903 536.86C78.1438 536.627 78.1091 536.324 78 535.369C78.2109 533.24 79.3874 532.298 80.8914 531.094C81.114 530.916 81.3438 530.732 81.5787 530.537L82.2567 529.992C88.2146 525.157 92.9511 518.3 93.9409 510.506C92.0154 511.36 90.5848 512.41 89.0427 513.819C87.7564 514.937 86.6183 514.933 84.9458 514.902C84.5735 514.861 84.3714 514.838 84.1802 514.78C83.953 514.71 83.7413 514.59 83.2781 514.327C82.6212 513.084 82.6352 512.329 82.8516 510.937C84.1862 508.826 85.9481 507.619 87.9567 506.243L88.2413 506.048C90.9102 504.173 93.0114 501.551 93.7427 498.297C93.8432 497.491 93.8971 496.68 93.9409 495.869C92.1387 496.444 91.3509 497.122 90.2622 498.667C89.0727 500.34 88.6348 500.956 88.0381 501.261C87.6905 501.439 87.2889 501.511 86.6535 501.625C84.7906 501.68 83.9447 501.635 82.3718 500.524C81.9103 499.825 81.7151 499.53 81.6451 499.207C81.5937 498.97 81.6095 498.719 81.637 498.284C82.5661 495.397 85.3276 493.158 87.7456 491.197L87.7457 491.197L87.7458 491.197C88.1345 490.882 88.5142 490.574 88.8761 490.272C91.9118 487.725 94.807 484.851 95.647 480.8L95.647 480.8L95.6471 480.799L95.6471 480.798C95.6865 480.149 95.7043 479.856 95.7004 479.563C95.6972 479.324 95.6794 479.084 95.647 478.648V478.648C93.7617 478.821 92.7151 479.607 91.2479 480.709L91.2469 480.71C89.1975 482.197 87.4264 482.213 84.9841 482.092L84.1311 481.661C83.9854 480.053 83.9262 479.4 84.1334 478.847C84.2749 478.469 84.541 478.137 84.9887 477.579L84.9888 477.579L84.9889 477.579L84.989 477.578L84.989 477.578L84.9891 477.578L84.9891 477.578L84.9892 477.578L86.1304 476.603C89.6613 473.255 90.8156 469.017 92.0449 464.505L92.0452 464.504L92.0452 464.504L92.0453 464.504C92.1735 464.033 92.3026 463.559 92.4352 463.083C92.7823 461.863 93.1849 460.665 93.5944 459.464C93.891 458.565 94.1721 457.663 94.4474 456.757L94.7265 455.84C94.9083 455.241 95.0889 454.642 95.2679 454.041C96.5349 449.876 96.9097 448.644 97.7068 448.236C98.0416 448.064 98.451 448.037 99.0324 448C99.7077 448.042 100.034 448.062 100.309 448.191C100.567 448.311 100.78 448.526 101.192 448.942C101.294 449.376 101.35 449.614 101.396 449.855C101.452 450.149 101.495 450.445 101.588 451.104L101.786 452.429L101.991 453.839C103.388 462.722 106.542 470.052 112.211 477.028C113.284 478.379 113.931 479.209 114.254 480.935L114.254 480.935L114.253 480.935L114.253 480.936L114.253 480.936C114.112 481.547 114.046 481.836 113.92 482.095C113.808 482.325 113.649 482.533 113.347 482.926C111.739 483.616 110.472 483.559 108.869 482.953C107.745 482.129 106.71 481.235 105.66 480.318C104.191 479.193 102.997 478.918 101.192 478.648C102.162 481.465 103.828 483.48 105.691 485.734L105.883 485.967C106.444 486.683 107.004 487.401 107.563 488.119C109.09 490.053 110.712 491.885 112.373 493.703C113.42 494.906 113.626 495.594 113.64 497.16L113.659 498.075C113.618 498.407 113.595 498.602 113.522 498.777C113.417 499.027 113.21 499.236 112.707 499.743C110.055 500.12 107.807 499.775 105.457 498.452C105.024 498.073 104.597 497.688 104.177 497.295C102.633 496.093 101.815 496.107 99.9121 496.299C100.034 500.186 101.266 502.414 103.991 505.143C105.485 506.528 107.017 507.862 108.561 509.19C109.386 509.904 110.198 510.629 111.001 511.367L111.779 512.07C113.222 513.53 113.731 514.556 113.8 516.641C113.773 517.834 113.717 518.465 113.027 519.44C111.783 520.337 110.697 520.31 109.203 520.272L109.195 520.272C107.102 519.75 105.681 518.202 104.254 516.649L104.254 516.649L104.254 516.648C104.087 516.466 103.919 516.284 103.751 516.103C103.003 515.294 102.631 514.893 102.201 514.569C101.777 514.249 101.295 514.005 100.339 513.52C101.427 518.901 104.742 522.072 108.826 525.414C111.612 527.712 114.543 530.441 115 534.212C114.817 535.658 114.417 536.465 113.561 537.629C112.111 538.361 110.836 538.471 109.295 538.06C108.124 537.174 107.119 536.213 106.093 535.159C104.959 534.12 103.864 533.523 102.471 532.894C102.548 533.469 102.64 534.043 102.738 534.616L102.888 535.584C104.093 538.855 106.778 541.215 109.346 543.474C109.652 543.743 109.957 544.01 110.257 544.278C111.874 547.892 112.926 551.022 111.938 554.478L146.342 565.996C148.801 563.757 150.944 561.191 151.647 557.8C151.686 557.149 151.704 556.856 151.7 556.563C151.697 556.324 151.679 556.084 151.647 555.648C149.762 555.821 148.715 556.607 147.248 557.709L147.247 557.71C145.197 559.197 143.426 559.213 140.984 559.092L140.131 558.661C139.985 557.053 139.926 556.4 140.133 555.847C140.275 555.468 140.541 555.137 140.989 554.578L142.13 553.603C145.661 550.255 146.816 546.017 148.045 541.505L148.046 541.501C148.174 541.031 148.303 540.558 148.435 540.083C148.782 538.863 149.185 537.665 149.594 536.464C149.891 535.565 150.172 534.663 150.447 533.757L150.726 532.84C150.908 532.241 151.089 531.642 151.268 531.041L151.268 531.041C152.535 526.876 152.91 525.644 153.707 525.236C154.042 525.064 154.451 525.037 155.032 525C155.708 525.042 156.034 525.062 156.309 525.191C156.567 525.311 156.78 525.526 157.192 525.942C157.294 526.376 157.35 526.614 157.396 526.855C157.452 527.149 157.495 527.445 157.588 528.104L157.588 528.104L157.786 529.429L157.991 530.839C159.388 539.722 162.542 547.052 168.211 554.028C169.284 555.379 169.931 556.209 170.254 557.935C170.113 558.547 170.046 558.835 169.92 559.095C169.808 559.325 169.649 559.533 169.348 559.925L169.348 559.925L169.347 559.926L169.347 559.926L169.347 559.926C167.739 560.616 166.472 560.559 164.869 559.953C163.745 559.129 162.71 558.235 161.66 557.318C160.191 556.193 158.997 555.918 157.192 555.648C158.162 558.465 159.828 560.48 161.691 562.734L161.883 562.967C162.444 563.683 163.004 564.401 163.563 565.119C165.09 567.053 166.712 568.885 168.373 570.703C169.335 571.808 169.587 572.478 169.633 573.794L196.735 582.869C196.757 582.586 196.798 582.281 196.852 581.937C198.186 579.826 199.948 578.619 201.957 577.243L202.241 577.048C204.91 575.173 207.011 572.551 207.743 569.297C207.843 568.491 207.897 567.68 207.941 566.869C206.139 567.444 205.351 568.122 204.262 569.667C203.073 571.34 202.635 571.956 202.038 572.261C201.69 572.439 201.289 572.511 200.654 572.625C198.791 572.68 197.945 572.635 196.372 571.524C195.91 570.825 195.715 570.53 195.645 570.207C195.594 569.97 195.61 569.719 195.637 569.284C196.566 566.397 199.328 564.158 201.746 562.197C202.134 561.882 202.514 561.574 202.876 561.272C205.912 558.725 208.807 555.851 209.647 551.8C209.686 551.149 209.704 550.856 209.7 550.563C209.697 550.324 209.679 550.084 209.647 549.648C207.762 549.821 206.715 550.607 205.248 551.709L205.247 551.71C203.197 553.197 201.426 553.213 198.984 553.092L198.131 552.661C197.985 551.053 197.926 550.4 198.133 549.847C198.275 549.468 198.541 549.137 198.989 548.578L200.13 547.603C203.661 544.255 204.816 540.017 206.045 535.505L206.046 535.501C206.174 535.031 206.303 534.558 206.435 534.083C206.782 532.863 207.185 531.665 207.594 530.464C207.891 529.565 208.172 528.663 208.447 527.757L208.726 526.84C208.908 526.241 209.089 525.642 209.268 525.041L209.268 525.041C210.535 520.876 210.91 519.644 211.707 519.236C212.042 519.064 212.451 519.037 213.032 519C213.708 519.042 214.034 519.062 214.309 519.191C214.567 519.311 214.78 519.526 215.192 519.942C215.294 520.376 215.35 520.614 215.396 520.855C215.452 521.149 215.495 521.445 215.588 522.104L215.588 522.104L215.786 523.429L215.991 524.839C217.388 533.722 220.542 541.052 226.211 548.028C227.284 549.379 227.931 550.209 228.254 551.935C228.113 552.547 228.046 552.835 227.92 553.095C227.808 553.325 227.649 553.533 227.348 553.925L227.348 553.925L227.347 553.926L227.347 553.926L227.347 553.926C225.739 554.616 224.472 554.559 222.869 553.953C221.745 553.129 220.71 552.235 219.66 551.318C218.191 550.193 216.997 549.918 215.192 549.648C216.162 552.465 217.828 554.48 219.691 556.734L219.883 556.967C220.444 557.683 221.004 558.401 221.563 559.119C223.09 561.053 224.712 562.885 226.373 564.703C227.42 565.906 227.626 566.594 227.64 568.16L227.659 569.075C227.618 569.407 227.595 569.602 227.522 569.777C227.417 570.027 227.21 570.236 226.707 570.743C224.055 571.12 221.807 570.775 219.457 569.452C219.024 569.073 218.597 568.688 218.177 568.295C216.633 567.093 215.815 567.107 213.912 567.299C214.034 571.186 215.266 573.414 217.991 576.143C219.485 577.528 221.017 578.862 222.561 580.19C223.386 580.904 224.198 581.629 225.001 582.367L225.779 583.07C227.222 584.53 227.731 585.556 227.8 587.641C227.773 588.834 227.717 589.465 227.027 590.44C225.783 591.337 224.697 591.31 223.203 591.272L223.195 591.272C221.102 590.75 219.681 589.202 218.254 587.649L218.252 587.647L218.251 587.645C218.084 587.464 217.918 587.283 217.751 587.103C217.003 586.294 216.631 585.893 216.201 585.569C215.777 585.249 215.295 585.005 214.339 584.52C214.713 586.37 215.35 587.958 216.192 589.383L247.089 599.727C247.579 599.145 248.201 598.647 248.891 598.094C249.114 597.916 249.344 597.732 249.579 597.537L250.257 596.992C256.215 592.157 260.951 585.3 261.941 577.506C260.015 578.36 258.585 579.41 257.043 580.819C255.756 581.937 254.618 581.933 252.946 581.902C252.574 581.861 252.371 581.838 252.18 581.78C251.953 581.71 251.741 581.59 251.278 581.327C250.621 580.084 250.635 579.329 250.852 577.937C252.186 575.826 253.948 574.619 255.957 573.243L256.241 573.048C258.91 571.173 261.011 568.551 261.743 565.297C261.843 564.491 261.897 563.68 261.941 562.869C260.139 563.444 259.351 564.122 258.262 565.667L258.262 565.667C257.073 567.341 256.635 567.956 256.038 568.261C255.69 568.439 255.289 568.511 254.654 568.625C252.791 568.68 251.945 568.635 250.372 567.524C249.91 566.825 249.715 566.53 249.645 566.207C249.594 565.97 249.61 565.719 249.637 565.284C250.566 562.397 253.328 560.158 255.746 558.197C256.134 557.882 256.514 557.574 256.876 557.272C259.912 554.725 262.807 551.851 263.647 547.8C263.686 547.149 263.704 546.856 263.7 546.563C263.697 546.324 263.679 546.084 263.647 545.648C261.762 545.821 260.715 546.607 259.248 547.709L259.247 547.71C257.197 549.197 255.426 549.213 252.984 549.092L252.131 548.661C251.985 547.053 251.926 546.4 252.133 545.847C252.275 545.468 252.541 545.137 252.989 544.578L254.13 543.603C257.661 540.255 258.816 536.018 260.045 531.505L260.048 531.494C260.175 531.026 260.303 530.556 260.435 530.083C260.782 528.863 261.185 527.665 261.594 526.464C261.891 525.565 262.172 524.663 262.447 523.757L262.726 522.84C262.908 522.241 263.089 521.642 263.268 521.041C264.535 516.876 264.91 515.644 265.707 515.236C266.042 515.064 266.451 515.037 267.032 515C267.708 515.042 268.034 515.062 268.309 515.191C268.567 515.311 268.78 515.526 269.192 515.942C269.294 516.376 269.35 516.614 269.396 516.855C269.452 517.149 269.495 517.445 269.588 518.104L269.588 518.104L269.786 519.429L269.991 520.839C271.388 529.722 274.542 537.052 280.211 544.028C281.284 545.379 281.931 546.209 282.254 547.935L282.254 547.935L282.253 547.937L282.253 547.938L282.253 547.94C282.112 548.549 282.046 548.836 281.92 549.095C281.808 549.325 281.649 549.533 281.347 549.926C279.739 550.616 278.472 550.559 276.869 549.953C275.745 549.129 274.71 548.235 273.66 547.318C272.191 546.193 270.997 545.918 269.192 545.648C270.162 548.465 271.828 550.48 273.691 552.734L273.883 552.967C274.444 553.683 275.004 554.401 275.563 555.119C277.09 557.053 278.712 558.885 280.373 560.703C281.42 561.906 281.626 562.594 281.641 564.16L281.659 565.075L281.659 565.076C281.618 565.407 281.595 565.602 281.522 565.777C281.417 566.027 281.21 566.236 280.707 566.743C278.055 567.12 275.807 566.775 273.457 565.452C273.024 565.073 272.597 564.688 272.177 564.295C270.633 563.093 269.815 563.107 267.912 563.299C268.034 567.186 269.266 569.414 271.991 572.143C273.485 573.528 275.017 574.862 276.561 576.19C277.386 576.904 278.198 577.629 279.001 578.367L279.779 579.07C281.222 580.53 281.731 581.556 281.8 583.641C281.773 584.834 281.717 585.465 281.027 586.44C279.783 587.337 278.697 587.31 277.203 587.272L277.195 587.272C275.102 586.75 273.681 585.202 272.254 583.649C272.087 583.466 271.919 583.284 271.751 583.103C271.003 582.294 270.631 581.893 270.201 581.569C269.777 581.249 269.295 581.005 268.339 580.52C269.427 585.901 272.742 589.072 276.826 592.414C279.612 594.712 282.543 597.441 283 601.212C282.817 602.658 282.417 603.465 281.561 604.629C280.111 605.361 278.836 605.471 277.295 605.06C276.124 604.174 275.119 603.212 274.093 602.159C272.959 601.12 271.864 600.523 270.471 599.894C270.548 600.469 270.64 601.043 270.738 601.616L270.888 602.584C271.919 605.381 274.031 607.512 276.227 609.483L306.738 619.698C306.685 619.177 306.743 618.638 306.852 617.937C308.186 615.826 309.948 614.619 311.957 613.243L312.241 613.048C314.91 611.173 317.011 608.551 317.743 605.297C317.843 604.491 317.897 603.68 317.941 602.869C316.139 603.444 315.351 604.122 314.262 605.667L314.262 605.667L314.262 605.668C313.073 607.341 312.635 607.956 312.038 608.261C311.69 608.439 311.289 608.511 310.654 608.625C308.791 608.68 307.945 608.635 306.372 607.524C305.91 606.825 305.715 606.53 305.645 606.207C305.594 605.97 305.61 605.719 305.637 605.284C306.566 602.397 309.328 600.158 311.746 598.197L311.746 598.197C312.135 597.882 312.514 597.574 312.876 597.272C315.912 594.725 318.807 591.851 319.647 587.8C319.686 587.149 319.704 586.856 319.7 586.563C319.697 586.324 319.679 586.084 319.647 585.648C317.762 585.821 316.715 586.607 315.248 587.709L315.247 587.71C313.197 589.197 311.426 589.213 308.984 589.092L308.131 588.661C307.985 587.053 307.926 586.4 308.133 585.847C308.275 585.468 308.541 585.137 308.989 584.578L310.13 583.603C313.661 580.255 314.816 576.018 316.045 571.505C316.107 571.277 316.169 571.048 316.232 570.819L316.298 570.578C316.344 570.413 316.389 570.248 316.435 570.083C316.782 568.863 317.185 567.665 317.594 566.464C317.891 565.565 318.172 564.663 318.447 563.757L318.726 562.84C318.908 562.241 319.089 561.642 319.268 561.041C320.535 556.876 320.91 555.644 321.707 555.236C322.042 555.064 322.451 555.037 323.032 555C323.708 555.042 324.034 555.062 324.309 555.191C324.567 555.311 324.78 555.526 325.192 555.942C325.294 556.376 325.35 556.614 325.396 556.855C325.452 557.149 325.495 557.445 325.588 558.104L325.588 558.104L325.786 559.429L325.991 560.839C327.388 569.722 330.542 577.052 336.211 584.028C337.284 585.379 337.931 586.209 338.254 587.935L338.254 587.935C338.113 588.547 338.046 588.835 337.92 589.095C337.808 589.325 337.649 589.533 337.347 589.926C335.739 590.616 334.472 590.559 332.869 589.953C331.745 589.129 330.71 588.235 329.66 587.318C328.191 586.193 326.997 585.918 325.192 585.648C326.162 588.465 327.828 590.48 329.691 592.734L329.883 592.967C330.444 593.683 331.004 594.401 331.563 595.119C333.09 597.053 334.712 598.885 336.373 600.703C337.42 601.906 337.626 602.594 337.641 604.16L337.659 605.075L337.659 605.076C337.618 605.407 337.595 605.602 337.522 605.777C337.417 606.027 337.21 606.236 336.707 606.743C334.055 607.12 331.807 606.775 329.457 605.452C329.024 605.073 328.597 604.688 328.177 604.295C326.633 603.093 325.815 603.107 323.912 603.299C324.034 607.186 325.266 609.414 327.991 612.143C329.485 613.528 331.017 614.862 332.561 616.19C333.386 616.904 334.198 617.629 335.001 618.367L335.779 619.07C337.222 620.53 337.731 621.556 337.8 623.641C337.773 624.834 337.717 625.465 337.027 626.44C335.783 627.337 334.697 627.31 333.203 627.272L333.195 627.272C331.102 626.75 329.681 625.202 328.254 623.649L328.25 623.644L328.248 623.642L328.246 623.64C328.081 623.461 327.917 623.281 327.751 623.103C327.003 622.294 326.631 621.893 326.201 621.569C325.777 621.249 325.295 621.005 324.339 620.52C324.808 622.84 325.692 624.75 326.873 626.439L368.72 640.45L369.075 639.448C369.488 638.302 369.94 637.191 370.409 636.073C371.083 634.397 371.492 632.878 371.661 631.036C369.729 632.084 368.61 633.571 367.288 635.404C366.274 636.599 365.411 637.143 363.951 637.379C361.543 637.393 359.788 636.904 357.586 635.805C357.456 635.659 357.365 635.557 357.297 635.442C357.145 635.182 357.111 634.853 357 633.779L357 633.778C357.211 631.42 358.387 630.376 359.891 629.043C360.114 628.845 360.344 628.641 360.579 628.426L361.257 627.822C367.215 622.466 371.951 614.871 372.941 606.238C371.015 607.183 369.585 608.347 368.043 609.908C366.756 611.146 365.618 611.141 363.946 611.107L363.945 611.107L363.945 611.107C363.578 611.062 363.376 611.037 363.187 610.974C362.957 610.898 362.746 610.765 362.278 610.47C361.621 609.093 361.635 608.257 361.852 606.715C363.186 604.377 364.948 603.04 366.956 601.516L366.956 601.516L366.957 601.516L367.241 601.299C369.91 599.223 372.011 596.318 372.743 592.714C372.843 591.821 372.897 590.922 372.941 590.024C371.139 590.661 370.351 591.412 369.262 593.124C368.049 595.013 367.618 595.686 367.003 596.017C366.663 596.199 366.268 596.278 365.654 596.4C363.791 596.461 362.945 596.411 361.372 595.18C360.915 594.413 360.719 594.085 360.647 593.731C360.593 593.466 360.609 593.187 360.637 592.699C361.566 589.501 364.328 587.021 366.746 584.849C367.134 584.5 367.514 584.159 367.876 583.824C370.912 581.003 373.807 577.82 374.647 573.333C374.686 572.612 374.704 572.287 374.7 571.962C374.697 571.697 374.679 571.431 374.647 570.948C372.762 571.14 371.715 572.011 370.248 573.231L370.247 573.232C368.197 574.88 366.426 574.898 363.984 574.763L363.131 574.287C362.983 572.477 362.924 571.759 363.144 571.139C363.288 570.732 363.552 570.368 363.989 569.764L365.13 568.683C368.661 564.974 369.816 560.281 371.045 555.282L371.048 555.27L371.06 555.221L371.061 555.215C371.184 554.715 371.308 554.213 371.435 553.708C371.782 552.356 372.185 551.028 372.594 549.699C372.891 548.702 373.172 547.704 373.447 546.7L373.726 545.685C373.908 545.021 374.089 544.357 374.268 543.692L374.268 543.692C375.559 538.991 375.924 537.663 376.752 537.236C377.079 537.068 377.477 537.04 378.032 537C378.692 537.045 379.019 537.068 379.29 537.201C379.556 537.333 379.769 537.571 380.192 538.043C380.293 538.523 380.349 538.787 380.396 539.053C380.452 539.377 380.494 539.703 380.586 540.424L380.587 540.427L380.588 540.436L380.588 540.439L380.786 541.906L380.991 543.468C382.388 553.308 385.542 561.427 391.211 569.154C392.284 570.65 392.931 571.57 393.254 573.482C393.111 574.17 393.044 574.488 392.915 574.779C392.803 575.029 392.644 575.259 392.347 575.687C390.739 576.452 389.472 576.388 387.869 575.717C386.745 574.804 385.71 573.814 384.66 572.798C383.191 571.552 381.997 571.247 380.192 570.948C381.162 574.068 382.828 576.301 384.691 578.798L384.883 579.055C385.444 579.849 386.004 580.644 386.563 581.44C388.09 583.582 389.712 585.611 391.373 587.624C392.42 588.957 392.626 589.719 392.641 591.454L392.659 592.468C392.618 592.843 392.594 593.061 392.516 593.258C392.41 593.53 392.202 593.763 391.707 594.316C389.055 594.733 386.807 594.351 384.457 592.885C384.024 592.466 383.597 592.039 383.177 591.603C381.633 590.272 380.815 590.288 378.912 590.501C379.034 594.806 380.266 597.274 382.991 600.297C384.485 601.831 386.017 603.308 387.561 604.779C388.386 605.571 389.198 606.373 390.001 607.192L390.779 607.97C392.222 609.587 392.731 610.724 392.8 613.034C392.773 614.355 392.717 615.054 392.027 616.133C390.783 617.127 389.697 617.097 388.203 617.056L388.195 617.055C386.102 616.477 384.681 614.762 383.254 613.042L383.251 613.038C383.085 612.837 382.918 612.637 382.751 612.437L382.751 612.437C381.99 611.526 381.619 611.081 381.179 610.719C380.76 610.374 380.279 610.104 379.339 609.576C380.427 615.536 383.742 619.049 387.826 622.751C390.612 625.296 393.543 628.319 394 632.496C393.817 634.098 393.417 634.993 392.561 636.282C391.111 637.092 389.836 637.214 388.295 636.759C387.124 635.777 386.119 634.712 385.093 633.545C383.959 632.394 382.864 631.733 381.471 631.036C381.548 631.674 381.64 632.309 381.738 632.943L381.888 634.016C383.093 637.639 385.778 640.254 388.346 642.756L388.542 642.946L388.725 643.124C388.855 643.251 388.984 643.378 389.113 643.504L389.257 643.646C389.841 645.092 390.351 646.468 390.718 647.816L417.651 656.833C418.859 655.365 420.327 654.36 421.957 653.243L422.241 653.048C424.91 651.173 427.011 648.551 427.743 645.297C427.843 644.491 427.897 643.68 427.941 642.869C426.139 643.444 425.351 644.122 424.262 645.667L424.262 645.667L424.262 645.668C423.073 647.341 422.635 647.956 422.038 648.261C421.69 648.439 421.289 648.511 420.654 648.625C418.791 648.68 417.945 648.635 416.372 647.524C415.91 646.825 415.715 646.53 415.645 646.207C415.594 645.97 415.61 645.719 415.637 645.284C416.566 642.397 419.328 640.158 421.746 638.197L421.746 638.197L421.746 638.197L421.746 638.197L421.747 638.196L421.747 638.196C422.135 637.881 422.515 637.574 422.876 637.272C425.912 634.725 428.807 631.851 429.647 627.8C429.686 627.149 429.704 626.856 429.7 626.563C429.697 626.324 429.679 626.084 429.647 625.648C427.762 625.821 426.715 626.607 425.248 627.709L425.247 627.71C423.197 629.197 421.426 629.213 418.984 629.092L418.131 628.661C417.985 627.053 417.926 626.4 418.133 625.847C418.275 625.468 418.541 625.137 418.989 624.578L420.13 623.603C423.661 620.255 424.816 616.018 426.045 611.505L426.048 611.495L426.141 611.154L426.219 610.868C426.29 610.607 426.362 610.346 426.435 610.083C426.782 608.863 427.185 607.665 427.594 606.464C427.891 605.565 428.172 604.663 428.447 603.757L428.726 602.84C428.908 602.241 429.089 601.642 429.268 601.042C430.535 596.876 430.91 595.644 431.707 595.236C432.042 595.064 432.451 595.037 433.032 595C433.708 595.042 434.034 595.062 434.309 595.191C434.567 595.311 434.78 595.526 435.192 595.942C435.294 596.376 435.35 596.614 435.396 596.855C435.452 597.149 435.495 597.445 435.588 598.104L435.588 598.104L435.786 599.429L435.991 600.839C437.388 609.722 440.542 617.052 446.211 624.028C447.284 625.379 447.931 626.209 448.254 627.935L448.254 627.935C448.113 628.547 448.046 628.835 447.92 629.095C447.808 629.325 447.649 629.533 447.347 629.926C445.739 630.616 444.472 630.559 442.869 629.953C441.745 629.129 440.71 628.235 439.66 627.318C438.191 626.193 436.997 625.918 435.192 625.648C436.162 628.465 437.828 630.48 439.691 632.734L439.883 632.967C440.444 633.683 441.004 634.401 441.563 635.119C443.09 637.053 444.712 638.885 446.373 640.703C447.42 641.906 447.626 642.594 447.641 644.16L447.659 645.075L447.659 645.076C447.618 645.407 447.595 645.602 447.522 645.777C447.417 646.027 447.21 646.236 446.707 646.743C444.055 647.12 441.807 646.775 439.457 645.452C439.024 645.073 438.597 644.688 438.177 644.295C436.633 643.093 435.815 643.107 433.912 643.299C434.034 647.186 435.266 649.414 437.991 652.143C439.485 653.528 441.017 654.862 442.561 656.19C443.386 656.904 444.198 657.629 445.001 658.367L445.779 659.07C447.222 660.53 447.731 661.556 447.8 663.641C447.773 664.834 447.717 665.465 447.027 666.44C446.952 666.494 446.877 666.545 446.803 666.593L466.525 673.196C466.935 672.855 467.345 672.522 467.746 672.197L467.746 672.197C468.135 671.882 468.514 671.574 468.876 671.272C471.912 668.725 474.807 665.851 475.647 661.8C475.686 661.149 475.704 660.856 475.7 660.563C475.697 660.324 475.679 660.084 475.647 659.648C473.762 659.821 472.715 660.607 471.248 661.709L471.247 661.71C469.197 663.197 467.426 663.213 464.984 663.092L464.131 662.661C463.985 661.053 463.926 660.4 464.133 659.847C464.275 659.468 464.541 659.137 464.989 658.578L466.13 657.603C469.661 654.255 470.816 650.018 472.045 645.505L472.048 645.495C472.175 645.027 472.303 644.556 472.435 644.083C472.782 642.863 473.185 641.665 473.594 640.464C473.891 639.565 474.172 638.663 474.447 637.757L474.726 636.84C474.832 636.491 474.938 636.142 475.043 635.792L475.165 635.385L475.268 635.042C476.535 630.876 476.91 629.644 477.707 629.236C478.042 629.064 478.451 629.037 479.032 629C479.708 629.042 480.034 629.062 480.309 629.191C480.567 629.311 480.78 629.526 481.192 629.942C481.294 630.376 481.35 630.614 481.396 630.855C481.452 631.149 481.495 631.445 481.588 632.104L481.588 632.104L481.786 633.429L481.991 634.839C483.388 643.722 486.542 651.052 492.211 658.028C493.284 659.379 493.931 660.209 494.254 661.935L494.254 661.935C494.113 662.547 494.046 662.835 493.92 663.095C493.808 663.325 493.649 663.533 493.347 663.926C491.739 664.616 490.472 664.559 488.869 663.953C487.745 663.129 486.71 662.235 485.66 661.318C484.191 660.193 482.997 659.918 481.192 659.648C482.162 662.465 483.828 664.48 485.691 666.734L485.883 666.967C486.444 667.683 487.004 668.401 487.563 669.119C489.09 671.053 490.712 672.885 492.373 674.703C493.42 675.906 493.626 676.594 493.641 678.16L493.659 679.075L493.659 679.076C493.618 679.407 493.595 679.602 493.522 679.777C493.417 680.027 493.21 680.236 492.707 680.743C491.435 680.924 490.255 680.939 489.113 680.759L530.652 694.666C536.423 689.852 540.973 683.127 541.941 675.506C540.015 676.36 538.585 677.41 537.043 678.819C535.756 679.937 534.618 679.933 532.946 679.902C532.573 679.861 532.371 679.838 532.18 679.78C531.953 679.71 531.741 679.59 531.278 679.327C530.621 678.084 530.635 677.329 530.852 675.937C532.186 673.826 533.948 672.619 535.957 671.243L536.241 671.048C538.91 669.173 541.011 666.551 541.743 663.297C541.843 662.491 541.897 661.68 541.941 660.869C540.139 661.444 539.351 662.122 538.262 663.667C537.073 665.34 536.635 665.956 536.038 666.261C535.69 666.439 535.289 666.511 534.654 666.625C532.791 666.68 531.945 666.635 530.372 665.524C529.91 664.825 529.715 664.53 529.645 664.207C529.594 663.97 529.609 663.719 529.637 663.284C530.566 660.397 533.328 658.158 535.746 656.197L535.747 656.196C536.135 655.881 536.515 655.574 536.876 655.272C539.912 652.725 542.807 649.851 543.647 645.8C543.687 645.149 543.704 644.856 543.7 644.563C543.697 644.324 543.679 644.085 543.647 643.651L543.647 643.648C541.762 643.821 540.715 644.607 539.248 645.709L539.247 645.71C537.198 647.197 535.426 647.213 532.984 647.092L532.131 646.661C531.985 645.053 531.926 644.4 532.133 643.847C532.275 643.468 532.541 643.137 532.989 642.578L534.13 641.603C537.661 638.255 538.816 634.018 540.045 629.505L540.048 629.495C540.175 629.027 540.303 628.556 540.435 628.083C540.782 626.863 541.185 625.665 541.594 624.464C541.891 623.565 542.172 622.663 542.447 621.757L542.727 620.84C542.908 620.241 543.089 619.642 543.268 619.042C544.535 614.876 544.91 613.644 545.707 613.236C546.042 613.064 546.451 613.037 547.032 613C547.708 613.042 548.034 613.062 548.309 613.191C548.567 613.311 548.78 613.526 549.192 613.942L549.193 613.945C549.242 614.158 549.281 614.323 549.313 614.465C549.346 614.612 549.372 614.733 549.396 614.855C549.452 615.149 549.495 615.445 549.588 616.104L549.786 617.429L549.991 618.839C551.388 627.722 554.542 635.052 560.211 642.028C561.284 643.379 561.931 644.209 562.254 645.935L562.253 645.935C562.113 646.547 562.046 646.835 561.92 647.095C561.808 647.325 561.649 647.533 561.348 647.926L561.347 647.926C559.739 648.616 558.472 648.559 556.869 647.953C555.745 647.129 554.71 646.235 553.66 645.318C552.191 644.193 550.997 643.918 549.192 643.648C550.162 646.465 551.828 648.48 553.691 650.734L553.883 650.967C554.444 651.683 555.004 652.401 555.563 653.119C557.09 655.053 558.712 656.885 560.373 658.703C561.42 659.906 561.626 660.594 561.641 662.16L561.659 663.075C561.618 663.407 561.595 663.602 561.522 663.777C561.417 664.027 561.211 664.235 560.709 664.742L560.709 664.742L560.708 664.743L560.708 664.743C558.055 665.12 555.807 664.775 553.457 663.452C553.024 663.073 552.597 662.688 552.177 662.295C550.633 661.093 549.815 661.107 547.912 661.299C548.034 665.186 549.266 667.414 551.991 670.143C553.485 671.528 555.017 672.862 556.561 674.19C557.386 674.904 558.198 675.629 559.001 676.367L559.779 677.07C561.222 678.53 561.731 679.556 561.8 681.641C561.773 682.834 561.717 683.465 561.027 684.44C559.783 685.337 558.697 685.31 557.203 685.272L557.195 685.272C555.102 684.75 553.681 683.202 552.254 681.649L552.252 681.647C552.154 681.539 552.055 681.432 551.956 681.325C551.888 681.251 551.819 681.177 551.751 681.103C551.003 680.294 550.631 679.893 550.201 679.569C549.777 679.249 549.295 679.005 548.339 678.52L548.339 678.52C549.427 683.901 552.742 687.072 556.826 690.414C559.612 692.712 562.542 695.441 563 699.212C562.817 700.658 562.417 701.465 561.561 702.629C560.111 703.361 558.836 703.471 557.295 703.06C556.124 702.174 555.119 701.212 554.093 700.159C552.959 699.12 551.864 698.523 550.471 697.894C550.548 698.469 550.64 699.043 550.738 699.616L550.888 700.584C551.014 700.927 551.157 701.26 551.314 701.584L600.321 717.992C602.952 716.121 605.019 713.519 605.743 710.297C605.843 709.491 605.897 708.68 605.941 707.869C604.139 708.444 603.351 709.122 602.262 710.667C601.073 712.34 600.635 712.956 600.038 713.261C599.69 713.439 599.289 713.511 598.654 713.625C596.791 713.68 595.945 713.635 594.372 712.524C593.91 711.825 593.715 711.53 593.645 711.207C593.594 710.97 593.609 710.719 593.637 710.284C594.566 707.397 597.328 705.158 599.746 703.197L599.749 703.194C600.137 702.88 600.515 702.573 600.876 702.272C603.912 699.725 606.807 696.851 607.647 692.8C607.687 692.149 607.704 691.856 607.7 691.563C607.699 691.431 607.692 691.299 607.682 691.134C607.673 691 607.662 690.845 607.647 690.651L607.647 690.648C605.762 690.821 604.715 691.607 603.248 692.709L603.247 692.71C601.198 694.197 599.426 694.213 596.984 694.092L596.131 693.661C595.985 692.053 595.926 691.4 596.133 690.847C596.275 690.468 596.541 690.137 596.989 689.578L598.13 688.603C601.661 685.255 602.816 681.018 604.045 676.505L604.048 676.495L604.142 676.149C604.196 675.949 604.251 675.749 604.307 675.548C604.349 675.393 604.392 675.238 604.435 675.083C604.782 673.863 605.185 672.665 605.594 671.464C605.891 670.565 606.172 669.663 606.447 668.757L606.727 667.84C606.908 667.241 607.089 666.642 607.268 666.042C608.535 661.876 608.91 660.644 609.707 660.236C610.042 660.064 610.451 660.037 611.032 660C611.708 660.042 612.034 660.062 612.309 660.191C612.567 660.311 612.78 660.526 613.192 660.942C613.294 661.376 613.35 661.614 613.396 661.855C613.452 662.149 613.495 662.445 613.588 663.104L613.786 664.429L613.991 665.839C615.388 674.722 618.542 682.052 624.211 689.028C625.284 690.379 625.931 691.209 626.254 692.935L626.253 692.935C626.113 693.547 626.046 693.835 625.92 694.095C625.808 694.325 625.649 694.533 625.348 694.926L625.347 694.926C623.739 695.616 622.472 695.559 620.869 694.953C619.745 694.129 618.71 693.235 617.66 692.318C616.191 691.193 614.997 690.918 613.192 690.648C614.162 693.465 615.828 695.48 617.691 697.734L617.883 697.967L618.079 698.217L618.347 698.56L618.458 698.702L618.54 698.806L618.871 699.231C619.102 699.527 619.332 699.823 619.563 700.119C621.09 702.053 622.712 703.885 624.373 705.703C625.42 706.906 625.626 707.594 625.641 709.16L625.659 710.075C625.618 710.407 625.595 710.602 625.522 710.777C625.417 711.027 625.21 711.236 624.708 711.743L624.708 711.743C622.055 712.12 619.807 711.775 617.457 710.452C617.024 710.073 616.597 709.688 616.177 709.295C614.633 708.093 613.815 708.107 611.912 708.299C612.034 712.186 613.266 714.414 615.991 717.143C617.485 718.528 619.017 719.862 620.561 721.19C621.386 721.904 622.198 722.629 623.001 723.367L623.779 724.07C624.593 724.894 625.11 725.579 625.419 726.395L639.033 730.953C638.825 730.832 638.607 730.69 638.372 730.524C637.91 729.825 637.715 729.53 637.645 729.207C637.594 728.97 637.609 728.719 637.637 728.284C638.566 725.397 641.328 723.158 643.746 721.197C644.134 720.882 644.514 720.574 644.876 720.272C647.912 717.725 650.807 714.851 651.647 710.8C651.687 710.149 651.704 709.856 651.7 709.563C651.697 709.324 651.679 709.084 651.647 708.648C649.762 708.821 648.715 709.607 647.248 710.709L647.247 710.71C645.198 712.197 643.426 712.213 640.984 712.092L640.131 711.661C639.985 710.053 639.926 709.4 640.133 708.847C640.275 708.468 640.541 708.137 640.989 707.578L642.13 706.603C645.661 703.255 646.816 699.018 648.045 694.505L648.048 694.495C648.175 694.027 648.303 693.556 648.435 693.083C648.782 691.863 649.185 690.665 649.594 689.464C649.891 688.565 650.172 687.663 650.447 686.757L650.727 685.84C650.908 685.241 651.089 684.642 651.268 684.042C652.535 679.876 652.91 678.644 653.707 678.236C654.042 678.064 654.451 678.037 655.032 678C655.708 678.042 656.034 678.062 656.309 678.191C656.567 678.311 656.78 678.526 657.192 678.942C657.294 679.376 657.35 679.614 657.396 679.855C657.452 680.149 657.495 680.445 657.588 681.104L657.786 682.429L657.991 683.839C659.388 692.722 662.542 700.052 668.211 707.028C669.284 708.379 669.931 709.209 670.254 710.935L670.253 710.935C670.113 711.547 670.046 711.835 669.92 712.095C669.808 712.325 669.649 712.533 669.347 712.926C667.739 713.616 666.472 713.559 664.869 712.953C663.745 712.129 662.71 711.235 661.66 710.318C660.191 709.193 658.997 708.918 657.192 708.648C658.162 711.465 659.828 713.48 661.691 715.734L661.883 715.967C662.444 716.683 663.004 717.401 663.563 718.119C665.09 720.053 666.712 721.885 668.373 723.703C669.42 724.906 669.626 725.594 669.641 727.16L669.659 728.075C669.618 728.407 669.595 728.602 669.522 728.777C669.417 729.027 669.21 729.236 668.708 729.743L668.708 729.743C666.055 730.12 663.807 729.775 661.457 728.452C661.024 728.073 660.597 727.688 660.177 727.295C658.633 726.093 657.815 726.107 655.912 726.299C656.034 730.186 657.266 732.414 659.991 735.143C661.485 736.528 663.017 737.862 664.561 739.19C664.754 739.357 664.947 739.525 665.138 739.694L702.718 752.276C702.719 751.878 702.772 751.451 702.852 750.937C704.186 748.826 705.948 747.619 707.957 746.243L708.241 746.048C710.91 744.173 713.011 741.551 713.743 738.297C713.843 737.491 713.897 736.68 713.941 735.869C712.139 736.444 711.351 737.122 710.262 738.667C709.073 740.34 708.635 740.956 708.038 741.261C707.69 741.439 707.289 741.511 706.654 741.625C704.791 741.68 703.945 741.635 702.372 740.524C701.91 739.825 701.715 739.53 701.645 739.207C701.594 738.97 701.609 738.719 701.637 738.284C702.566 735.397 705.328 733.158 707.746 731.197C708.134 730.882 708.514 730.574 708.876 730.272C711.912 727.725 714.807 724.851 715.647 720.8C715.687 720.149 715.704 719.856 715.7 719.563C715.697 719.324 715.679 719.085 715.647 718.651L715.647 718.648C713.762 718.821 712.715 719.607 711.248 720.709L711.247 720.71C709.198 722.197 707.426 722.213 704.984 722.092L704.131 721.661C703.985 720.053 703.926 719.4 704.133 718.847C704.275 718.468 704.541 718.137 704.989 717.578L706.13 716.603C709.661 713.255 710.816 709.018 712.045 704.505C712.111 704.264 712.176 704.023 712.243 703.781C712.306 703.549 712.37 703.316 712.435 703.083C712.782 701.863 713.185 700.665 713.594 699.464C713.891 698.565 714.172 697.663 714.447 696.757L714.727 695.84C714.908 695.241 715.089 694.642 715.268 694.042C716.535 689.876 716.91 688.644 717.707 688.236C718.042 688.064 718.451 688.037 719.032 688C719.708 688.042 720.034 688.062 720.309 688.191C720.567 688.311 720.78 688.526 721.192 688.942C721.242 689.157 721.281 689.324 721.314 689.467C721.347 689.613 721.373 689.734 721.396 689.855C721.452 690.149 721.495 690.445 721.588 691.104L721.786 692.429L721.991 693.839C723.388 702.722 726.542 710.052 732.211 717.028C733.284 718.379 733.931 719.209 734.254 720.935L734.253 720.935C734.113 721.547 734.046 721.835 733.92 722.095C733.808 722.325 733.649 722.533 733.348 722.926L733.347 722.926C731.739 723.616 730.472 723.559 728.869 722.953C727.745 722.129 726.71 721.235 725.66 720.318C724.191 719.193 722.997 718.918 721.192 718.648C722.162 721.465 723.828 723.48 725.691 725.734L725.883 725.967C726.444 726.683 727.004 727.401 727.563 728.119C729.09 730.053 730.712 731.885 732.373 733.703C733.42 734.906 733.626 735.594 733.641 737.16L733.659 738.075C733.618 738.407 733.595 738.602 733.522 738.777C733.417 739.027 733.21 739.236 732.708 739.743L732.708 739.743C730.055 740.12 727.807 739.775 725.457 738.452C725.024 738.073 724.597 737.688 724.177 737.295C722.633 736.093 721.815 736.107 719.912 736.299C720.034 740.186 721.266 742.414 723.991 745.143C725.485 746.528 727.017 747.862 728.561 749.19C729.386 749.904 730.198 750.629 731.001 751.367L731.779 752.07C733.222 753.53 733.731 754.556 733.8 756.641C733.773 757.834 733.717 758.465 733.027 759.44C731.783 760.337 730.697 760.31 729.203 760.272L729.195 760.272C727.102 759.75 725.681 758.202 724.254 756.649C724.087 756.466 723.919 756.284 723.751 756.103C723.003 755.294 722.631 754.893 722.201 754.569C721.777 754.249 721.295 754.005 720.339 753.52C720.759 755.598 721.512 757.347 722.512 758.903L827.474 794.045C828.243 793.418 829.074 792.848 829.952 792.246L829.953 792.246L829.953 792.245L829.954 792.245L829.955 792.245L829.955 792.244L829.956 792.244L829.956 792.244L829.957 792.243L830.241 792.048C832.91 790.173 835.011 787.551 835.743 784.297C835.843 783.491 835.897 782.68 835.941 781.869C834.139 782.444 833.351 783.122 832.262 784.667C831.073 786.34 830.635 786.956 830.038 787.261C829.69 787.439 829.289 787.511 828.654 787.625C826.791 787.68 825.945 787.635 824.372 786.524C823.91 785.825 823.715 785.53 823.645 785.207C823.594 784.97 823.609 784.719 823.637 784.284C824.566 781.397 827.328 779.158 829.746 777.197C830.134 776.882 830.514 776.574 830.876 776.272C833.912 773.725 836.807 770.851 837.647 766.8C837.687 766.149 837.704 765.856 837.7 765.563C837.697 765.324 837.679 765.084 837.647 764.648C835.762 764.821 834.715 765.607 833.248 766.709L833.247 766.71C831.198 768.197 829.426 768.213 826.984 768.092L826.131 767.661C825.985 766.053 825.926 765.4 826.133 764.847C826.275 764.468 826.541 764.137 826.989 763.578L828.13 762.603C831.661 759.255 832.816 755.018 834.045 750.505C834.173 750.034 834.302 749.56 834.435 749.083C834.782 747.863 835.185 746.665 835.594 745.464C835.891 744.565 836.172 743.663 836.447 742.757L836.727 741.84C836.828 741.506 836.929 741.171 837.03 740.837C837.109 740.572 837.189 740.307 837.268 740.042C838.535 735.876 838.91 734.644 839.707 734.236C840.042 734.064 840.451 734.037 841.032 734C841.708 734.042 842.034 734.062 842.309 734.191C842.567 734.311 842.78 734.526 843.192 734.942C843.294 735.376 843.35 735.615 843.396 735.855C843.453 736.149 843.495 736.445 843.588 737.104L843.786 738.429L843.991 739.839C845.388 748.722 848.542 756.052 854.211 763.028C855.284 764.379 855.931 765.209 856.254 766.935L856.253 766.935C856.113 767.547 856.046 767.835 855.92 768.095C855.808 768.325 855.649 768.533 855.348 768.926L855.347 768.926C853.739 769.616 852.472 769.559 850.869 768.953C849.745 768.129 848.71 767.235 847.66 766.318C846.191 765.193 844.997 764.918 843.192 764.648C844.162 767.465 845.828 769.48 847.691 771.734L847.883 771.967C848.444 772.683 849.004 773.401 849.563 774.119C851.09 776.053 852.712 777.885 854.373 779.703C855.42 780.906 855.626 781.594 855.641 783.16L855.659 784.075C855.618 784.407 855.595 784.602 855.522 784.777C855.417 785.027 855.21 785.236 854.708 785.743L854.708 785.743C852.055 786.12 849.807 785.775 847.457 784.452C847.024 784.073 846.597 783.688 846.177 783.295C844.633 782.093 843.815 782.107 841.912 782.299C842.034 786.186 843.266 788.414 845.991 791.143C847.485 792.528 849.017 793.862 850.561 795.19C851.386 795.904 852.198 796.629 853.001 797.367L853.779 798.07C855.222 799.53 855.731 800.556 855.8 802.641C855.793 802.969 855.783 803.253 855.759 803.515L873.6 809.488L873.822 809.335L873.957 809.243L874.241 809.048C876.91 807.173 879.011 804.551 879.743 801.297C879.843 800.491 879.897 799.68 879.941 798.869C878.139 799.444 877.351 800.122 876.262 801.667C875.073 803.34 874.635 803.956 874.038 804.261C873.69 804.439 873.289 804.511 872.654 804.625C870.791 804.68 869.945 804.635 868.372 803.524C867.91 802.825 867.715 802.53 867.645 802.207C867.594 801.97 867.609 801.719 867.637 801.284C868.566 798.397 871.328 796.158 873.746 794.197C874.134 793.882 874.514 793.574 874.876 793.272C877.912 790.725 880.807 787.851 881.647 783.8C881.655 783.666 881.662 783.547 881.669 783.441C881.673 783.369 881.677 783.303 881.68 783.241C881.684 783.173 881.687 783.11 881.69 783.052L881.692 783.006L881.696 782.915C881.698 782.84 881.7 782.772 881.701 782.706C881.701 782.658 881.701 782.611 881.7 782.563C881.699 782.478 881.696 782.394 881.691 782.3C881.683 782.13 881.668 781.932 881.647 781.654L881.647 781.648C879.762 781.821 878.715 782.607 877.248 783.709L877.247 783.71C875.198 785.197 873.426 785.213 870.984 785.092L870.131 784.661C869.985 783.053 869.926 782.4 870.133 781.847C870.275 781.468 870.541 781.137 870.989 780.578L872.13 779.603C875.661 776.255 876.816 772.018 878.045 767.505C878.173 767.034 878.302 766.56 878.435 766.083C878.782 764.863 879.185 763.665 879.594 762.464C879.891 761.565 880.172 760.663 880.447 759.757L880.727 758.84C880.908 758.241 881.089 757.642 881.268 757.042C882.535 752.876 882.91 751.644 883.707 751.236C884.042 751.064 884.451 751.037 885.032 751C885.708 751.042 886.034 751.062 886.309 751.191C886.567 751.311 886.78 751.526 887.192 751.942C887.294 752.376 887.35 752.615 887.396 752.855C887.453 753.149 887.495 753.445 887.588 754.104L887.786 755.429L887.991 756.839C889.388 765.722 892.542 773.052 898.211 780.028C899.284 781.379 899.931 782.209 900.254 783.935C900.113 784.547 900.046 784.835 899.92 785.095C899.808 785.325 899.649 785.533 899.348 785.926L899.347 785.926C897.739 786.616 896.472 786.559 894.869 785.953C893.745 785.129 892.71 784.235 891.66 783.318C890.191 782.193 888.997 781.918 887.192 781.648C888.162 784.465 889.828 786.48 891.691 788.734L891.883 788.967C892.444 789.683 893.004 790.401 893.563 791.119C895.09 793.053 896.712 794.885 898.373 796.703C899.42 797.906 899.626 798.594 899.641 800.16L899.659 801.075C899.618 801.407 899.595 801.602 899.522 801.777C899.417 802.027 899.21 802.236 898.708 802.743L898.708 802.743C896.055 803.12 893.807 802.775 891.457 801.452C891.024 801.073 890.597 800.688 890.177 800.295C888.633 799.093 887.815 799.107 885.912 799.299C886.034 803.186 887.266 805.414 889.991 808.143C891.485 809.528 893.017 810.862 894.561 812.19C895.386 812.904 896.198 813.629 897.001 814.367L897.779 815.07C898.849 816.152 899.406 816.996 899.65 818.21L950.394 835.199H1059.68L1067.53 832.986C1072.39 828.341 1076.08 822.277 1076.94 815.506C1075.02 816.36 1073.58 817.41 1072.04 818.819C1070.76 819.937 1069.62 819.933 1067.95 819.902C1067.57 819.861 1067.37 819.838 1067.18 819.78C1066.95 819.711 1066.74 819.59 1066.28 819.328L1066.28 819.327C1065.62 818.084 1065.64 817.329 1065.85 815.937C1067.19 813.826 1068.95 812.619 1070.96 811.243L1071.24 811.048C1073.91 809.173 1076.01 806.551 1076.74 803.297C1076.84 802.491 1076.9 801.68 1076.94 800.869C1075.14 801.444 1074.35 802.122 1073.26 803.667C1072.07 805.341 1071.63 805.956 1071.04 806.261C1070.69 806.439 1070.29 806.511 1069.65 806.625C1067.79 806.68 1066.94 806.635 1065.37 805.524C1064.91 804.825 1064.72 804.53 1064.65 804.207C1064.59 803.97 1064.61 803.719 1064.64 803.284C1065.57 800.397 1068.33 798.158 1070.75 796.197C1071.13 795.882 1071.51 795.574 1071.88 795.272C1074.91 792.725 1077.81 789.851 1078.65 785.8V785.799C1078.69 785.149 1078.7 784.856 1078.7 784.563C1078.7 784.324 1078.68 784.085 1078.65 783.651L1078.65 783.648C1076.76 783.821 1075.72 784.607 1074.25 785.709L1074.25 785.71C1072.2 787.197 1070.43 787.213 1067.98 787.092L1067.13 786.661C1066.99 785.053 1066.93 784.4 1067.13 783.847C1067.28 783.468 1067.54 783.137 1067.99 782.578L1069.13 781.603C1072.66 778.255 1073.82 774.018 1075.04 769.505L1075.06 769.464C1075.18 769.006 1075.31 768.546 1075.44 768.083C1075.78 766.863 1076.18 765.665 1076.59 764.464C1076.89 763.565 1077.17 762.663 1077.45 761.757L1077.73 760.84C1077.82 760.517 1077.92 760.193 1078.02 759.87C1078.1 759.594 1078.19 759.318 1078.27 759.042L1078.27 759.04C1079.53 754.876 1079.91 753.644 1080.71 753.236C1081.04 753.064 1081.45 753.037 1082.03 753C1082.71 753.042 1083.03 753.062 1083.31 753.191C1083.57 753.311 1083.78 753.526 1084.19 753.942C1084.29 754.376 1084.35 754.614 1084.4 754.855C1084.45 755.148 1084.49 755.444 1084.59 756.1L1084.59 756.104L1084.79 757.429L1084.99 758.839C1086.39 767.722 1089.54 775.052 1095.21 782.028C1096.28 783.379 1096.93 784.209 1097.25 785.935L1097.25 785.936C1097.11 786.547 1097.05 786.836 1096.92 787.095C1096.81 787.325 1096.65 787.533 1096.35 787.926C1094.74 788.616 1093.47 788.559 1091.87 787.953C1090.75 787.129 1089.71 786.235 1088.66 785.318C1087.19 784.193 1086 783.918 1084.19 783.648C1085.16 786.464 1086.83 788.48 1088.69 790.734L1088.69 790.735L1088.88 790.967C1089.44 791.683 1090 792.401 1090.56 793.119C1092.09 795.053 1093.71 796.885 1095.37 798.703C1096.42 799.906 1096.63 800.594 1096.64 802.16L1096.66 803.075C1096.62 803.407 1096.59 803.602 1096.52 803.777C1096.42 804.027 1096.21 804.236 1095.71 804.743C1093.05 805.12 1090.81 804.775 1088.46 803.452C1088.02 803.073 1087.6 802.688 1087.18 802.295C1085.63 801.093 1084.82 801.107 1082.91 801.299C1083.03 805.186 1084.27 807.414 1086.99 810.143C1088.48 811.528 1090.02 812.862 1091.56 814.19C1092.39 814.904 1093.2 815.629 1094 816.367L1094.78 817.07C1096.22 818.53 1096.73 819.556 1096.8 821.641C1096.77 822.834 1096.72 823.465 1096.03 824.44C1094.78 825.337 1093.7 825.31 1092.2 825.272L1092.2 825.272C1090.1 824.75 1088.68 823.202 1087.25 821.649C1087.09 821.466 1086.92 821.284 1086.75 821.103C1086 820.294 1085.63 819.893 1085.2 819.569C1084.78 819.249 1084.3 819.005 1083.34 818.52C1084.08 822.173 1085.84 824.808 1088.18 827.169L1126.21 816.453C1127.48 815.678 1128.76 814.976 1129.68 814.504L1130.07 813.488C1130.49 812.454 1130.94 811.451 1131.41 810.441C1132.08 808.928 1132.49 807.557 1132.66 805.894C1130.73 806.839 1129.61 808.182 1128.29 809.837C1127.27 810.916 1126.41 811.407 1124.95 811.62C1122.54 811.633 1120.79 811.191 1118.59 810.199L1118.59 810.198C1118.45 810.062 1118.36 809.968 1118.29 809.86C1118.14 809.627 1118.11 809.324 1118 808.369C1118.21 806.24 1119.39 805.298 1120.89 804.094C1121.11 803.916 1121.34 803.732 1121.58 803.537L1122.26 802.992C1128.21 798.157 1132.95 791.3 1133.94 783.506C1132.02 784.36 1130.58 785.41 1129.04 786.819C1127.76 787.937 1126.62 787.933 1124.95 787.902C1124.57 787.861 1124.37 787.838 1124.18 787.78C1123.95 787.711 1123.74 787.59 1123.28 787.328L1123.28 787.327C1122.62 786.084 1122.64 785.329 1122.85 783.937C1124.19 781.826 1125.95 780.619 1127.96 779.243L1128.24 779.048C1130.91 777.173 1133.01 774.551 1133.74 771.297C1133.84 770.491 1133.9 769.68 1133.94 768.869C1132.14 769.444 1131.35 770.122 1130.26 771.667C1129.07 773.341 1128.63 773.956 1128.04 774.261C1127.69 774.439 1127.29 774.511 1126.65 774.625C1124.79 774.68 1123.94 774.635 1122.37 773.524C1121.91 772.825 1121.72 772.53 1121.65 772.207C1121.59 771.97 1121.61 771.719 1121.64 771.284C1122.57 768.397 1125.33 766.158 1127.75 764.197L1127.76 764.189L1127.77 764.174C1128.03 763.968 1128.28 763.766 1128.52 763.566C1128.64 763.467 1128.76 763.369 1128.88 763.272C1131.91 760.725 1134.81 757.851 1135.65 753.8V753.799C1135.69 753.149 1135.7 752.856 1135.7 752.563C1135.7 752.324 1135.68 752.085 1135.65 751.651L1135.65 751.648C1133.76 751.821 1132.72 752.607 1131.25 753.709L1131.25 753.71C1129.2 755.197 1127.43 755.213 1124.98 755.092L1124.13 754.661C1123.99 753.053 1123.93 752.4 1124.13 751.847C1124.28 751.468 1124.54 751.137 1124.99 750.578L1126.13 749.603C1129.66 746.255 1130.82 742.018 1132.04 737.505C1132.17 737.034 1132.3 736.56 1132.44 736.083C1132.78 734.863 1133.18 733.665 1133.59 732.464C1133.89 731.565 1134.17 730.663 1134.45 729.757L1134.73 728.84C1134.91 728.241 1135.09 727.642 1135.27 727.042L1135.27 727.04C1136.53 722.876 1136.91 721.644 1137.71 721.236C1138.04 721.064 1138.45 721.037 1139.03 721C1139.71 721.042 1140.03 721.062 1140.31 721.191C1140.57 721.311 1140.78 721.526 1141.19 721.942C1141.29 722.376 1141.35 722.614 1141.4 722.855C1141.45 723.148 1141.49 723.443 1141.59 724.097L1141.59 724.1L1141.59 724.104L1141.79 725.429L1141.99 726.839C1143.39 735.722 1146.54 743.052 1152.21 750.028C1153.28 751.379 1153.93 752.209 1154.25 753.935L1154.25 753.936C1154.11 754.547 1154.05 754.836 1153.92 755.095C1153.81 755.325 1153.65 755.533 1153.35 755.926C1151.74 756.616 1150.47 756.559 1148.87 755.953C1147.75 755.129 1146.71 754.235 1145.66 753.318C1144.19 752.193 1143 751.918 1141.19 751.648C1142.16 754.464 1143.83 756.48 1145.69 758.734L1145.69 758.735L1145.88 758.967C1146.44 759.683 1147 760.401 1147.56 761.119C1149.09 763.053 1150.71 764.885 1152.37 766.703C1153.42 767.906 1153.63 768.594 1153.64 770.16L1153.66 771.075C1153.62 771.407 1153.59 771.602 1153.52 771.777C1153.42 772.027 1153.21 772.236 1152.71 772.743C1150.05 773.12 1147.81 772.775 1145.46 771.452C1145.34 771.351 1145.23 771.25 1145.11 771.148L1145.06 771.098C1145.01 771.059 1144.97 771.021 1144.93 770.982L1144.83 770.899C1144.61 770.699 1144.39 770.498 1144.18 770.295C1142.63 769.093 1141.82 769.107 1139.91 769.299C1140.03 773.186 1141.27 775.414 1143.99 778.143C1145.48 779.528 1147.02 780.862 1148.56 782.19C1149.39 782.904 1150.2 783.629 1151 784.367L1151.78 785.07C1153.22 786.53 1153.73 787.556 1153.8 789.641C1153.77 790.834 1153.72 791.465 1153.03 792.44C1151.78 793.337 1150.7 793.31 1149.2 793.272L1149.2 793.272C1147.1 792.75 1145.68 791.202 1144.25 789.649L1144.01 789.382C1143.92 789.289 1143.84 789.196 1143.75 789.103C1143 788.294 1142.63 787.893 1142.2 787.569C1141.78 787.249 1141.3 787.005 1140.34 786.52C1141.43 791.901 1144.74 795.072 1148.83 798.414C1151.61 800.712 1154.54 803.441 1155 807.212C1154.94 807.662 1154.86 808.051 1154.76 808.407L1178.11 801.827C1178.36 801.65 1178.62 801.473 1178.88 801.293L1178.93 801.264L1178.96 801.243L1179.24 801.048C1181.91 799.173 1184.01 796.551 1184.74 793.297C1184.84 792.491 1184.9 791.68 1184.94 790.869C1183.14 791.444 1182.35 792.122 1181.26 793.667C1180.07 795.341 1179.63 795.956 1179.04 796.261C1178.69 796.439 1178.29 796.511 1177.65 796.625C1175.79 796.68 1174.94 796.635 1173.37 795.524C1172.91 794.825 1172.72 794.53 1172.65 794.207C1172.59 793.97 1172.61 793.719 1172.64 793.284C1173.57 790.397 1176.33 788.158 1178.75 786.197C1178.98 786.007 1179.21 785.82 1179.44 785.635L1179.6 785.501L1179.69 785.425C1179.75 785.374 1179.82 785.323 1179.88 785.272C1182.91 782.725 1185.81 779.851 1186.65 775.8L1186.65 775.782L1186.65 775.776C1186.67 775.439 1186.68 775.199 1186.69 775.004C1186.69 774.967 1186.7 774.931 1186.7 774.897C1186.7 774.84 1186.7 774.786 1186.7 774.735C1186.7 774.702 1186.7 774.669 1186.7 774.637C1186.7 774.613 1186.7 774.588 1186.7 774.563C1186.7 774.324 1186.68 774.084 1186.65 773.648C1184.76 773.821 1183.72 774.607 1182.25 775.709L1182.25 775.71C1180.2 777.197 1178.43 777.213 1175.98 777.092L1175.13 776.661C1174.99 775.053 1174.93 774.4 1175.13 773.847C1175.28 773.468 1175.54 773.137 1175.99 772.578L1177.13 771.603C1180.66 768.255 1181.82 764.018 1183.04 759.505L1183.16 759.089L1183.24 758.775C1183.31 758.545 1183.37 758.314 1183.44 758.083C1183.78 756.863 1184.18 755.665 1184.59 754.464C1184.89 753.565 1185.17 752.663 1185.45 751.757L1185.73 750.84C1185.91 750.241 1186.09 749.642 1186.27 749.042L1186.27 749.04C1187.53 744.876 1187.91 743.644 1188.71 743.236C1189.04 743.064 1189.45 743.037 1190.03 743C1190.71 743.042 1191.03 743.062 1191.31 743.191C1191.57 743.311 1191.78 743.526 1192.19 743.942C1192.29 744.376 1192.35 744.614 1192.4 744.855C1192.45 745.149 1192.49 745.445 1192.59 746.104L1192.79 747.429L1192.99 748.839C1194.39 757.722 1197.54 765.052 1203.21 772.028C1204.28 773.379 1204.93 774.209 1205.25 775.935C1205.11 776.547 1205.05 776.835 1204.92 777.095C1204.81 777.325 1204.65 777.533 1204.35 777.926C1202.74 778.616 1201.47 778.559 1199.87 777.953C1198.75 777.129 1197.71 776.235 1196.66 775.318C1195.19 774.193 1194 773.918 1192.19 773.648C1193.16 776.464 1194.83 778.48 1196.69 780.734L1196.69 780.735L1196.88 780.967C1197.44 781.683 1198 782.401 1198.56 783.119C1200.09 785.053 1201.71 786.885 1203.37 788.703C1204.42 789.906 1204.63 790.594 1204.64 792.16L1204.66 793.075C1204.62 793.407 1204.59 793.602 1204.52 793.777C1204.43 793.996 1204.26 794.182 1203.89 794.564L1212.13 792.24H1363.41C1365.16 790.884 1367.32 789.522 1368.68 788.731L1369.07 787.583C1369.49 786.413 1369.94 785.279 1370.41 784.137C1371.08 782.426 1371.49 780.876 1371.66 778.995C1369.73 780.065 1368.61 781.583 1367.29 783.454C1366.27 784.674 1365.41 785.229 1363.95 785.47C1361.54 785.485 1359.79 784.985 1357.59 783.863C1357.46 783.715 1357.37 783.612 1357.3 783.495C1357.15 783.23 1357.11 782.895 1357 781.796V781.794C1357.21 779.387 1358.39 778.322 1359.89 776.96C1360.11 776.759 1360.34 776.551 1360.58 776.331L1361.26 775.714C1367.21 770.247 1371.95 762.493 1372.94 753.68C1371.02 754.645 1369.58 755.833 1368.04 757.427C1366.76 758.69 1365.62 758.686 1363.95 758.651C1363.58 758.605 1363.38 758.58 1363.19 758.516C1362.96 758.438 1362.75 758.302 1362.28 758.002L1362.28 758.001C1361.62 756.595 1361.64 755.741 1361.85 754.167C1363.19 751.78 1364.95 750.415 1366.96 748.859L1367.24 748.639C1369.91 746.519 1372.01 743.554 1372.74 739.874C1372.84 738.963 1372.9 738.045 1372.94 737.128C1371.14 737.779 1370.35 738.545 1369.26 740.293C1368.04 742.23 1367.61 742.914 1367 743.25C1366.66 743.434 1366.26 743.514 1365.65 743.638C1363.79 743.699 1362.94 743.649 1361.37 742.392C1360.92 741.611 1360.72 741.275 1360.65 740.915C1360.59 740.645 1360.61 740.36 1360.64 739.862V739.859C1361.57 736.595 1364.33 734.063 1366.75 731.846L1366.76 731.837C1367.08 731.543 1367.39 731.255 1367.69 730.972C1367.75 730.914 1367.82 730.857 1367.88 730.8C1370.91 727.92 1373.81 724.67 1374.65 720.09V720.088C1374.69 719.353 1374.7 719.022 1374.7 718.691C1374.7 718.425 1374.68 718.159 1374.65 717.683L1374.65 717.679L1374.65 717.659L1374.65 717.656C1372.76 717.851 1371.72 718.74 1370.25 719.986L1370.25 719.987C1368.2 721.669 1366.43 721.687 1363.98 721.55L1363.13 721.063C1362.98 719.21 1362.92 718.479 1363.15 717.845C1363.29 717.432 1363.55 717.061 1363.99 716.448L1363.99 716.447L1363.99 716.446L1365.13 715.343C1368.66 711.557 1369.82 706.766 1371.04 701.663L1371.06 701.619C1371.18 701.101 1371.31 700.579 1371.44 700.056C1371.78 698.676 1372.18 697.321 1372.59 695.964C1372.89 694.946 1373.17 693.927 1373.45 692.902L1373.73 691.866C1373.91 691.188 1374.09 690.51 1374.27 689.832C1375.56 685.015 1375.93 683.667 1376.76 683.236C1377.09 683.069 1377.48 683.04 1378.03 683C1378.69 683.046 1379.02 683.069 1379.29 683.204C1379.55 683.337 1379.77 683.581 1380.19 684.065C1380.29 684.555 1380.35 684.825 1380.4 685.096C1380.45 685.429 1380.49 685.764 1380.59 686.51L1380.79 688.008L1380.99 689.603C1382.39 699.648 1385.54 707.936 1391.21 715.824C1392.28 717.351 1392.93 718.29 1393.25 720.242C1393.11 720.946 1393.04 721.271 1392.91 721.568C1392.8 721.823 1392.64 722.056 1392.35 722.49L1392.35 722.492L1392.35 722.493C1390.74 723.273 1389.47 723.209 1387.87 722.524C1386.75 721.592 1385.71 720.581 1384.66 719.544C1383.19 718.272 1382 717.961 1380.19 717.656C1381.16 720.84 1382.83 723.119 1384.69 725.668L1384.69 725.669L1384.88 725.932C1385.44 726.742 1386 727.553 1386.56 728.366C1388.09 730.552 1389.71 732.624 1391.37 734.679C1392.42 736.039 1392.63 736.818 1392.64 738.589L1392.66 739.623V739.625C1392.62 740.009 1392.59 740.231 1392.52 740.433C1392.41 740.709 1392.2 740.947 1391.71 741.51C1389.05 741.936 1386.81 741.545 1384.46 740.049C1384.02 739.621 1383.6 739.185 1383.18 738.741C1381.63 737.382 1380.82 737.398 1378.91 737.615C1379.03 742.011 1380.27 744.529 1382.99 747.616C1384.48 749.182 1386.02 750.69 1387.56 752.191C1388.39 752.999 1389.2 753.819 1390 754.654L1390.78 755.449C1392.22 757.099 1392.73 758.26 1392.8 760.618C1392.77 761.966 1392.72 762.68 1392.03 763.782C1390.78 764.797 1389.7 764.766 1388.2 764.723L1388.2 764.723C1386.1 764.132 1384.68 762.383 1383.25 760.626L1383.15 760.5L1382.99 760.304L1382.88 760.17L1382.75 760.009L1382.75 760.008C1381.99 759.075 1381.62 758.622 1381.17 758.251C1380.76 757.901 1380.28 757.625 1379.34 757.089L1379.34 757.088C1380.43 763.172 1383.74 766.758 1387.83 770.537C1390.61 773.136 1393.54 776.221 1394 780.486C1393.82 782.12 1393.42 783.034 1392.56 784.35C1391.11 785.177 1389.84 785.301 1388.3 784.837C1387.12 783.835 1386.12 782.748 1385.09 781.557C1383.96 780.381 1382.86 779.707 1381.47 778.995C1381.55 779.646 1381.64 780.295 1381.74 780.942L1381.89 782.038C1383.02 785.506 1385.45 788.069 1387.87 790.481L1464.89 737.791H1492.75C1492.81 737.743 1492.88 737.693 1492.94 737.642C1494.11 736.991 1495.22 736.305 1496.32 735.558C1498.2 733.842 1499.66 732.287 1499.82 729.675L1498.79 729.491C1497.99 729.519 1497.63 729.532 1497.33 729.669C1497.09 729.782 1496.89 729.976 1496.52 730.33L1496.43 730.415C1494.88 731.9 1493.91 732.827 1491.63 732.831C1490.36 732.68 1489.98 732.635 1489.7 732.452C1489.63 732.41 1489.57 732.36 1489.5 732.3C1489.45 732.25 1489.39 732.193 1489.32 732.126C1489.28 731.357 1489.25 730.953 1489.25 730.548C1489.25 730.099 1489.27 729.649 1489.32 728.704L1489.32 728.694C1490.85 725.045 1493.88 722.057 1497.01 719.685L1497.04 719.665C1498.25 718.799 1499.17 718.146 1499.98 716.9C1500.14 716.06 1500.23 715.636 1500.21 715.215C1500.19 714.784 1500.07 714.358 1499.82 713.495L1498.42 713.434C1496.99 713.782 1496.27 713.958 1495.65 714.304C1495.01 714.66 1494.47 715.196 1493.38 716.284C1492.86 716.784 1492.61 717.023 1492.34 717.232C1492.1 717.423 1491.83 717.589 1491.32 717.908C1490.58 717.83 1490.23 717.794 1489.9 717.723C1489.61 717.663 1489.34 717.577 1488.82 717.417C1488.82 717.23 1488.81 717.042 1488.81 716.855C1488.79 715.732 1488.77 714.619 1488.82 713.495C1489.6 709.306 1492.49 706.312 1495.63 703.597C1497.36 702.173 1498.85 700.865 1500.03 698.959C1500.92 697.115 1500.9 696.301 1500.32 694.374C1500.07 694.369 1499.83 694.362 1499.59 694.354C1497.76 694.299 1496.11 694.25 1494.57 695.448C1492.87 696.857 1491.67 697.494 1489.42 697.53L1489.37 697.529C1487.8 697.484 1487.48 697.475 1486.32 696.335L1486.32 696.332C1486.24 695.862 1486.19 695.598 1486.18 695.333C1486.17 694.995 1486.22 694.655 1486.32 693.883C1487.95 690.365 1490.55 687.814 1493.7 685.529L1493.96 685.349L1494.28 685.127C1495.85 684.05 1497.4 682.981 1498.82 681.718C1500.65 679.789 1501.21 678.372 1501.32 675.743C1499.44 675.743 1497.92 675.813 1496.34 676.921L1496.14 677.084L1495.96 677.228C1494.55 678.364 1493.59 679.136 1491.63 679.42C1491 679.301 1490.67 679.239 1490.38 679.095C1490.08 678.942 1489.83 678.697 1489.32 678.194C1489.11 676.7 1489.19 675.958 1489.99 674.655L1490.95 673.536C1491.96 672.346 1493 671.182 1494.08 670.048L1494.87 669.225C1495.41 668.669 1495.94 668.115 1496.48 667.561C1498.55 665.505 1499.8 663.762 1500.82 661.034C1498.79 660.84 1497.92 660.977 1496.13 662.015C1494.14 663.249 1492.65 663.192 1490.32 662.995L1490.32 662.994C1490.04 662.72 1489.86 662.543 1489.73 662.333C1489.5 661.948 1489.45 661.454 1489.32 660.055V660.053C1490.03 658.934 1490.75 658.151 1491.79 657.322C1493.01 656.473 1494.17 655.592 1495.32 654.66C1495.45 654.538 1495.58 654.417 1495.71 654.297C1498.1 652.037 1500 650.254 1500.32 646.816C1499.19 646.708 1498.74 646.665 1498.35 646.803C1498.09 646.894 1497.86 647.066 1497.48 647.352C1495.87 648.715 1495.08 649.243 1492.88 649.451C1491.83 649.327 1491.49 649.287 1491.22 649.123C1491.09 649.044 1490.98 648.937 1490.82 648.777V648.775C1490.78 648.071 1490.75 647.711 1490.75 647.352C1490.75 646.976 1490.77 646.601 1490.82 645.835C1491.16 645.5 1491.4 645.27 1491.65 645.065C1492.21 644.615 1492.87 644.285 1494.98 643.23C1496.11 642.666 1497.23 642.063 1498.32 641.422C1500.35 639.676 1501.13 638.7 1501.32 636.029C1499.85 636.134 1498.67 636.291 1497.43 637.098C1496.84 637.547 1496.25 637.995 1495.66 638.442C1494.52 639.159 1493.64 639.167 1492.32 638.971L1492.32 638.895C1492.28 636.583 1492.25 635.354 1493.62 633.438L1494.63 632.076C1495.67 630.672 1496.71 629.295 1497.85 627.966C1499.92 625.547 1500.76 624.019 1500.82 620.83L1499.32 620.34V621.811L1498.32 622.791C1497.45 622.853 1497.01 622.883 1496.57 622.883C1496.13 622.883 1495.7 622.853 1494.82 622.791L1494.82 622.79C1494.3 622.279 1493.99 621.976 1493.79 621.615C1493.51 621.093 1493.45 620.447 1493.32 618.869C1493.87 618.069 1494.11 617.704 1494.4 617.37C1494.64 617.088 1494.9 616.829 1495.39 616.35C1501.95 609.916 1503.19 603.693 1503.23 594.84L1503.23 593.781C1503.24 593.111 1503.24 592.441 1503.24 591.771C1503.24 591.611 1503.23 591.458 1503.23 591.311C1503.2 589.503 1503.19 588.661 1504.32 587C1507.65 587 1507.94 588.717 1508.18 591.724C1508.43 595.232 1508.93 598.655 1509.69 602.093L1510.01 603.517C1511.15 608.735 1513.31 612.334 1516.82 616.417L1518.26 617.766C1519.44 618.993 1519.82 619.633 1519.82 621.32C1519.02 622.366 1518.57 622.747 1517.24 622.987L1516.07 622.975L1516 622.976C1514.62 622.99 1514.04 622.995 1513 622.035L1512.32 621.32C1511.76 621.379 1511.49 621.406 1511.23 621.473C1510.99 621.535 1510.76 621.629 1510.32 621.811L1510.23 623.067C1510.46 627.218 1513.31 631.068 1516.2 633.974C1519.18 636.717 1521.95 639.803 1522.67 643.843C1522.25 645.641 1521.89 646.293 1520.32 647.306C1518.3 647.65 1517.54 647.447 1515.82 646.325C1514.14 645.223 1513.3 645.16 1511.32 645.345C1511.24 646.001 1511.2 646.347 1511.2 646.694C1511.19 647.08 1511.23 647.466 1511.32 648.282L1511.32 648.286C1512.48 649.416 1513.06 649.982 1513.68 650.498C1514.31 651.016 1514.98 651.485 1516.32 652.423C1517.85 653.503 1519.17 654.489 1520.41 655.89L1521.32 657.112C1522.42 658.533 1523.45 659.955 1524.32 661.524C1524.64 663.625 1524.53 664.159 1523.32 665.937L1522.31 666.115L1521.13 666.09L1519.97 666.084C1517.46 665.762 1516.39 664.574 1514.85 662.689L1514.85 662.686C1514.37 662.055 1514.14 661.75 1513.87 661.475C1513.62 661.219 1513.35 660.988 1512.82 660.544C1512.11 660.448 1511.78 660.403 1511.45 660.41C1511.16 660.415 1510.87 660.46 1510.32 660.544C1510.17 662.057 1510.18 662.793 1511.06 664.079L1512.07 665.14C1513.46 666.596 1514.91 667.945 1516.45 669.246C1517.51 670.136 1518.45 670.979 1519.38 672.004L1520.32 673.291C1522.2 675.582 1523.52 677.353 1523.57 680.37L1523.57 680.516C1523.51 682.031 1523.49 682.438 1522.32 683.587L1522.32 683.587C1521.48 683.648 1521.05 683.678 1520.62 683.679C1520.17 683.68 1519.73 683.65 1518.82 683.587C1517.24 682.555 1516.5 681.61 1515.38 680.125L1514.39 678.79C1513.18 677.564 1512.52 677.356 1510.82 677.214V679.175C1511.3 680.563 1511.84 681.15 1512.98 682.12C1517.08 685.155 1520.15 688.472 1522.85 692.75C1523.98 694.813 1523.95 696.065 1523.32 698.296L1521.79 698.725C1520.54 698.764 1520.09 698.778 1519.7 698.625C1519.47 698.537 1519.27 698.392 1518.95 698.164L1518.73 697.948L1518.68 697.905C1517.25 696.511 1516.34 695.63 1514.13 695.63C1513.05 695.641 1512.65 695.645 1512.36 695.818C1512.18 695.92 1512.04 696.08 1511.82 696.335C1511.72 696.87 1511.67 697.154 1511.67 697.44C1511.66 697.764 1511.71 698.09 1511.82 698.785V698.786C1513.08 700.604 1514.54 701.866 1516.31 703.172L1517.23 703.843C1517.6 704.12 1517.97 704.396 1518.35 704.672L1518.35 704.677C1521.18 706.751 1524.07 708.877 1524.6 712.453C1524.45 713.26 1524.38 713.642 1524.21 713.966C1524.04 714.257 1523.8 714.502 1523.32 714.966C1521.34 715.231 1520.5 715.078 1518.79 714.016C1517.37 713.037 1516.52 712.71 1514.82 712.515V714.476C1515.87 716.491 1517.06 717.67 1518.88 719.042L1519.23 719.295L1519.51 719.5C1523.14 722.157 1527.03 725.003 1528.82 729.184C1529.15 731.054 1529.1 731.729 1528.01 733.291C1526.5 734.301 1525.61 734.278 1523.82 734.087C1523.35 733.857 1523.1 733.735 1522.9 733.559C1522.68 733.361 1522.51 733.094 1522.17 732.525C1521.16 730.874 1520.2 729.586 1518.82 728.204C1518.09 728.071 1517.75 728.009 1517.42 728.02C1517.13 728.029 1516.85 728.09 1516.32 728.204L1515.82 730.655C1517.02 731.477 1518.08 732.272 1518.92 733.457C1519.9 734.99 1520.91 736.438 1522.11 737.791H1550.4C1552.25 736.006 1555.04 734.021 1556.68 732.959L1557.07 731.677C1557.49 730.372 1557.94 729.107 1558.41 727.833C1559.08 725.925 1559.49 724.195 1559.66 722.096C1557.73 723.29 1556.61 724.984 1555.29 727.072C1554.27 728.433 1553.41 729.051 1551.95 729.32C1549.54 729.337 1547.79 728.78 1545.59 727.528C1545.46 727.368 1545.37 727.255 1545.31 727.131C1545.15 726.832 1545.11 726.465 1545 725.219C1545.21 722.534 1546.39 721.345 1547.89 719.826C1548.11 719.601 1548.34 719.369 1548.58 719.124L1549.26 718.436C1555.21 712.337 1559.95 703.686 1560.94 693.854C1559.02 694.931 1557.58 696.256 1556.04 698.034C1554.76 699.444 1553.62 699.439 1551.95 699.4C1551.59 699.349 1551.38 699.321 1551.2 699.252C1550.96 699.166 1550.75 699.015 1550.28 698.674C1549.62 697.106 1549.64 696.154 1549.85 694.397C1551.19 691.735 1552.95 690.212 1554.96 688.476L1555.24 688.23C1557.91 685.865 1560.01 682.557 1560.74 678.452C1560.84 677.435 1560.9 676.411 1560.94 675.388C1559.14 676.114 1558.35 676.969 1557.26 678.918C1556.02 681.125 1555.6 681.874 1554.96 682.241C1554.63 682.43 1554.24 682.518 1553.65 682.65C1551.79 682.719 1550.94 682.663 1549.37 681.261C1548.92 680.397 1548.72 680.021 1548.65 679.623C1548.59 679.318 1548.61 678.999 1548.64 678.436V678.435C1549.57 674.793 1552.33 671.968 1554.75 669.495C1555.13 669.097 1555.51 668.709 1555.88 668.328C1558.91 665.115 1561.81 661.489 1562.65 656.379V656.377C1562.69 655.557 1562.7 655.187 1562.7 654.818C1562.7 654.629 1562.69 654.441 1562.68 654.192C1562.67 654.042 1562.66 653.87 1562.65 653.663C1560.76 653.882 1559.72 654.873 1558.25 656.263L1558.25 656.264C1556.2 658.141 1554.43 658.161 1551.98 658.008L1551.13 657.465C1550.98 655.367 1550.92 654.558 1551.16 653.843C1551.3 653.395 1551.56 652.983 1551.99 652.314L1553.13 651.084C1556.66 646.86 1557.82 641.515 1559.04 635.822L1559.06 635.771C1559.18 635.194 1559.31 634.612 1559.44 634.028C1559.78 632.488 1560.18 630.977 1560.59 629.463C1560.89 628.328 1561.17 627.19 1561.45 626.047L1561.73 624.891C1561.91 624.135 1562.09 623.379 1562.27 622.622C1563.59 617.143 1563.94 615.687 1564.81 615.237C1565.13 615.074 1565.51 615.042 1566.03 615C1566.67 615.05 1567 615.075 1567.26 615.215C1567.54 615.361 1567.76 615.633 1568.19 616.188C1568.29 616.734 1568.35 617.035 1568.4 617.337C1568.45 617.709 1568.49 618.083 1568.59 618.916L1568.79 620.587L1568.99 622.366C1570.39 633.573 1573.54 642.819 1579.21 651.62C1580.28 653.324 1580.93 654.371 1581.25 656.549C1581.11 657.344 1581.04 657.706 1580.91 658.041C1580.8 658.321 1580.64 658.582 1580.35 659.061C1578.74 659.931 1577.47 659.859 1575.87 659.095C1574.75 658.055 1573.71 656.927 1572.66 655.77C1571.19 654.351 1570 654.004 1568.19 653.663C1569.16 657.217 1570.83 659.759 1572.69 662.603L1572.69 662.604L1572.88 662.896C1573.44 663.8 1574 664.706 1574.56 665.612C1576.09 668.051 1577.71 670.363 1579.37 672.656C1580.42 674.173 1580.63 675.041 1580.64 677.018L1580.66 678.172V678.173C1580.62 678.611 1580.59 678.86 1580.51 679.089C1580.4 679.392 1580.19 679.658 1579.71 680.276C1577.05 680.752 1574.81 680.316 1572.46 678.647C1572.02 678.17 1571.6 677.683 1571.18 677.187C1569.63 675.671 1568.82 675.689 1566.91 675.931C1567.03 680.835 1568.27 683.645 1570.99 687.089C1572.48 688.835 1574.02 690.518 1575.56 692.193C1576.39 693.094 1577.2 694.009 1578 694.94L1578.78 695.827C1580.22 697.669 1580.73 698.963 1580.8 701.594C1580.77 703.098 1580.72 703.895 1580.03 705.124C1578.78 706.256 1577.7 706.222 1576.2 706.174L1576.2 706.174C1574.1 705.515 1572.68 703.563 1571.25 701.603C1571.09 701.373 1570.92 701.143 1570.75 700.915C1569.97 699.855 1569.6 699.349 1569.15 698.931C1568.74 698.551 1568.26 698.243 1567.34 697.656C1568.43 704.444 1571.74 708.444 1575.83 712.661C1578.61 715.56 1581.54 719.002 1582 723.76C1581.82 725.583 1581.42 726.603 1580.56 728.071C1579.11 728.994 1577.84 729.132 1576.3 728.614C1575.12 727.496 1574.12 726.283 1573.09 724.954C1571.96 723.643 1570.86 722.891 1569.47 722.096C1569.55 722.823 1569.64 723.547 1569.74 724.269L1569.89 725.491C1571.09 729.616 1573.78 732.594 1576.35 735.443L1576.35 735.444C1576.65 735.783 1576.96 736.121 1577.26 736.458C1577.42 736.908 1577.57 737.352 1577.72 737.791H1666.25L1675.51 742.78C1676.73 739.925 1677.58 736.872 1677.94 733.68C1676.02 734.645 1674.58 735.833 1673.04 737.427C1671.76 738.69 1670.62 738.686 1668.95 738.651C1668.58 738.605 1668.38 738.58 1668.19 738.516C1667.96 738.438 1667.75 738.302 1667.28 738.002L1667.28 738.001C1666.62 736.595 1666.64 735.741 1666.85 734.167C1668.19 731.78 1669.95 730.415 1671.96 728.859L1672.24 728.639C1674.91 726.519 1677.01 723.554 1677.74 719.874C1677.84 718.963 1677.9 718.045 1677.94 717.128C1676.14 717.779 1675.35 718.545 1674.26 720.293C1673.04 722.23 1672.61 722.914 1672 723.25C1671.66 723.434 1671.26 723.514 1670.65 723.638C1668.79 723.699 1667.94 723.649 1666.37 722.392C1665.92 721.611 1665.72 721.275 1665.65 720.915C1665.59 720.645 1665.61 720.36 1665.64 719.862V719.859C1666.57 716.595 1669.33 714.063 1671.75 711.846L1671.76 711.837C1672.14 711.484 1672.52 711.139 1672.88 710.8C1675.91 707.92 1678.81 704.67 1679.65 700.09V700.088C1679.69 699.353 1679.7 699.022 1679.7 698.691C1679.7 698.485 1679.69 698.278 1679.67 697.975L1679.65 697.656C1677.76 697.851 1676.72 698.74 1675.25 699.986L1675.25 699.987C1673.2 701.669 1671.43 701.687 1668.98 701.55L1668.13 701.063C1667.98 699.21 1667.92 698.479 1668.15 697.845C1668.29 697.432 1668.55 697.06 1668.99 696.446L1670.13 695.343C1673.66 691.557 1674.82 686.766 1676.04 681.663L1676.06 681.619C1676.18 681.101 1676.31 680.579 1676.44 680.056C1676.78 678.676 1677.18 677.321 1677.59 675.964C1677.89 674.946 1678.17 673.927 1678.45 672.902L1678.73 671.866C1678.91 671.188 1679.09 670.51 1679.27 669.832C1680.56 665.015 1680.93 663.667 1681.76 663.236C1682.09 663.069 1682.48 663.04 1683.03 663C1683.69 663.046 1684.02 663.069 1684.29 663.204C1684.55 663.337 1684.77 663.581 1685.19 664.065L1685.19 664.068L1685.2 664.11C1685.24 664.321 1685.28 664.489 1685.31 664.636C1685.34 664.81 1685.37 664.953 1685.4 665.096C1685.45 665.429 1685.49 665.764 1685.59 666.51L1685.79 668.008L1685.99 669.603C1687.39 679.648 1690.54 687.936 1696.21 695.824C1697.28 697.351 1697.93 698.29 1698.25 700.242C1698.11 700.946 1698.04 701.271 1697.91 701.568C1697.8 701.823 1697.64 702.057 1697.35 702.492L1697.35 702.493C1695.74 703.273 1694.47 703.209 1692.87 702.524C1691.75 701.592 1690.71 700.581 1689.66 699.544C1688.19 698.272 1687 697.961 1685.19 697.656C1686.16 700.84 1687.83 703.119 1689.69 705.668L1689.69 705.669L1689.88 705.932C1690.44 706.742 1691 707.553 1691.56 708.366C1693.09 710.552 1694.71 712.624 1696.37 714.679C1697.42 716.039 1697.63 716.818 1697.64 718.589L1697.66 719.623V719.625C1697.62 720.009 1697.59 720.231 1697.52 720.433C1697.41 720.709 1697.2 720.947 1696.71 721.51C1694.05 721.936 1691.81 721.545 1689.46 720.049C1689.02 719.621 1688.6 719.185 1688.18 718.741C1686.63 717.382 1685.82 717.398 1683.91 717.615C1684.03 722.011 1685.27 724.529 1687.99 727.616C1689.48 729.182 1691.02 730.69 1692.56 732.191C1693.39 732.999 1694.2 733.819 1695 734.654L1695.78 735.449C1697.22 737.099 1697.73 738.26 1697.8 740.618C1697.77 741.966 1697.72 742.68 1697.03 743.782C1695.78 744.797 1694.7 744.766 1693.2 744.723L1693.2 744.723C1691.1 744.132 1689.68 742.383 1688.25 740.626C1688.09 740.42 1687.92 740.213 1687.75 740.009L1687.75 740.008C1686.99 739.075 1686.62 738.622 1686.17 738.251C1685.76 737.901 1685.28 737.625 1684.34 737.089L1684.34 737.088C1685.43 743.172 1688.74 746.758 1692.83 750.537C1693.9 751.536 1694.99 752.606 1695.95 753.788L1702.42 757.273L1844.15 650.374H1863.79C1864.84 647.342 1867.45 644.952 1869.74 642.847L1869.75 642.846C1870.13 642.49 1870.51 642.142 1870.88 641.8C1873.91 638.92 1876.81 635.67 1877.65 631.09V631.088C1877.69 630.353 1877.7 630.022 1877.7 629.691C1877.7 629.424 1877.68 629.157 1877.65 628.679L1877.65 628.659L1877.65 628.656C1875.76 628.851 1874.72 629.74 1873.25 630.986L1873.25 630.987C1871.2 632.669 1869.43 632.687 1866.98 632.55L1866.13 632.063C1865.98 630.21 1865.92 629.479 1866.15 628.845C1866.29 628.432 1866.55 628.06 1866.99 627.446L1868.13 626.343C1871.66 622.557 1872.82 617.766 1874.04 612.663C1874.17 612.131 1874.3 611.594 1874.44 611.056C1874.78 609.676 1875.18 608.321 1875.59 606.964C1875.89 605.946 1876.17 604.927 1876.45 603.902L1876.73 602.866C1876.91 602.188 1877.09 601.51 1877.27 600.832C1878.56 596.015 1878.93 594.667 1879.76 594.236C1880.09 594.069 1880.48 594.04 1881.03 594C1881.69 594.046 1882.02 594.069 1882.29 594.204C1882.55 594.337 1882.77 594.581 1883.19 595.065L1883.19 595.068C1883.29 595.556 1883.35 595.825 1883.4 596.096C1883.45 596.429 1883.49 596.764 1883.59 597.51L1883.79 599.008L1883.99 600.603C1885.39 610.648 1888.54 618.936 1894.21 626.824C1895.28 628.351 1895.93 629.29 1896.25 631.242C1896.11 631.946 1896.04 632.271 1895.91 632.568C1895.8 632.823 1895.64 633.058 1895.35 633.493C1893.74 634.273 1892.47 634.209 1890.87 633.524C1889.75 632.592 1888.71 631.581 1887.66 630.544C1886.19 629.272 1885 628.961 1883.19 628.656C1884.16 631.841 1885.83 634.12 1887.69 636.669L1887.88 636.932C1888.44 637.742 1889 638.553 1889.56 639.366C1891.09 641.552 1892.71 643.624 1894.37 645.679C1895.42 647.039 1895.63 647.818 1895.64 649.589L1895.65 650.374H1920L1918.5 1080H-1.5L0 517L32.606 527.917C37.4299 523.281 41.0853 517.243 41.9409 510.506C40.0154 511.36 38.5848 512.41 37.0427 513.819C35.7564 514.937 34.6183 514.933 32.9458 514.902C32.5735 514.861 32.3714 514.838 32.1802 514.78C31.953 514.71 31.7413 514.59 31.2781 514.327C30.6212 513.084 30.6352 512.329 30.8516 510.937C32.1862 508.826 33.9481 507.619 35.9567 506.243L36.2413 506.048C38.9102 504.173 41.0114 501.551 41.7427 498.297C41.8432 497.491 41.8971 496.68 41.9409 495.869C40.1387 496.444 39.3509 497.122 38.2622 498.667C37.0727 500.34 36.6348 500.956 36.0381 501.261C35.6905 501.439 35.289 501.511 34.6536 501.625L34.6535 501.625C32.7906 501.68 31.9447 501.635 30.3718 500.524C29.9103 499.825 29.7152 499.53 29.6451 499.207C29.5937 498.97 29.6095 498.719 29.637 498.284C30.5661 495.397 33.3276 493.158 35.7456 491.197L35.7461 491.197C36.1346 490.882 36.5143 490.574 36.8761 490.272C39.9117 487.725 42.807 484.851 43.647 480.8L43.647 480.8C43.6865 480.149 43.7043 479.856 43.7004 479.563C43.6971 479.324 43.6794 479.084 43.647 478.648C41.7617 478.821 40.7151 479.607 39.2479 480.709L39.2469 480.71C37.1975 482.197 35.4264 482.213 32.9841 482.092L32.1311 481.661C31.9854 480.053 31.9262 479.4 32.1334 478.847C32.275 478.468 32.5411 478.137 32.9891 477.578L34.1304 476.603C37.6613 473.255 38.8156 469.018 40.0449 464.505L40.0452 464.504C40.1735 464.033 40.3025 463.559 40.4352 463.083C40.7823 461.863 41.1849 460.665 41.5944 459.464C41.891 458.565 42.1721 457.663 42.4474 456.757L42.7265 455.84C42.9083 455.241 43.0889 454.642 43.2679 454.041C44.5349 449.876 44.9097 448.644 45.7068 448.236C46.0416 448.064 46.451 448.037 47.0324 448C47.7077 448.042 48.0339 448.062 48.3093 448.191ZM1886.79 650.374C1886.58 650.165 1886.38 649.954 1886.18 649.741C1884.63 648.382 1883.82 648.398 1881.91 648.615C1881.93 649.237 1881.97 649.821 1882.03 650.374H1886.79ZM1875.79 650.374C1875.86 649.628 1875.91 648.878 1875.94 648.128C1874.49 648.652 1873.7 649.25 1872.88 650.374H1875.79ZM1202.93 794.834L1192.86 797.669C1191.61 795.862 1191 793.973 1190.91 791.299C1192.82 791.107 1193.63 791.093 1195.18 792.295C1195.6 792.688 1196.02 793.073 1196.46 793.452C1198.57 794.643 1200.61 795.042 1202.93 794.834ZM1148.27 810.235C1147.51 809.584 1146.81 808.894 1146.09 808.159C1144.96 807.12 1143.86 806.523 1142.47 805.894C1142.55 806.469 1142.64 807.043 1142.74 807.616L1142.89 808.584C1143.25 809.579 1143.76 810.49 1144.35 811.339L1148.27 810.235ZM835.893 796.863L835.472 796.723L835.522 796.699C835.551 796.685 835.58 796.671 835.609 796.658L835.678 796.626L835.751 796.592C835.814 796.563 835.877 796.535 835.941 796.506C835.932 796.578 835.922 796.649 835.913 796.72C835.906 796.768 835.9 796.816 835.893 796.863ZM712.728 755.627C713.303 753.976 713.718 752.265 713.941 750.506C712.015 751.36 710.585 752.41 709.043 753.819C708.867 753.972 708.693 754.104 708.521 754.218L712.728 755.627ZM646.977 733.613L640.971 731.602C641.455 731.652 641.99 731.645 642.654 731.625C643.289 731.511 643.69 731.439 644.038 731.261C644.635 730.956 645.073 730.34 646.262 728.667C647.351 727.122 648.139 726.444 649.941 725.869C649.897 726.68 649.843 727.491 649.743 728.297C649.287 730.323 648.301 732.105 646.977 733.613ZM540.649 698.013L540.513 697.968C540.562 697.943 540.611 697.918 540.661 697.894L540.654 697.961L540.649 698.013ZM485.86 679.67C485.726 679.6 485.591 679.528 485.457 679.452C485.024 679.073 484.597 678.688 484.177 678.295C482.633 677.093 481.815 677.107 479.912 677.299C479.916 677.429 479.922 677.557 479.928 677.684L485.86 679.67ZM427.464 660.118L424.913 659.264C425.833 658.587 426.8 658.012 427.941 657.506C427.829 658.39 427.668 659.261 427.464 660.118ZM438.363 663.767L434.907 662.61C434.678 661.951 434.488 661.256 434.339 660.52C435.295 661.005 435.777 661.249 436.201 661.569C436.631 661.893 437.003 662.294 437.751 663.103L437.833 663.191L437.869 663.231L437.977 663.347C438.068 663.446 438.159 663.545 438.25 663.644L438.254 663.649L438.363 663.767ZM316.595 622.998L312.062 621.481C312.387 621.323 312.71 621.109 313.043 620.819C314.585 619.41 316.015 618.36 317.941 617.506C317.701 619.397 317.24 621.233 316.595 622.998ZM259.63 603.926C260.173 602.61 260.512 601.366 260.661 599.894C259.055 600.68 258.01 601.741 256.944 603.027L259.63 603.926ZM206.854 586.256L202.906 584.934C202.951 584.898 202.997 584.859 203.043 584.819C204.585 583.41 206.015 582.36 207.941 581.506C207.734 583.134 207.364 584.72 206.854 586.256ZM50.6274 533.95L54.0093 535.083C52.9046 534.09 51.8292 533.507 50.4712 532.894C50.5181 533.247 50.571 533.599 50.6274 533.95Z" fill="#EE4235"/>
</svg>
