<svg width="1920" height="1080" viewBox="0 0 1920 1080" fill="none" xmlns="http://www.w3.org/2000/svg">
<g clip-path="url(#clip0_30_5)">
<g filter="url(#filter0_d_30_5)">
<path d="M1730.4 964C1730.57 964 1730.73 964 1730.9 964C1730.92 964.875 1730.92 965.75 1730.93 966.625C1730.94 967.356 1730.94 967.356 1730.95 968.102C1730.91 969.665 1730.8 971.18 1730.65 972.735C1730.39 975.877 1730.33 978.992 1730.33 982.145C1730.33 982.716 1730.33 983.287 1730.33 983.875C1730.33 985.079 1730.33 986.284 1730.34 987.488C1730.34 989.284 1730.34 991.079 1730.33 992.875C1730.33 998.789 1730.4 1004.69 1730.62 1010.61C1730.64 1011.13 1730.66 1011.66 1730.68 1012.2C1730.66 1017.25 1730.66 1017.25 1731.9 1022C1732.1 1021.48 1732.1 1021.48 1732.31 1020.95C1736.18 1011.3 1741.76 1002.96 1748.41 995C1751.44 995.989 1752.48 997.763 1753.91 1000.5C1756.28 1005.93 1756.42 1013.9 1754.41 1019.5C1754.22 1020.03 1754.03 1020.56 1753.84 1021.11C1750.21 1030.35 1743.12 1036.95 1735.9 1043.5C1796.66 1043.67 1857.41 1043.83 1920 1044C1920 1088.88 1920 1133.76 1920 1180C1286.07 1180 652.14 1180 -1 1180C-1 1135.12 -1 1090.24 -1 1044C78.5714 1044 158.143 1044 240.126 1044C240.456 1043.34 240.786 1042.68 241.126 1042C242.045 1040.55 243.028 1039.14 244.003 1037.72C244.287 1037.3 244.571 1036.89 244.863 1036.46C247.28 1032.96 249.787 1029.52 252.34 1026.12C252.758 1025.56 252.758 1025.56 253.183 1024.99C253.427 1024.66 253.671 1024.34 253.923 1024.01C254.69 1023 254.69 1023 255.165 1021.7C256.134 1020.5 256.134 1020.5 257.986 1020.2C258.772 1020.19 259.559 1020.2 260.345 1020.22C260.99 1020.22 260.99 1020.22 261.647 1020.22C263.069 1020.22 264.489 1020.24 265.91 1020.26C266.895 1020.26 267.88 1020.26 268.865 1020.27C271.458 1020.28 274.051 1020.3 276.644 1020.33C279.29 1020.35 281.936 1020.37 284.581 1020.38C289.773 1020.4 294.965 1020.45 300.157 1020.5C300.157 1017.03 300.157 1013.57 300.157 1010C316.665 1010 333.174 1010 350.183 1010C352.164 1017.18 352.164 1017.18 354.185 1024.5C355.182 1027.67 356.182 1030.83 357.186 1034C358.177 1037.63 359.167 1041.26 360.188 1045C380.163 1045 400.139 1045 420.72 1045C418.243 1043.51 415.767 1042.03 413.216 1040.5C407.123 1036.04 403.26 1031.68 400.709 1024.5C400.509 1023.95 400.509 1023.95 400.305 1023.39C399.375 1020.36 399.623 1017.13 399.709 1014C410.132 1016.25 418.54 1021.26 425.222 1029.5C425.21 1028.9 425.199 1028.31 425.187 1027.69C425.074 1019.58 425.074 1019.58 426.222 1016C426.345 1015.54 426.467 1015.08 426.594 1014.61C428.37 1008.51 432.153 1002.86 437.228 999C437.558 999 437.888 999 438.229 999C438.626 1000.02 439.021 1001.04 439.417 1002.06C439.637 1002.63 439.858 1003.2 440.085 1003.79C440.298 1004.35 440.511 1004.92 440.73 1005.5C440.987 1006.18 440.987 1006.18 441.25 1006.87C444.566 1018.11 443.179 1030.18 437.728 1040.5C438.014 1040.2 438.014 1040.2 438.306 1039.89C444.078 1033.85 450.237 1027.97 458.239 1025C458.569 1025.17 458.899 1025.33 459.24 1025.5C458.649 1026 458.649 1026 458.046 1026.51C457.786 1026.73 457.526 1026.95 457.258 1027.18C456.674 1027.67 456.091 1028.16 455.507 1028.66C454.02 1029.91 452.534 1031.17 451.05 1032.43C448.056 1034.97 445.046 1037.49 441.998 1039.96C441.044 1040.74 440.095 1041.53 439.15 1042.31C438.446 1042.9 438.446 1042.9 437.728 1043.5C459.489 1043.7 481.25 1043.84 503.012 1043.93C505.59 1043.94 508.168 1043.96 510.746 1043.97C511.259 1043.97 511.773 1043.97 512.301 1043.97C520.575 1044.01 528.848 1044.08 537.121 1044.16C545.631 1044.24 554.141 1044.28 562.651 1044.3C567.889 1044.31 573.125 1044.35 578.362 1044.42C581.97 1044.46 585.577 1044.48 589.185 1044.46C591.257 1044.46 593.326 1044.47 595.398 1044.51C605.166 1044.72 612.022 1043.43 620.603 1038.66C627.877 1034.62 633.982 1033.81 642.323 1034C643.675 1033.99 645.028 1033.99 646.38 1033.98C649.624 1033.97 652.867 1033.99 656.111 1034.04C659.915 1034.09 663.719 1034.1 667.524 1034.1C674.33 1034.11 681.134 1034.15 687.939 1034.22C694.49 1034.29 701.041 1034.33 707.593 1034.34C707.996 1034.35 708.4 1034.35 708.815 1034.35C709.628 1034.35 710.442 1034.35 711.255 1034.35C711.656 1034.35 712.058 1034.35 712.472 1034.35C712.872 1034.36 713.273 1034.36 713.686 1034.36C720.002 1034.37 726.317 1034.4 732.633 1034.44C734.521 1034.45 736.41 1034.46 738.299 1034.47C769.566 1034.6 769.566 1034.6 784.755 1037.23C787.08 1037.61 789.41 1037.85 791.756 1038.06C794.534 1038.33 797.26 1038.71 800.007 1039.2C805.197 1040.09 810.413 1040.69 815.644 1041.28C817.026 1041.44 818.407 1041.6 819.789 1041.76C820.637 1041.85 821.486 1041.95 822.335 1042.04C824.379 1042.28 826.373 1042.59 828.388 1043.01C831.781 1043.63 835.113 1043.64 838.554 1043.62C839.264 1043.62 839.974 1043.63 840.685 1043.63C842.631 1043.63 844.577 1043.63 846.523 1043.62C848.642 1043.62 850.761 1043.62 852.88 1043.63C856.593 1043.63 860.306 1043.63 864.018 1043.62C869.539 1043.62 875.06 1043.62 880.581 1043.62C889.301 1043.63 898.022 1043.63 906.742 1043.62C920.587 1043.62 934.432 1043.62 948.277 1043.63C953.605 1043.63 958.934 1043.63 964.262 1043.64C964.854 1043.64 965.446 1043.64 966.056 1043.64C980.146 1043.64 994.236 1043.65 1008.33 1043.65C1009.25 1043.65 1009.25 1043.65 1010.19 1043.65C1024.57 1043.66 1038.96 1043.66 1053.34 1043.65C1053.96 1043.65 1054.57 1043.65 1055.21 1043.65C1058.33 1043.65 1061.45 1043.65 1064.57 1043.65C1065.18 1043.65 1065.8 1043.65 1066.43 1043.65C1067.68 1043.65 1068.92 1043.65 1070.17 1043.65C1090.72 1043.65 1111.28 1043.65 1131.84 1043.67C1134.74 1043.67 1137.65 1043.67 1140.55 1043.68C1141.12 1043.68 1141.69 1043.68 1142.28 1043.68C1151.48 1043.68 1160.67 1043.68 1169.86 1043.67C1179.1 1043.67 1188.34 1043.67 1197.58 1043.68C1203.07 1043.69 1208.56 1043.68 1214.05 1043.67C1217.72 1043.67 1221.39 1043.67 1225.05 1043.68C1227.14 1043.69 1229.23 1043.69 1231.32 1043.68C1239.42 1043.64 1246.95 1043.71 1254.65 1046.5C1255.64 1046.75 1256.63 1046.99 1257.62 1047.2C1258.05 1047.3 1258.47 1047.39 1258.9 1047.48C1259.52 1047.61 1259.52 1047.61 1260.16 1047.75C1264.06 1048.6 1267.9 1049.57 1271.71 1050.78C1275.86 1052.03 1279.53 1050.7 1283.57 1049.62C1284.08 1049.49 1284.59 1049.36 1285.11 1049.22C1288.94 1048.21 1292.76 1047.16 1296.57 1046.09C1296.89 1046 1297.2 1045.91 1297.53 1045.82C1298.32 1045.6 1299.11 1045.36 1299.9 1045.12C1303.12 1044.17 1306.01 1043.78 1309.36 1043.8C1309.85 1043.8 1310.34 1043.79 1310.85 1043.79C1312.48 1043.78 1314.11 1043.78 1315.73 1043.78C1316.91 1043.78 1318.08 1043.77 1319.26 1043.77C1322.43 1043.75 1325.6 1043.75 1328.78 1043.75C1331.76 1043.74 1334.75 1043.73 1337.74 1043.72C1343.64 1043.7 1349.55 1043.68 1355.46 1043.67C1361.2 1043.66 1366.94 1043.65 1372.67 1043.63C1373.03 1043.63 1373.38 1043.63 1373.75 1043.63C1375.53 1043.62 1377.3 1043.62 1379.08 1043.61C1393.8 1043.56 1408.52 1043.53 1423.24 1043.5C1423.04 1043.06 1422.83 1042.62 1422.62 1042.17C1422.35 1041.59 1422.08 1041.02 1421.8 1040.42C1421.53 1039.85 1421.26 1039.28 1420.99 1038.69C1418.88 1033.92 1418.53 1029.68 1418.74 1024.5C1423.46 1024.24 1427.52 1025.54 1431.25 1028.5C1434.24 1031.37 1436.17 1033.68 1436.31 1037.94C1436.29 1038.45 1436.27 1038.97 1436.25 1039.5C1437.04 1039.11 1437.04 1039.11 1437.84 1038.72C1439 1038.24 1439.83 1037.99 1441.09 1037.88C1443.04 1038.93 1443.58 1040.97 1444.25 1043C1444.25 1043.33 1444.25 1043.66 1444.25 1044C1466.87 1043.83 1489.49 1043.67 1512.79 1043.5C1514.44 1040.36 1516.09 1037.23 1517.79 1034C1520.07 1029.97 1520.07 1029.97 1521.04 1028.29C1521.48 1027.54 1521.9 1026.78 1522.29 1026C1522.85 1026.02 1523.41 1026.04 1523.98 1026.07C1537.55 1026.91 1537.55 1026.91 1549.27 1021.1C1549.87 1020.52 1550.46 1019.92 1551.03 1019.3C1551.41 1018.91 1551.41 1018.91 1551.81 1018.5C1552.05 1018.24 1552.3 1017.98 1552.55 1017.72C1554.52 1016.6 1556.47 1016.76 1558.69 1016.75C1559.19 1016.74 1559.68 1016.73 1560.2 1016.73C1561.84 1016.7 1563.48 1016.69 1565.12 1016.68C1565.68 1016.67 1566.25 1016.67 1566.83 1016.66C1569.81 1016.64 1572.79 1016.62 1575.78 1016.61C1578.84 1016.6 1581.91 1016.56 1584.97 1016.51C1587.34 1016.48 1589.71 1016.47 1592.08 1016.47C1593.21 1016.46 1594.34 1016.45 1595.47 1016.43C1602.98 1016.29 1607.56 1017.1 1613.34 1022C1614.12 1022.53 1614.9 1023.06 1615.7 1023.56C1616.01 1023.77 1616.32 1023.98 1616.64 1024.19C1617.26 1024.6 1617.88 1025.01 1618.5 1025.42C1620.79 1026.94 1620.79 1026.94 1621.34 1027.5C1622.64 1027.58 1623.93 1027.63 1625.22 1027.66C1625.61 1027.67 1626 1027.68 1626.4 1027.69C1627.64 1027.72 1628.89 1027.75 1630.13 1027.78C1630.97 1027.8 1631.81 1027.82 1632.65 1027.85C1634.72 1027.9 1636.79 1027.95 1638.85 1028C1638.95 1028.27 1639.04 1028.54 1639.14 1028.81C1640.82 1033.69 1642.52 1038.54 1644.43 1043.33C1644.86 1044.5 1644.86 1044.5 1644.86 1045.5C1670.78 1045.33 1696.69 1045.17 1723.4 1045C1721.42 1043.51 1719.44 1042.03 1717.39 1040.5C1709.07 1033.97 1704.56 1026.74 1701.89 1016.5C1701.89 1015.84 1701.89 1015.18 1701.89 1014.5C1711.95 1014.78 1720.14 1017.78 1727.4 1025C1727.24 1023.56 1727.09 1022.12 1726.93 1020.69C1726.89 1020.28 1726.84 1019.88 1726.8 1019.46C1726.76 1019.07 1726.71 1018.67 1726.67 1018.26C1726.63 1017.9 1726.59 1017.54 1726.55 1017.17C1726.44 1016.34 1726.3 1015.51 1726.14 1014.69C1725.81 1012.36 1725.8 1010.05 1725.78 1007.7C1725.77 1006.92 1725.77 1006.92 1725.77 1006.13C1725.75 1004.46 1725.75 1002.79 1725.74 1001.12C1725.74 1000.28 1725.74 1000.28 1725.74 999.41C1725.73 991.073 1726.13 983.169 1727.9 975C1728.05 974.23 1728.19 973.459 1728.33 972.688C1728.88 969.743 1729.56 966.873 1730.4 964Z" fill="#FE9D49"/>
</g>
</g>
<defs>
<filter id="filter0_d_30_5" x="-67.2" y="897.8" width="2053.4" height="348.4" filterUnits="userSpaceOnUse" color-interpolation-filters="sRGB">
<feFlood flood-opacity="0" result="BackgroundImageFix"/>
<feColorMatrix in="SourceAlpha" type="matrix" values="0 0 0 0 0 0 0 0 0 0 0 0 0 0 0 0 0 0 127 0" result="hardAlpha"/>
<feOffset/>
<feGaussianBlur stdDeviation="33.1"/>
<feComposite in2="hardAlpha" operator="out"/>
<feColorMatrix type="matrix" values="0 0 0 0 0.996078 0 0 0 0 0.615686 0 0 0 0 0.286275 0 0 0 0.7 0"/>
<feBlend mode="normal" in2="BackgroundImageFix" result="effect1_dropShadow_30_5"/>
<feBlend mode="normal" in="SourceGraphic" in2="effect1_dropShadow_30_5" result="shape"/>
</filter>
<clipPath id="clip0_30_5">
<rect width="1921" height="1080" fill="white" transform="translate(-1)"/>
</clipPath>
</defs>
</svg>
