<svg width="1920" height="1080" viewBox="0 0 1920 1080" fill="none" xmlns="http://www.w3.org/2000/svg">
<g clip-path="url(#clip0_7_162)">
<path fill-rule="evenodd" clip-rule="evenodd" d="M1718.89 612.819C1717.88 611.213 1717.54 610.679 1715.76 610.012C1714.98 609.993 1714.63 609.984 1714.31 610.088C1714.06 610.172 1713.83 610.33 1713.41 610.616L1713.41 610.617L1713.41 610.618L1713.41 610.618L1713.41 610.619L1713.41 610.62L1713.41 610.621C1713.05 611.116 1712.86 611.381 1712.74 611.674C1712.6 612.01 1712.56 612.383 1712.47 613.184L1712.53 614.991L1712.58 617.001C1712.77 623.56 1712.71 629.73 1711.2 636.128C1711.01 636.936 1710.83 637.745 1710.65 638.556C1710.54 639.063 1710.43 639.571 1710.32 640.08V640.08C1709.72 642.906 1709.11 645.749 1708.09 648.449L1707.53 649.773C1705.86 654.531 1703.55 658.488 1700.81 662.706C1700.62 662.998 1700.42 663.287 1700.22 663.574C1698.61 665.917 1697.09 668.128 1697.01 671.101C1697.17 672.19 1697.24 672.68 1697.46 673.09C1697.64 673.425 1697.92 673.707 1698.44 674.219C1701.39 674.582 1702.99 674.356 1705.54 672.797C1708.07 671.235 1709.7 671.109 1712.64 671.376L1713.03 672.584C1712.7 674.646 1712.53 675.7 1712.12 676.643C1711.68 677.631 1710.96 678.497 1709.5 680.269L1709.18 680.67L1709.18 680.671C1706.65 683.808 1704.07 687.013 1702.41 690.706C1702.11 692.82 1701.98 693.942 1703.05 695.787C1703.52 696.051 1703.78 696.199 1704.06 696.307C1704.42 696.445 1704.8 696.515 1705.68 696.675C1708.17 696.291 1709.62 695.185 1711.5 693.548C1712.28 692.689 1712.65 692.291 1713.03 691.914C1713.36 691.59 1713.7 691.281 1714.34 690.706C1715.03 690.719 1715.35 690.726 1715.65 690.811C1715.91 690.886 1716.16 691.021 1716.62 691.274L1716.62 691.279C1716.68 691.831 1716.71 692.139 1716.72 692.449C1716.73 692.839 1716.7 693.231 1716.62 694.117C1715.15 698.802 1711.83 702.628 1708.13 705.771C1704.9 708.481 1702.08 711.526 1699.63 714.954L1699.47 715.197C1697.95 717.573 1696.65 719.601 1697.3 722.542C1698.26 723.832 1698.78 724.205 1700.38 724.514C1705.04 724.567 1707.57 723.455 1710.97 720.33L1711.08 720.23L1711.08 720.229C1712.14 719.24 1713.17 718.282 1714.34 717.426C1715.39 717.24 1715.86 717.157 1716.33 717.176C1716.7 717.192 1717.08 717.275 1717.75 717.426C1717.2 719.193 1716.69 720.197 1715.36 721.505L1713.81 722.72C1712.14 724.042 1710.44 725.327 1708.72 726.586C1708.17 726.985 1707.61 727.38 1707.05 727.776L1707.04 727.777L1707.04 727.779L1707.04 727.781L1707.02 727.793C1704.39 729.648 1701.73 731.52 1699.57 733.912C1697.52 737.014 1696.19 739.835 1696.73 743.577C1697.38 744.229 1697.66 744.507 1698 744.654C1698.25 744.764 1698.53 744.801 1699.02 744.865L1700.35 744.856C1702.87 744.873 1704.39 744.32 1706.3 742.676L1707.31 741.658C1708.4 740.582 1709.19 739.678 1709.92 738.332L1710.37 737.324L1712.64 738.461C1712.38 742.644 1710.64 745.633 1707.73 748.594L1704.71 750.41L1704.68 750.399C1703.62 750.991 1702.56 751.599 1701.55 752.269L1700.14 753.242C1697.79 754.858 1695.51 756.526 1693.32 758.359C1693.22 758.461 1693.11 758.562 1693.01 758.662C1691.12 760.469 1689.41 762.103 1689.28 764.865L1689.31 766.411L1689.32 767.969L1689.35 769.16C1682.98 769.003 1676.61 768.878 1670.24 768.799L1669.37 768.79C1666.39 768.756 1663.41 768.723 1660.42 768.653L1659.78 768.636C1645.16 768.253 1631.98 767.908 1618.63 774.62C1615.88 776.062 1613.12 777.375 1610.25 778.583C1609.36 778.955 1608.48 779.333 1607.59 779.717L1606.37 780.26C1605.57 780.61 1604.78 780.961 1603.99 781.312C1602.72 781.88 1601.44 782.447 1600.17 783.006L1598.97 783.529C1598.8 783.608 1598.62 783.688 1598.45 783.767C1596.91 784.478 1595.51 785.127 1593.74 784.943C1586.69 781.796 1581.2 774.188 1578 767.455C1579.42 768.622 1580.86 769.747 1582.36 770.821L1583.93 771.861C1584.73 772.404 1585.12 772.668 1585.52 772.903C1585.91 773.126 1586.31 773.324 1587.09 773.708C1589.11 773.894 1590.09 773.952 1591.84 772.891C1593.01 771.046 1593.06 769.812 1592.94 767.661C1592.24 762.327 1589.22 758.965 1585.18 755.618C1584.91 755.401 1584.65 755.185 1584.39 754.969L1584.37 754.958L1584.36 754.944L1584.34 754.934C1581.59 752.674 1578.89 750.469 1576.89 747.45C1575.4 744.649 1575.6 742.646 1576.29 739.598C1577.05 739.77 1577.46 739.862 1577.85 739.989C1578.31 740.134 1578.75 740.325 1579.7 740.735C1580.43 741.7 1581.19 742.649 1581.97 743.577C1583.74 743.961 1584.77 743.919 1586.36 743.033C1587.8 741.962 1588.69 741.108 1589.14 739.349C1588.88 738.26 1588.7 737.541 1588.4 736.882C1587.8 735.598 1586.71 734.544 1583.49 731.438C1581.1 729.153 1578.78 726.813 1576.55 724.374C1573.77 720.844 1573.54 717.858 1574.02 713.446C1574.9 713.476 1575.37 713.493 1575.83 713.553C1576.36 713.621 1576.88 713.746 1578 714.015L1580.84 716.857C1581.8 716.989 1582.25 717.051 1582.7 717.043C1583.1 717.036 1583.49 716.974 1584.24 716.857C1584.88 716.218 1585.16 715.938 1585.32 715.602C1585.45 715.339 1585.5 715.041 1585.59 714.512C1585.48 713.64 1585.4 712.995 1585.23 712.371C1584.76 710.594 1583.64 708.99 1579.31 702.82L1579.04 702.437C1576.12 698.269 1573.65 694.741 1572.88 689.568L1576.29 690.137V691.274L1576.29 691.275C1576.7 691.833 1576.92 692.133 1577.18 692.4C1577.47 692.71 1577.82 692.975 1578.56 693.548C1579.52 693.705 1580.01 693.785 1580.5 693.788C1581.01 693.791 1581.51 693.711 1582.54 693.548C1583.41 692.93 1583.84 692.628 1584.2 692.261C1584.54 691.912 1584.83 691.503 1585.38 690.705C1585.3 688.651 1584.98 687.531 1583.78 685.853C1577.51 678.972 1573.66 670.411 1571.5 661.392C1570.01 654.988 1568.08 648.63 1565.86 642.442L1565.76 642.194L1565.7 642.036L1565.69 641.999C1564.81 639.829 1564.34 638.643 1562.02 637.621C1561.06 637.745 1560.66 637.797 1560.31 637.949C1560.06 638.056 1559.83 638.213 1559.44 638.482C1559.1 638.961 1558.91 639.223 1558.79 639.513C1558.64 639.864 1558.6 640.256 1558.5 641.122L1558.53 643.028L1558.56 645.126C1558.93 661.179 1556.11 676.466 1547.42 690.137C1547.18 690.502 1546.93 690.866 1546.69 691.23C1545.44 693.055 1544.19 694.893 1543.55 697.013C1543.22 699.036 1543.31 700.364 1544.48 702.076L1544.5 702.078C1547.22 702.269 1548.53 702.36 1550.94 700.974C1553.32 699.42 1555.88 699.206 1558.68 699.233C1558.98 699.488 1559.15 699.631 1559.25 699.813C1559.38 700.044 1559.4 700.339 1559.43 701.01C1559.11 703.905 1557.57 705.885 1555.79 708.09L1555.54 708.383L1555.54 708.384C1553.94 710.296 1552.34 712.2 1550.9 714.237C1549.15 717.101 1548.35 719.746 1549.02 723.111C1549.54 723.629 1549.82 723.911 1550.16 724.078C1550.56 724.277 1551.05 724.313 1552.11 724.39C1554.35 724.233 1555.23 723.741 1556.78 722.149L1557.76 721.085C1559.31 719.493 1560.34 718.633 1562.66 718.563C1562.42 725.898 1558.17 730.18 1553.03 735.014C1549.25 738.571 1545.49 742.172 1543.34 746.988C1543.33 747.1 1543.32 747.21 1543.31 747.317C1543.18 748.928 1543.1 750.006 1544 751.456C1544.47 751.752 1544.73 751.912 1545.01 752.018C1545.35 752.144 1545.72 752.19 1546.52 752.291L1548.17 752.247C1551.79 752.189 1553.73 751.283 1556.35 748.814C1558.81 746.452 1560.35 745.355 1563.79 745.283V746.988C1562.41 748.546 1560.94 749.844 1559.32 751.152L1557.54 752.496L1557.35 752.643C1555.77 753.86 1554.19 755.075 1552.56 756.23L1552.34 756.381L1552.34 756.381C1549.62 758.29 1547 760.126 1544.96 762.809C1543.29 765.673 1542.14 768.115 1542.77 771.434C1544.59 772.649 1545.66 772.814 1547.82 772.747C1550.99 772.285 1552.88 770.546 1554.81 768.165L1555.58 767.108C1555.95 766.68 1556.17 766.426 1556.45 766.293C1556.85 766.099 1557.38 766.162 1558.68 766.318C1558.72 767.078 1558.75 767.48 1558.75 767.881C1558.75 768.33 1558.73 768.779 1558.68 769.729C1556.86 773.98 1553.61 776.498 1549.82 778.939L1549.57 779.091L1549.16 779.348C1543.89 782.646 1538.25 786.171 1535.39 791.901C1534.97 794.129 1535.05 795.88 1536.24 797.87C1536.86 798.243 1537.21 798.453 1537.59 798.595C1538.07 798.777 1538.59 798.847 1539.79 799.007C1543.69 798.776 1546.33 796.997 1548.99 794.246C1550.14 793.035 1551.28 791.91 1552.58 790.848C1555.3 788.899 1557.03 788.061 1560.38 788.49C1560.39 789.187 1560.4 789.572 1560.35 789.951C1560.29 790.418 1560.14 790.874 1559.82 791.891L1559.82 791.895L1559.82 791.899L1559.82 791.901C1557.65 794.742 1555.01 796.492 1551.85 798.057L1551.57 798.187C1547 800.353 1542.58 802.447 1540.25 807.215L1539.93 808.388C1539.54 808.388 1539.28 808.388 1539.01 808.418C1538.41 808.485 1537.83 808.706 1535.93 809.427C1535.13 809.735 1534.32 810.041 1533.52 810.346L1532.26 810.826C1531.02 811.301 1529.77 811.774 1528.53 812.24L1527.38 812.665C1525.96 813.194 1524.54 813.722 1523.12 814.25C1522.28 814.553 1521.44 814.875 1520.62 815.21C1513.37 819.047 1506.65 819.114 1498.57 819.087C1496.7 819.08 1494.82 819.083 1492.95 819.095C1489.41 819.117 1485.87 819.125 1482.32 819.121C1478.26 819.117 1474.21 819.127 1470.15 819.144C1464.73 819.167 1459.31 819.181 1453.89 819.187L1405.29 818.928L1405.28 818.985C1402.88 818.963 1400.47 818.943 1398.06 818.923C1394.57 818.896 1391.08 818.868 1387.59 818.837L1385.25 818.815L1383.61 818.801C1381.7 818.787 1379.78 818.773 1377.87 818.755L1376.12 818.738L1374.45 818.728L1372.95 818.711C1372.17 818.704 1371.4 818.682 1370.63 818.621C1367.94 815.928 1366.17 812.761 1366.09 808.956L1366.66 808.388C1368.56 808.123 1369.3 808.248 1370.88 809.383C1371.06 809.539 1371.24 809.694 1371.41 809.848L1371.42 809.855C1373.16 811.409 1374.72 812.789 1377.17 813.138C1377.39 813.145 1377.62 813.154 1377.83 813.163C1379.55 813.233 1380.96 813.291 1382.44 812.172C1382.73 811.781 1382.89 811.552 1383.01 811.299C1383.17 810.942 1383.22 810.537 1383.35 809.56C1383.26 808.826 1383.2 808.353 1383.05 807.914C1382.77 807.119 1382.18 806.431 1380.54 804.5C1378.44 802.135 1376.36 799.75 1374.33 797.328L1373.3 796.094L1373.09 795.846C1370.95 793.351 1369.14 791.232 1368.36 787.921C1369.99 788.164 1370.81 788.286 1371.54 788.604C1372.27 788.923 1372.92 789.441 1374.22 790.479L1375.16 791.219C1377.5 792.964 1379.1 793.405 1382 793.038C1382.52 792.515 1382.8 792.233 1382.97 791.894C1383.17 791.496 1383.21 791.019 1383.31 789.982C1383.12 787.73 1382.82 787.314 1381.43 785.647C1378.41 782.085 1375.9 778.553 1373.77 774.381L1372.91 772.571C1370.9 768.393 1370.18 764.069 1369.43 759.531L1369.15 757.774L1368.89 756.104C1368.6 754.17 1368.18 752.68 1367.23 750.968C1366.48 750.884 1366.08 750.84 1365.68 750.835C1365.23 750.829 1364.78 750.874 1363.82 750.968C1362.7 752.461 1362.1 753.834 1361.53 755.609L1361.44 755.956C1360.78 758.459 1360.12 760.956 1359.27 763.4C1358.45 765.574 1357.65 767.721 1357.02 769.96L1356.93 770.279C1355.42 775.883 1354.07 780.865 1349.76 784.972C1347.61 786.811 1347.02 787.926 1346.77 790.764C1347.36 791.059 1347.65 791.201 1347.95 791.28C1348.22 791.353 1348.52 791.371 1349.08 791.408L1350.43 791.403C1352.1 791.409 1353.12 791.299 1354.73 790.764C1356.97 789.215 1358.91 788.105 1361.54 787.353C1360.83 793.187 1358.08 796.857 1353.77 800.571C1352.08 802.022 1350.42 803.488 1348.8 805.016L1347.94 805.829C1345.48 808.135 1344.7 809.543 1344.5 812.936L1345.32 813.788C1347.44 815.03 1349.48 814.883 1351.89 814.641C1352.32 814.425 1352.6 814.284 1352.85 814.098C1353.31 813.754 1353.65 813.255 1354.62 811.834C1355.95 809.863 1357 809.124 1359.27 808.388L1358.91 809.844L1358.38 811.799C1357.62 814.715 1356.55 817.117 1354.54 819.348C1352.03 820.238 1350.76 820.689 1349.45 820.89C1348.09 821.096 1346.7 821.036 1343.87 820.913C1342.83 820.901 1341.79 820.897 1340.75 820.901C1338.03 820.923 1335.3 820.929 1332.58 820.912C1329.75 820.895 1326.93 820.898 1324.11 820.908C1318.03 820.933 1311.95 820.926 1305.87 820.895C1305.87 820.158 1305.87 819.739 1305.8 819.332C1305.71 818.798 1305.5 818.284 1305.02 817.094L1305.02 817.093L1304.16 815.21C1304.92 815.586 1305.68 815.966 1306.44 816.347C1307.92 817.151 1309.4 817.895 1310.93 818.592C1314.75 819.894 1318.69 819.772 1322.34 818.052C1324.13 816.746 1324.56 816.093 1324.97 813.895C1324.79 812.831 1324.67 812.093 1324.39 811.419C1323.75 809.892 1322.31 808.699 1317.62 804.799C1312.51 800.558 1308.48 796.065 1305.3 790.195L1306.44 790.764C1306.86 791.078 1307.28 791.4 1307.71 791.722L1307.71 791.723C1310.27 793.682 1312.81 795.629 1316.17 795.667C1317.43 795.463 1317.97 795.376 1318.41 795.124C1318.74 794.937 1319.02 794.659 1319.5 794.175L1319.5 794.171L1319.5 794.163C1319.58 793.422 1319.63 792.92 1319.66 792.416C1319.71 791.356 1319.63 790.291 1319.4 786.998V786.997C1318.12 783.249 1315.83 780.668 1312.83 778.168L1312.52 777.915C1309.83 775.71 1307.13 773.493 1304.88 770.826C1303.01 768.123 1302.74 766.162 1303.03 762.907L1304.24 762.409C1305.13 762.266 1305.53 762.202 1305.85 762.329C1306.11 762.431 1306.32 762.656 1306.7 763.06C1307.53 764 1308.34 764.906 1309.28 765.749C1310.16 765.948 1310.6 766.046 1311.03 766.042C1311.45 766.039 1311.87 765.941 1312.69 765.749C1314.56 764.365 1315.4 763.545 1315.85 761.237C1315.66 760.243 1315.53 759.537 1315.28 758.88C1314.65 757.266 1313.26 755.948 1308.46 751.394C1306.75 749.801 1305.1 748.209 1303.6 746.42C1301.44 742.97 1300.31 740.269 1300.76 736.187C1301.01 735.885 1301.15 735.714 1301.34 735.61C1301.57 735.475 1301.87 735.454 1302.57 735.405C1303.36 735.446 1303.8 735.468 1304.18 735.623C1304.63 735.808 1305.01 736.182 1305.83 737.004C1307.68 738.546 1308.61 738.975 1310.98 739.029L1312.12 737.892C1312.27 736.84 1312.38 736.058 1312.33 735.287C1312.18 733.05 1310.66 730.906 1304.73 722.542C1304.49 722.203 1304.25 721.864 1304 721.525C1303.8 721.24 1303.59 720.955 1303.39 720.67L1302.14 718.882C1300.48 716.552 1299.96 715.183 1300.19 712.309C1301.49 712.157 1302.01 712.096 1302.42 712.285C1302.69 712.412 1302.92 712.653 1303.29 713.055C1304.09 714.056 1304.88 714.904 1305.87 715.72C1308.19 716.12 1309.27 716.106 1311.23 714.796C1311.65 714.153 1311.87 713.816 1312.01 713.448C1312.16 713.043 1312.2 712.6 1312.3 711.669C1312.09 709.733 1311.74 709.127 1310.5 707.639C1304.07 700.133 1300.6 691.586 1298.17 682.089L1297.92 681.041H1296.78C1296.93 675.803 1295.24 670.823 1293.39 665.969C1293.28 665.697 1293.17 665.425 1293.06 665.156C1292.19 662.982 1291.37 660.943 1289.07 659.935C1288.32 659.973 1287.98 659.991 1287.67 660.106C1287.41 660.202 1287.18 660.366 1286.75 660.667C1286.39 661.166 1286.19 661.427 1286.08 661.718C1285.96 662.035 1285.92 662.389 1285.85 663.13L1285.96 664.845L1286.04 666.8C1286.33 673.68 1285.91 680.033 1284.41 686.755L1284.14 687.934C1282.46 695.385 1280.44 703.007 1276.16 709.437L1275.32 710.655C1274.75 711.503 1274.17 712.351 1273.59 713.197C1271.78 715.699 1270.46 717.618 1270.39 720.781L1270.39 720.786C1270.45 722.59 1270.46 722.924 1271.78 724.248C1273.9 724.557 1275.16 724.533 1277.1 723.61C1280.53 721.727 1282.63 721.089 1286.55 721.405C1285.77 725.702 1283.96 728.551 1281.3 731.982C1281.14 732.193 1280.97 732.405 1280.81 732.616L1280.5 733.007L1280.5 733.01C1278.61 735.409 1276.72 737.812 1275.78 740.743L1275.76 740.875L1275.74 741.049C1275.5 742.87 1275.33 744.134 1276.49 745.714C1276.85 745.977 1277.08 746.143 1277.33 746.252C1277.76 746.435 1278.25 746.46 1279.56 746.526C1281.81 746.175 1282.84 745.21 1284.39 743.577C1285.98 741.692 1286.91 741.009 1289.39 740.735C1289.59 741.318 1289.69 741.634 1289.76 741.956C1289.84 742.336 1289.88 742.726 1289.96 743.574L1289.96 743.576V743.577C1288.52 748.233 1285.66 751.622 1282.21 754.937C1281.84 755.281 1281.46 755.623 1281.09 755.965C1278.35 758.491 1275.61 761.013 1273.37 764.021C1273.26 764.192 1273.15 764.36 1273.04 764.526L1273.04 764.532L1273.02 764.553C1271.27 767.216 1269.95 769.227 1270.65 772.571C1271.58 773.831 1272.08 774.229 1273.64 774.503C1277.54 774.467 1279.98 773.96 1282.9 771.186C1285.32 768.634 1286.95 767.219 1290.53 766.886L1290.42 768.13C1289.23 770.136 1288.62 771.158 1287.83 772.008C1287.01 772.892 1285.98 773.591 1283.9 775.015C1283.53 775.283 1283.16 775.551 1282.79 775.819L1282.32 776.155C1279.02 778.536 1275.67 780.954 1272.92 783.942C1270.58 787.08 1269.53 789.69 1270.08 793.606C1270.97 794.201 1271.39 794.485 1271.86 794.65C1272.29 794.802 1272.75 794.855 1273.63 794.957C1277.47 794.572 1279.46 792.901 1281.87 790.053L1281.87 790.052L1281.87 790.049C1282.35 789.414 1282.57 789.115 1282.82 788.836C1283.03 788.589 1283.27 788.358 1283.71 787.921H1285.42C1285.98 789.723 1285.95 790.334 1285.52 792.292C1283.38 795.319 1282.29 796.85 1280.95 798.108C1279.58 799.394 1277.94 800.395 1274.62 802.418C1270.07 805.243 1265.1 808.571 1262.69 813.504C1262.05 815.768 1261.81 817.474 1262.97 819.614L1263.83 820.895C1261.66 820.886 1259.5 820.867 1257.33 820.832C1256.44 820.816 1255.56 820.801 1254.67 820.788C1253.37 820.784 1252.06 820.779 1250.76 820.754L1249.51 820.728C1247.03 820.743 1245.15 820.583 1243.18 818.957L1241.67 817.484L1241.37 817.207C1237.74 813.886 1233.63 810.135 1233.15 804.977C1234.1 804.865 1234.51 804.816 1234.83 804.965C1235.08 805.08 1235.28 805.313 1235.63 805.727C1235.74 805.873 1235.85 806.021 1235.97 806.17C1236.06 806.298 1236.16 806.426 1236.26 806.554L1236.26 806.563L1236.27 806.568L1236.27 806.573C1238.24 809.182 1240.39 812.024 1243.7 812.638C1243.83 812.643 1243.97 812.647 1244.1 812.652C1245.92 812.716 1247.37 812.767 1248.93 811.639C1249.22 811.231 1249.42 810.946 1249.56 810.632C1249.87 809.907 1249.81 809.027 1249.63 806.114C1248.32 803.502 1246.1 801.264 1243.86 799.425C1240.12 796.617 1236.47 793.803 1233.88 789.842C1232.47 787.217 1231.75 785.763 1232.58 782.805C1234.45 782.59 1235.21 782.641 1236.74 783.799L1238.26 785.079C1241.57 787.272 1244.55 787.822 1248.49 787.353C1248.68 787.158 1248.81 787.03 1248.91 786.882C1249.1 786.6 1249.19 786.248 1249.45 785.221C1249.68 782.832 1249.14 781.364 1247.66 779.473C1245.31 776.999 1243.07 774.433 1240.87 771.826L1239.79 770.546C1237.2 767.545 1235.47 765.006 1234.29 761.201C1236.21 761.395 1237.15 761.788 1238.74 762.944C1239.89 763.91 1241.03 764.857 1242.23 765.762C1244.59 767.308 1245.76 767.442 1248.49 766.886C1249.06 766.318 1249.34 766.034 1249.51 765.692C1249.67 765.35 1249.71 764.95 1249.8 764.15C1249.56 761.652 1248.46 760.163 1246.9 758.234C1239.99 750.156 1236.26 740.361 1234.82 729.919C1234.51 727.683 1234.1 725.732 1233.15 723.679C1232.37 723.645 1231.96 723.627 1231.55 723.626C1231.11 723.624 1230.67 723.642 1229.74 723.679L1229.74 723.679L1229.74 723.679C1229.1 724.321 1228.82 724.601 1228.62 724.93C1228.47 725.183 1228.37 725.465 1228.19 725.965L1228.19 725.967L1228.19 725.967C1227.64 727.972 1227.07 729.971 1226.43 731.948L1225.94 733.368L1225.45 734.814C1224.18 738.546 1222.92 742.263 1221.95 746.087L1221.83 746.594C1220.86 750.457 1220.01 753.877 1217.12 756.784C1216.2 757.652 1215.28 758.521 1214.36 759.391C1212.79 761.171 1212.6 762.273 1212.7 764.612C1212.93 764.842 1213.07 764.979 1213.23 765.066C1213.47 765.193 1213.77 765.211 1214.5 765.256L1216.04 765.252C1217.8 765.257 1218.96 765.177 1220.65 764.612C1222.91 763.055 1224.85 762.016 1227.47 761.201C1225.83 767.87 1223.48 771.145 1218.45 775.627C1216.95 776.96 1215.49 778.31 1214.06 779.724L1212.66 781.206C1210.76 783.225 1210.12 784.577 1209.86 787.353L1211.03 788.49C1213.1 789.901 1214.21 789.896 1216.68 789.627C1217.43 789.428 1217.88 789.308 1218.26 789.073C1218.85 788.717 1219.27 788.097 1220.33 786.535C1221.53 784.745 1222.66 783.762 1224.63 782.805L1224.46 784.053C1223.61 789.548 1221.86 792.117 1217.47 795.434C1217.24 795.6 1217.02 795.766 1216.8 795.931L1216.79 795.937L1216.76 795.956L1216.76 795.957C1214.92 797.327 1213.08 798.686 1211.56 800.428C1210.92 802.463 1210.59 803.568 1211.53 805.51C1211.97 805.741 1212.25 805.883 1212.54 805.989C1213.01 806.16 1213.51 806.236 1214.83 806.433C1216.84 806.367 1217.79 805.86 1219.27 804.515C1221.12 802.706 1222.77 801.888 1225.2 800.997L1224.63 802.702C1223.46 805.724 1222.44 808.745 1221.53 811.852L1221.22 812.936C1217.16 810.158 1213.2 807.25 1209.24 804.326L1207.96 803.375C1206.48 802.323 1205.06 801.276 1203.7 800.073C1196.61 793.687 1191.11 791.885 1181.63 792.089C1180.27 792.12 1178.92 792.135 1177.56 792.138C1174.22 792.127 1170.89 792.131 1167.56 792.179C1163.23 792.244 1158.9 792.278 1154.57 792.289C1147.54 792.305 1140.51 792.349 1133.48 792.424C1126.65 792.497 1119.81 792.56 1112.97 792.594L1111.68 792.601C1109.56 792.611 1107.43 792.621 1105.3 792.631C1096.88 792.671 1088.46 792.722 1080.04 792.785L1080.04 792.777L1014.99 790.503L1008.95 791.956L1009.41 789.429C1009.18 785.823 1006.64 783.35 1004.13 781.02L1003.06 780.069L1002.91 779.928L1002.67 779.703L1002.62 779.657C1001.47 778.587 1000.33 777.519 999.088 776.551L999.027 776.521L998.946 776.482L998.873 776.446L998.785 776.404C998.692 776.36 998.603 776.317 998.516 776.276C997.491 775.791 996.861 775.493 996.196 774.346C995.939 773.746 995.809 773.444 995.657 773.155C995.503 772.863 995.325 772.584 994.967 772.023L994.966 772.023C993.597 769.957 992.507 768.279 992.27 765.749C993.18 765.645 993.617 765.595 993.966 765.745C994.289 765.884 994.537 766.194 995.015 766.788L995.165 766.972C997.201 769.465 999.011 771.68 1001.93 773.14C1004.1 773.495 1005.03 773.306 1006.97 772.252C1007.54 771.597 1007.84 771.251 1008.02 770.851C1008.22 770.405 1008.28 769.892 1008.39 768.805C1008.24 767.408 1008.13 766.488 1007.8 765.663C1007.14 764.068 1005.61 762.834 1001.11 759.211C1001.01 759.126 1000.9 759.041 1000.79 758.957L1000.46 758.69C997.681 756.46 995.02 754.325 993.082 751.263L993.079 751.256C991.652 748.616 990.852 747.134 991.702 744.146C993.596 743.929 994.352 744.009 995.927 745.141C996.108 745.299 996.285 745.457 996.461 745.613C998.209 747.167 999.762 748.547 1002.21 748.896C1002.44 748.903 1002.66 748.912 1002.88 748.921C1004.59 748.991 1006 749.049 1007.48 747.932C1007.77 747.544 1007.94 747.315 1008.05 747.062C1008.21 746.699 1008.25 746.286 1008.35 745.283C1008.15 743.322 1007.5 742.393 1006.22 740.926C1003.88 738.374 1001.62 735.756 999.39 733.109L998.306 731.816L998.139 731.62C995.997 729.113 994.19 726.997 993.406 723.679C995.036 723.922 995.852 724.044 996.583 724.362C997.318 724.681 997.966 725.199 999.265 726.237C1001.22 727.784 1002.66 728.753 1005.22 729.027C1006.19 728.904 1006.64 728.847 1007.02 728.65C1007.36 728.476 1007.64 728.193 1008.18 727.659C1008.44 725.373 1008.46 724.118 1007.2 722.162C998.27 712.542 994.976 701.103 993.007 688.447L992.838 687.294H991.702V686.157C990.164 686.157 989.285 686.157 988.661 686.556C987.83 687.088 987.451 688.327 986.565 691.219C986.291 692.153 986.011 693.086 985.727 694.018L985.271 695.511C984.454 698.218 983.62 700.919 982.769 703.616L982.257 705.238C982.053 705.895 981.854 706.561 981.653 707.231C980.323 711.67 978.942 716.28 975.795 719.7L974.747 720.779L973.629 721.974C973.062 722.554 972.794 722.828 972.56 723.129C972.349 723.4 972.166 723.693 971.818 724.248L971.818 724.249C971.91 725.092 971.953 725.48 972.035 725.86C972.104 726.183 972.203 726.5 972.385 727.087L972.386 727.088L972.386 727.09L973.569 727.11L975.12 727.126C976.907 727.149 978.059 727.093 979.772 726.522C982.018 724.973 983.957 723.863 986.589 723.111C985.843 728.464 983.516 732.256 979.417 735.76C977.638 737.267 975.898 738.802 974.208 740.408L973.274 741.303C970.792 743.571 969.714 745.23 969.546 748.694L970.362 749.547C972.482 750.788 974.524 750.641 976.931 750.399C977.364 750.183 977.646 750.042 977.893 749.856C978.35 749.512 978.692 749.013 979.665 747.592C980.998 745.621 982.048 744.882 984.317 744.146C983.12 749.244 982.063 752.703 977.606 755.765L976.108 756.773L975.956 756.879C973.365 758.697 970.946 760.394 970.327 763.617C970.529 764.509 970.616 764.892 970.787 765.233C970.916 765.49 971.092 765.723 971.401 766.131C971.903 766.516 972.149 766.704 972.426 766.816C972.693 766.923 972.99 766.959 973.571 767.028C975.958 766.767 977.161 766.624 978.991 764.967C980.156 763.927 980.742 763.404 981.403 763.005C982.072 762.602 982.817 762.325 984.317 761.77C981.528 771.028 977.633 778.35 970.114 784.51L968.689 785.627L967.273 786.784L965.959 787.815C965.54 788.359 965.304 788.665 965.166 789.01C964.989 789.454 964.974 789.963 964.941 791.126L965.001 793.038C958.362 793.018 951.723 792.989 945.083 792.947L944.277 792.941H944.277H944.276H944.275C941.155 792.92 938.035 792.899 934.915 792.889C931.599 792.88 928.284 792.869 924.968 792.844C923.703 792.834 922.437 792.824 921.172 792.816C919.358 792.815 917.545 792.814 915.731 792.797L914.049 792.78C910.209 792.801 907.267 792.315 903.733 790.753C902.701 790.283 901.644 789.868 900.584 789.467C897.011 788.146 893.448 786.799 889.894 785.427L889.445 785.252C887.868 784.638 886.291 784.024 884.706 783.433C880.779 781.98 876.872 780.525 873.123 778.651C851.761 767.882 831.887 767.697 808.49 768.102C803.413 768.193 798.337 768.233 793.259 768.254C782.331 768.297 771.406 768.411 760.48 768.592C760.483 768.602 760.486 768.612 760.488 768.623L742.29 769.129L674.695 768.592V768.615C666.514 765.431 648.183 767.668 640.04 769.184V769.16H595.159C595.163 769.169 595.167 769.179 595.171 769.188L595.159 769.184L537.788 775.375C537.426 775.337 537.214 775.344 537.211 775.414C534.972 775.319 532.865 775.595 530.66 775.933C529.672 776.089 528.684 776.243 527.695 776.394C526.643 776.556 525.592 776.718 524.541 776.881C513.29 778.63 502.014 780.289 490.697 781.546C486.481 782.011 482.312 782.647 478.127 783.338C473.905 784.034 469.688 784.665 465.437 785.162C460.807 785.691 456.191 786.244 451.587 786.971C435.887 789.478 420.08 791.86 404.208 792.909L402 793.038V793.606C417.041 798.471 431.182 799.438 446.92 799.264C450.206 799.226 453.492 799.211 456.779 799.204C463.004 799.193 469.228 799.16 475.453 799.109C482.582 799.05 489.712 799.014 496.842 798.988C512.192 798.933 527.542 798.843 542.892 798.723C542.91 798.686 542.929 798.649 542.947 798.612L602.828 797.609L603.002 797.534C604.579 797.511 606.574 797.426 609.181 797.316C611.079 797.23 612.973 797.188 614.872 797.16C616.089 797.143 617.306 797.124 618.522 797.102L618.769 797.092C621.575 796.982 624.116 796.882 626.881 797.523L628.677 798.154L630.263 798.622C633.737 799.656 637.214 800.675 640.698 801.673L642.312 802.134C643.13 802.369 643.948 802.602 644.767 802.834L646.556 803.301L704.805 820.35L704.774 820.213C705.294 820.361 705.815 820.508 706.336 820.655C707.813 821.051 709.29 821.446 710.76 821.866L711.054 821.952C712.85 822.476 714.645 822.999 716.445 823.506C717.975 823.934 719.502 824.366 721.027 824.809L720.996 824.898L775.551 840.986C776.411 841.34 777.65 841.686 779.734 842.219L779.796 842.237L779.796 842.235C780.48 842.41 781.255 842.605 782.137 842.827C785.068 843.533 787.979 844.297 790.889 845.084L792.756 845.59C797.554 846.866 802.321 848.21 807.065 849.676C810.394 850.706 813.72 851.727 817.08 852.652C821.172 853.768 825.247 854.932 829.313 856.14C830.147 856.388 830.981 856.637 831.815 856.886L831.817 856.886L831.819 856.887L831.82 856.887L831.822 856.888L831.824 856.888L831.826 856.889L831.827 856.889C835.523 857.992 839.219 859.095 842.927 860.158C844.703 860.647 846.472 861.142 848.225 861.71C856.975 864.563 865.457 865.87 874.597 866.52C880.363 866.922 886.113 867.467 891.866 868.017C893.842 868.207 895.819 868.397 897.797 868.585L898.593 868.66L900.569 868.847C904.397 869.209 908.224 869.571 912.051 869.941C918.624 870.578 925.198 871.171 931.778 871.717C941.346 872.51 950.905 873.351 960.456 874.335C969.377 875.254 978.306 876.046 987.244 876.787C993.488 877.305 999.725 877.849 1005.96 878.512C1006.78 878.6 1007.61 878.692 1008.43 878.784C1011.33 879.107 1014.26 879.433 1017.18 879.589L1066.56 884.801C1067.17 884.883 1067.86 884.955 1068.64 885.021L1072.66 885.444L1072.67 885.278C1074.32 885.364 1076.24 885.448 1078.5 885.548C1081.7 885.684 1084.89 885.904 1088.09 886.159L1089.95 886.309C1093.85 886.598 1097.72 886.915 1101.6 887.411C1105 887.848 1108.39 888.136 1111.81 888.377C1116.87 888.726 1121.91 889.099 1126.95 889.688C1133.77 890.497 1140.59 891.13 1147.44 891.683C1156.16 892.385 1164.88 893.127 1173.59 893.954L1174.98 894.086C1179.61 894.527 1184.25 894.97 1188.88 895.419C1191.07 895.631 1193.25 895.842 1195.44 896.052L1196.71 896.174C1202.86 896.764 1209.01 897.292 1215.17 897.729C1215.56 897.754 1215.94 897.779 1216.32 897.804L1216.32 897.804C1218.77 897.964 1221.22 898.123 1223.65 898.503C1224.33 898.626 1224.71 898.694 1225.1 898.75C1225.58 898.821 1226.07 898.871 1227.17 898.984L1227.18 898.984L1227.18 898.984L1229.36 899.17C1230.6 899.277 1231.84 899.385 1233.08 899.49C1239.22 900.01 1245.35 900.56 1251.47 901.179C1256.07 901.644 1260.66 902.098 1265.26 902.532L1266.68 902.665C1267.27 902.721 1267.86 902.776 1268.44 902.832L1268.94 902.881C1274.37 903.413 1279.78 903.944 1285.24 903.998L1286.58 904C1289.69 904.005 1292.48 903.703 1295.48 902.935L1297.15 902.483L1299.01 901.98C1300.33 901.619 1301.66 901.259 1302.99 900.9C1305.35 900.261 1307.71 899.621 1310.08 898.977C1314.02 897.903 1317.97 896.892 1321.95 895.974C1325.28 895.207 1328.57 894.352 1331.86 893.416C1335.63 892.343 1339.41 891.392 1343.22 890.502C1346.56 889.723 1349.87 888.911 1353.16 887.944C1355.99 887.111 1358.82 886.397 1361.69 885.741C1364.07 885.217 1366.37 884.671 1368.67 883.842C1375.28 882.45 1378.61 881.751 1381.96 881.448C1385.35 881.142 1388.78 881.238 1395.66 881.433L1395.82 881.434L1395.83 881.434H1395.83H1395.83H1395.83H1395.83H1395.83H1395.83H1395.83C1398.94 881.454 1402.04 881.474 1405.15 881.465C1406.42 881.46 1407.69 881.459 1408.96 881.476C1409.75 881.487 1410.55 881.492 1411.34 881.491L1412.45 881.487L1414.46 881.502C1414.67 881.456 1414.86 881.416 1415.03 881.379L1460.61 881.897C1461.97 882.007 1463.43 882.031 1465.04 882.001C1465.79 881.986 1466.54 881.977 1467.29 881.973L1472.61 882.033L1472.6 881.982C1474.37 881.98 1476.14 881.969 1477.91 881.948C1481.25 881.907 1484.58 881.894 1487.92 881.892C1493.53 881.889 1499.13 881.866 1504.74 881.816C1511.96 881.751 1519.19 881.711 1526.42 881.701C1532.7 881.692 1538.98 881.67 1545.26 881.639C1546.55 881.632 1547.84 881.626 1549.13 881.621C1549.85 881.618 1550.56 881.615 1551.27 881.612C1554.47 881.602 1557.67 881.588 1560.87 881.558C1562.06 881.546 1563.24 881.534 1564.43 881.524L1565.12 881.522C1571.05 881.513 1576.54 881.504 1582.21 879.449C1583.18 879.073 1584.17 878.73 1585.17 878.42L1586.42 878.055L1587.7 877.673C1597.01 874.892 1606.31 872.049 1615.6 869.183C1619.99 867.826 1624.4 866.483 1628.81 865.168C1631.97 864.226 1635.12 863.26 1638.26 862.257C1642.53 860.889 1646.82 859.597 1651.14 858.381C1654.53 857.427 1657.89 856.43 1661.22 855.29C1664.09 854.307 1666.97 853.425 1669.89 852.6C1671.23 852.224 1672.63 851.87 1674.05 851.509C1677.15 850.722 1680.38 849.903 1683.39 848.762L1718.62 838.89C1718.68 838.877 1718.74 838.863 1718.8 838.848C1718.91 838.819 1719.02 838.784 1719.14 838.743L1733.18 834.81C1734.81 834.409 1736.43 834.001 1738.06 833.587C1739.56 833.203 1741.06 832.83 1742.57 832.484C1745.4 831.839 1747.95 831.1 1750.36 830.149L1820.58 820.35L1821.48 820.326H1846.71C1846.77 820.105 1846.82 819.885 1846.88 819.666L1886.2 818.644L1886.19 818.621H1920V769.16H1870.01C1870.01 769.285 1870.01 769.382 1870.01 769.468H1840.2C1840.28 769.373 1840.37 769.276 1840.45 769.176L1840.46 769.16H1807.51C1807.58 769.225 1807.64 769.291 1807.71 769.356L1757.52 768.899L1747.95 768.516C1750.19 766.651 1750.92 766.035 1751.29 765.249C1751.47 764.87 1751.56 764.45 1751.7 763.83C1751.47 762.754 1751.32 762.009 1751.02 761.331C1750.34 759.809 1748.91 758.621 1744.28 754.77C1739.17 750.529 1735.14 746.036 1731.95 740.166L1733.09 740.735C1733.51 741.045 1733.93 741.363 1734.34 741.682L1734.35 741.686C1736.9 743.635 1739.47 745.594 1742.78 745.709C1744.4 745.649 1744.86 745.445 1746.01 744.283C1746.85 742.789 1746.9 742.069 1746.73 740.379C1746.04 735.453 1743.97 731.846 1740.13 728.743C1737.26 726.45 1734.52 724.026 1731.95 721.405C1729.94 718.678 1729.41 716.199 1729.68 712.878L1730.89 712.38C1731.78 712.237 1732.18 712.173 1732.5 712.3C1732.76 712.402 1732.97 712.627 1733.35 713.031C1734.18 713.972 1735 714.878 1735.93 715.72C1738.13 716.169 1739.01 715.899 1740.97 714.832C1741.56 714.157 1741.86 713.811 1742.05 713.412C1742.26 712.991 1742.34 712.512 1742.5 711.527C1742.3 710.257 1742.17 709.429 1741.87 708.675C1741.29 707.267 1740.09 706.115 1736.65 702.811L1736.65 702.81C1734.13 700.405 1731.65 697.992 1729.46 695.282C1727.44 692.169 1727 689.848 1727.41 686.157C1727.66 685.857 1727.81 685.688 1727.99 685.582C1728.22 685.446 1728.51 685.414 1729.18 685.34C1730.07 685.396 1730.47 685.421 1730.81 685.584C1731.09 685.719 1731.32 685.949 1731.75 686.371C1732.74 687.332 1733.66 688.219 1734.79 689C1736.03 688.961 1736.58 688.943 1737.12 688.852C1737.56 688.777 1737.99 688.654 1738.77 688.431C1738.98 685.517 1738.96 683.63 1737.33 681.096L1736.5 679.904C1735.46 678.396 1734.42 676.889 1733.38 675.386C1732.89 674.683 1732.38 673.987 1731.87 673.291C1729.41 669.937 1726.94 666.57 1726.84 662.28C1728.14 662.128 1728.67 662.067 1729.07 662.256C1729.35 662.383 1729.57 662.624 1729.94 663.026C1730.75 664.027 1731.53 664.875 1732.52 665.691C1733.59 665.875 1734.1 665.963 1734.61 665.957C1735.09 665.951 1735.57 665.863 1736.5 665.691C1738.21 664.55 1738.67 663.855 1739.13 661.853C1738.77 660.011 1738.49 659.449 1737.39 658.016C1730.12 648.904 1726.92 639.205 1723.75 628.1C1722.84 624.908 1721.91 621.727 1720.89 618.568L1720.45 617.225C1719.97 615.728 1719.46 614.286 1718.89 612.819Z" fill="#C9223D"/>
<path d="M0 764H368.982L651.5 786.5L881.317 835.278L1337.6 853.89L1705.15 786.175L1920 789.343V1080L0 1207.5V764Z" fill="#C9223D"/>
</g>
<defs>
<clipPath id="clip0_7_162">
<rect width="1920" height="1080" fill="white"/>
</clipPath>
</defs>
</svg>
