<svg width="1920" height="1080" viewBox="0 0 1920 1080" fill="none" xmlns="http://www.w3.org/2000/svg">
<path d="M1730.4 864C1730.57 864 1730.73 864 1730.9 864C1730.92 864.875 1730.92 865.75 1730.93 866.625C1730.94 867.356 1730.94 867.356 1730.95 868.102C1730.91 869.665 1730.8 871.18 1730.65 872.735C1730.39 875.877 1730.33 878.992 1730.33 882.145C1730.33 882.716 1730.33 883.287 1730.33 883.875C1730.33 885.079 1730.33 886.284 1730.34 887.488C1730.34 889.284 1730.34 891.079 1730.33 892.875C1730.33 898.789 1730.4 904.695 1730.62 910.605C1730.64 911.133 1730.66 911.66 1730.68 912.204C1730.66 917.247 1730.66 917.247 1731.9 922C1732.1 921.481 1732.1 921.481 1732.31 920.951C1736.18 911.299 1741.76 902.957 1748.41 895C1751.44 895.989 1752.48 897.763 1753.91 900.5C1756.28 905.934 1756.42 913.903 1754.41 919.5C1754.22 920.032 1754.03 920.563 1753.84 921.111C1750.21 930.35 1743.12 936.946 1735.9 943.5C1796.66 943.665 1857.41 943.83 1920 944C1920 988.88 1920 1033.76 1920 1080C1286.07 1080 652.14 1080 -1 1080C-1 1035.12 -1 990.24 -1 944C78.5714 944 158.143 944 240.126 944C240.456 943.34 240.786 942.68 241.126 942C242.045 940.546 243.028 939.136 244.003 937.719C244.287 937.304 244.571 936.89 244.863 936.463C247.28 932.958 249.787 929.523 252.34 926.116C252.758 925.558 252.758 925.558 253.183 924.988C253.427 924.664 253.671 924.339 253.923 924.005C254.69 922.999 254.69 922.999 255.165 921.705C256.134 920.5 256.134 920.5 257.986 920.199C258.772 920.192 259.559 920.199 260.345 920.216C260.99 920.216 260.99 920.216 261.647 920.215C263.069 920.217 264.489 920.236 265.91 920.256C266.895 920.261 267.88 920.264 268.865 920.267C271.458 920.276 274.051 920.301 276.644 920.328C279.29 920.354 281.936 920.365 284.581 920.378C289.773 920.405 294.965 920.449 300.157 920.5C300.157 917.035 300.157 913.57 300.157 910C316.665 910 333.174 910 350.183 910C352.164 917.177 352.164 917.177 354.185 924.5C355.182 927.668 356.182 930.835 357.186 934C358.177 937.63 359.167 941.26 360.188 945C380.163 945 400.139 945 420.72 945C418.243 943.515 415.767 942.03 413.216 940.5C407.123 936.039 403.26 931.682 400.709 924.5C400.509 923.952 400.509 923.952 400.305 923.393C399.375 920.362 399.623 917.131 399.709 914C410.132 916.247 418.54 921.261 425.222 929.5C425.21 928.903 425.199 928.305 425.187 927.689C425.074 919.582 425.074 919.582 426.222 916C426.345 915.542 426.467 915.083 426.594 914.611C428.37 908.507 432.153 902.859 437.228 899C437.558 899 437.888 899 438.229 899C438.626 900.02 439.021 901.041 439.417 902.062C439.637 902.631 439.858 903.199 440.085 903.785C440.298 904.351 440.511 904.917 440.73 905.5C440.987 906.179 440.987 906.179 441.25 906.871C444.566 918.107 443.179 930.185 437.728 940.5C438.014 940.198 438.014 940.198 438.306 939.891C444.078 933.85 450.237 927.966 458.239 925C458.569 925.165 458.899 925.33 459.24 925.5C458.649 926 458.649 926 458.046 926.51C457.786 926.73 457.526 926.949 457.258 927.176C456.674 927.669 456.091 928.163 455.507 928.656C454.02 929.913 452.534 931.171 451.05 932.432C448.056 934.972 445.046 937.489 441.998 939.965C441.044 940.743 440.095 941.526 439.15 942.315C438.446 942.901 438.446 942.901 437.728 943.5C459.489 943.695 481.25 943.845 503.012 943.934C505.59 943.945 508.168 943.956 510.746 943.967C511.259 943.969 511.773 943.971 512.301 943.974C520.575 944.011 528.848 944.077 537.121 944.156C545.631 944.236 554.141 944.283 562.651 944.3C567.889 944.311 573.125 944.348 578.363 944.417C581.97 944.463 585.577 944.476 589.185 944.465C591.257 944.459 593.326 944.467 595.398 944.513C605.166 944.722 612.022 943.435 620.603 938.655C627.877 934.619 633.981 933.808 642.323 933.995C643.675 933.994 645.028 933.989 646.38 933.979C649.624 933.965 652.867 933.995 656.111 934.041C659.915 934.092 663.719 934.097 667.524 934.099C674.33 934.106 681.134 934.152 687.939 934.221C694.49 934.289 701.041 934.331 707.593 934.344C707.996 934.345 708.4 934.346 708.815 934.347C709.628 934.349 710.442 934.35 711.255 934.352C711.656 934.353 712.058 934.353 712.472 934.354C712.872 934.355 713.273 934.356 713.686 934.357C720.002 934.37 726.317 934.402 732.633 934.438C734.521 934.449 736.41 934.459 738.299 934.467C769.566 934.595 769.566 934.595 784.755 937.229C787.08 937.61 789.41 937.853 791.756 938.062C794.534 938.33 797.26 938.708 800.007 939.197C805.197 940.09 810.413 940.69 815.644 941.281C817.026 941.438 818.407 941.595 819.789 941.755C820.637 941.853 821.486 941.95 822.335 942.044C824.379 942.28 826.373 942.589 828.387 943.012C831.781 943.632 835.113 943.637 838.554 943.624C839.264 943.625 839.974 943.626 840.685 943.628C842.631 943.631 844.577 943.628 846.523 943.624C848.642 943.621 850.761 943.624 852.88 943.626C856.593 943.629 860.306 943.628 864.018 943.624C869.539 943.619 875.06 943.62 880.581 943.622C889.301 943.625 898.022 943.625 906.742 943.622C920.587 943.618 934.432 943.622 948.277 943.63C953.605 943.632 958.934 943.635 964.262 943.637C964.854 943.638 965.446 943.638 966.056 943.638C980.146 943.645 994.236 943.649 1008.33 943.652C1009.25 943.652 1009.25 943.652 1010.19 943.652C1024.57 943.655 1038.96 943.657 1053.34 943.655C1053.96 943.655 1054.57 943.655 1055.21 943.655C1058.33 943.654 1061.45 943.654 1064.57 943.653C1065.18 943.653 1065.8 943.653 1066.43 943.653C1067.68 943.653 1068.92 943.653 1070.17 943.652C1090.72 943.649 1111.28 943.655 1131.84 943.67C1134.74 943.672 1137.65 943.674 1140.55 943.676C1141.12 943.676 1141.69 943.676 1142.28 943.677C1151.48 943.683 1160.67 943.679 1169.86 943.672C1179.1 943.666 1188.34 943.668 1197.58 943.679C1203.07 943.685 1208.56 943.685 1214.05 943.674C1217.72 943.668 1221.39 943.67 1225.05 943.68C1227.14 943.686 1229.23 943.687 1231.32 943.677C1239.42 943.643 1246.95 943.71 1254.65 946.5C1255.64 946.75 1256.63 946.988 1257.62 947.203C1258.05 947.295 1258.47 947.387 1258.9 947.482C1259.52 947.615 1259.52 947.615 1260.16 947.75C1264.06 948.601 1267.9 949.57 1271.71 950.782C1275.86 952.027 1279.53 950.704 1283.57 949.625C1284.08 949.492 1284.59 949.358 1285.11 949.221C1288.94 948.207 1292.76 947.16 1296.57 946.088C1296.89 946.001 1297.2 945.914 1297.53 945.825C1298.32 945.6 1299.11 945.365 1299.9 945.121C1303.12 944.165 1306.01 943.782 1309.36 943.801C1309.85 943.797 1310.34 943.794 1310.85 943.791C1312.48 943.781 1314.11 943.783 1315.73 943.784C1316.91 943.779 1318.08 943.774 1319.26 943.768C1322.43 943.755 1325.6 943.75 1328.78 943.747C1331.76 943.743 1334.75 943.732 1337.74 943.721C1343.64 943.699 1349.55 943.684 1355.46 943.673C1361.2 943.663 1366.94 943.649 1372.67 943.631C1373.03 943.63 1373.38 943.629 1373.75 943.628C1375.53 943.622 1377.3 943.617 1379.08 943.611C1393.8 943.565 1408.52 943.529 1423.24 943.5C1423.04 943.062 1422.83 942.625 1422.62 942.174C1422.35 941.595 1422.08 941.016 1421.8 940.42C1421.53 939.848 1421.26 939.276 1420.99 938.687C1418.88 933.924 1418.53 929.684 1418.74 924.5C1423.46 924.243 1427.52 925.541 1431.25 928.5C1434.24 931.367 1436.17 933.676 1436.31 937.938C1436.29 938.453 1436.27 938.969 1436.25 939.5C1437.04 939.113 1437.04 939.113 1437.84 938.719C1439 938.239 1439.83 937.993 1441.09 937.875C1443.04 938.926 1443.58 940.968 1444.25 943C1444.25 943.33 1444.25 943.66 1444.25 944C1466.87 943.835 1489.49 943.67 1512.79 943.5C1514.44 940.365 1516.09 937.23 1517.79 934C1520.07 929.969 1520.07 929.969 1521.04 928.295C1521.48 927.541 1521.9 926.779 1522.29 926C1522.85 926.022 1523.41 926.043 1523.98 926.065C1537.55 926.908 1537.55 926.908 1549.27 921.096C1549.87 920.515 1550.46 919.92 1551.03 919.305C1551.41 918.906 1551.41 918.906 1551.81 918.5C1552.05 918.241 1552.3 917.982 1552.55 917.715C1554.52 916.595 1556.47 916.762 1558.69 916.75C1559.19 916.742 1559.68 916.734 1560.2 916.725C1561.84 916.701 1563.48 916.688 1565.12 916.678C1565.68 916.673 1566.25 916.668 1566.83 916.663C1569.81 916.638 1572.79 916.621 1575.78 916.612C1578.84 916.601 1581.91 916.56 1584.97 916.512C1587.34 916.48 1589.71 916.471 1592.08 916.467C1593.21 916.462 1594.34 916.448 1595.47 916.426C1602.98 916.286 1607.56 917.102 1613.34 922C1614.12 922.534 1614.9 923.059 1615.7 923.564C1616.01 923.772 1616.32 923.979 1616.64 924.192C1617.26 924.603 1617.88 925.013 1618.5 925.423C1620.79 926.944 1620.79 926.944 1621.34 927.5C1622.64 927.58 1623.93 927.63 1625.22 927.658C1625.61 927.669 1626 927.679 1626.4 927.69C1627.64 927.722 1628.89 927.752 1630.13 927.781C1630.97 927.803 1631.81 927.825 1632.65 927.847C1634.72 927.9 1636.79 927.951 1638.85 928C1638.95 928.269 1639.04 928.538 1639.14 928.815C1640.82 933.687 1642.52 938.544 1644.43 943.332C1644.86 944.5 1644.86 944.5 1644.86 945.5C1670.78 945.335 1696.69 945.17 1723.4 945C1721.42 943.515 1719.44 942.03 1717.39 940.5C1709.07 933.971 1704.56 926.744 1701.89 916.5C1701.89 915.84 1701.89 915.18 1701.89 914.5C1711.95 914.778 1720.14 917.781 1727.4 925C1727.24 923.562 1727.09 922.125 1726.93 920.688C1726.89 920.283 1726.84 919.879 1726.8 919.463C1726.76 919.067 1726.71 918.67 1726.67 918.262C1726.63 917.9 1726.59 917.539 1726.55 917.167C1726.44 916.337 1726.3 915.511 1726.14 914.69C1725.81 912.356 1725.8 910.05 1725.78 907.695C1725.77 906.921 1725.77 906.921 1725.77 906.132C1725.75 904.463 1725.75 902.794 1725.74 901.125C1725.74 900.276 1725.74 900.276 1725.74 899.41C1725.73 891.073 1726.13 883.169 1727.9 875C1728.05 874.23 1728.19 873.459 1728.33 872.688C1728.88 869.743 1729.56 866.873 1730.4 864Z" fill="black"/>
</svg>
