<svg width="1920" height="1080" viewBox="0 0 1920 1080" fill="none" xmlns="http://www.w3.org/2000/svg">
<path d="M1920.18 1080H-1V533.024C1.0033 533.692 3.01514 534.339 4.98806 535.092C5.8695 535.437 6.75523 535.772 7.64398 536.098C9.77264 536.767 12.4359 537.563 14.5095 536.526C15.9626 535.502 105.353 484.618 106.891 483.726L108.323 482.929L109.83 482.089C113.955 479.8 118.072 477.5 122.168 475.161L123.451 474.425C125.161 473.447 126.871 472.467 128.58 471.486C129.858 470.753 131.136 470.02 132.414 469.288L133.708 468.547C137.075 466.619 140.455 464.714 143.843 462.822C147.532 460.765 151.224 458.716 154.858 456.564C158.227 454.561 161.613 452.593 165.021 450.658L166.728 449.692L168.373 448.751L169.925 447.876C170.803 447.378 171.696 446.906 172.607 446.471C173.97 446.109 174.731 445.828 176.056 446.328C178.121 447.644 180.234 448.801 182.43 449.878C185.119 451.191 187.776 452.535 190.369 454.03C192.757 455.419 195.14 456.763 197.622 457.978C199.802 459.045 201.903 460.198 204.001 461.417C206.5 462.872 209.034 464.212 211.631 465.482C214.117 466.674 216.515 467.977 218.905 469.354C222.014 471.147 225.161 472.855 228.335 474.531C230.064 475.442 231.792 476.356 233.519 477.271L234.586 477.836C237.513 479.386 240.432 480.948 243.343 482.527L244.776 483.306C247.034 484.529 249.292 485.75 251.545 486.983C253.138 487.855 254.732 488.727 256.328 489.594C256.959 489.936 257.591 490.279 258.222 490.623L260.03 491.619L261.728 492.538C263.227 493.358 263.227 493.358 264.663 494L264.728 494.016C266.681 494.494 267.346 494.657 269.205 493.746C270.316 493.036 271.419 492.361 272.575 491.724L274.161 490.877L275.83 489.98C281.422 486.98 287.086 484.081 292.524 480.807C296.451 478.44 300.457 476.242 304.5 474.082C308.204 472.103 311.894 470.108 315.544 468.033C320.719 465.081 325.932 462.213 331.184 459.401C334.949 457.386 338.762 455.434 342.431 453.248C345.847 451.162 349.336 449.221 352.839 447.286C353.998 446.646 355.157 446.005 356.314 445.361C360.378 443.09 364.452 440.84 368.549 438.63C372.634 436.428 376.706 434.209 380.742 431.919C385.269 429.342 389.816 426.825 394.431 424.406C396.349 423.403 398.26 422.386 400.157 421.34L401.748 420.455C407.6 417.234 413.269 413.914 418.672 409.98C419.731 409.202 420.79 408.425 421.855 407.656L422.092 407.485C423.517 406.46 424.942 405.436 426.364 404.407C427.87 403.315 429.376 402.224 430.885 401.136C435.114 398.092 439.332 395.034 443.523 391.937C447.716 388.84 451.935 385.78 456.166 382.734C461.141 379.154 466.11 375.567 471.04 371.925C475.233 368.827 479.452 365.767 483.683 362.722C488.658 359.141 493.627 355.555 498.557 351.913C502.381 349.088 506.224 346.293 510.082 343.515C512.329 341.897 514.574 340.276 516.818 338.655C518.691 337.301 520.564 335.948 522.439 334.598C523.184 334.061 523.929 333.524 524.674 332.988L525.793 332.182C527.742 330.78 529.688 329.374 531.614 327.94L532.936 326.95C533.796 326.308 534.657 325.665 535.517 325.021L536.735 324.098L537.874 323.247C538.887 322.482 539.694 321.942 540.893 321.528C541.876 321.296 541.876 321.296 542.824 321.9L543.929 322.739L545.254 323.718C546.785 324.858 548.335 325.964 549.896 327.062L550.996 327.835L551.282 328.038C553.216 329.406 555.151 330.774 557.107 332.111C559.222 333.558 561.325 335.003 563.359 336.563C566.485 339.013 569.657 341.335 572.947 343.564C576.892 346.236 580.772 348.984 584.626 351.786C586.503 353.153 588.382 354.517 590.263 355.878L591.395 356.697C594.29 358.79 597.198 360.864 600.119 362.919C604.185 365.78 608.216 368.686 612.242 371.602C617.419 375.355 622.603 379.097 627.831 382.779C632.294 385.921 636.734 389.096 641.156 392.296C644.474 394.698 647.8 397.086 651.151 399.442C653.703 401.236 656.244 403.044 658.771 404.873C661.706 407 664.644 409.122 667.608 411.209C672.408 414.584 677.169 418.011 681.92 421.455C686.583 424.841 691.259 428.203 695.991 431.493C699.19 433.711 702.32 435.995 705.403 438.372C706.562 439.29 707.71 440.135 708.936 440.967C710.479 441.483 711.225 441.54 712.779 441.015L714.233 440.287L715.898 439.468C717.015 438.902 718.134 438.341 719.255 437.784L720.955 436.942C723.078 435.881 725.206 434.835 727.35 433.818C735.152 430.118 742.883 426.284 750.603 422.419C752.544 421.447 754.485 420.476 756.427 419.506C757.971 418.735 759.515 417.964 761.058 417.192L763.29 416.075L765.353 415.045C766.023 414.709 766.693 414.373 767.363 414.038L767.451 413.995C769.181 413.151 770.895 412.314 772.526 411.289C778.782 407.227 783.851 406.355 791.286 406.496C793.587 406.566 795.885 406.627 798.187 406.646C803.142 406.683 808.096 406.766 813.051 406.877C816.954 406.967 820.856 407.05 824.76 407.078C826.108 407.085 827.457 407.092 828.805 407.113C832.933 407.252 837.072 407.492 841.17 406.859C844.247 405.917 845.899 403.503 847.468 400.832C848.164 399.549 848.823 398.558 849.739 397.389C851.338 395.543 852.869 393.646 854.368 391.718C855.303 390.511 856.247 389.311 857.199 388.117C857.645 387.558 858.088 386.997 858.528 386.434C861.759 381.93 865.184 380.229 870.241 378.298C871.557 377.805 872.841 377.295 874.13 376.731C875.899 375.902 877.671 375.086 879.465 374.314C883.844 372.455 888.196 370.539 892.546 368.612L892.781 368.508C899.306 365.615 905.83 362.723 912.38 359.889C918.3 357.334 924.212 354.763 930.116 352.171L931.417 351.6C936.438 349.397 941.456 347.188 946.468 344.964C947.449 344.528 948.43 344.093 949.412 343.658L949.828 343.473C951.58 342.696 953.331 341.92 955.081 341.14L955.345 341.023C959.282 339.268 963.209 337.518 967.242 335.991C968.88 335.376 970.485 334.757 972.053 333.98C974.605 332.639 977.152 331.338 979.822 330.243C982.167 329.29 984.494 328.305 986.816 327.296L988.233 326.678C989.771 326.009 991.308 325.338 992.845 324.667C993.76 324.267 994.676 323.868 995.591 323.468C997.349 322.701 999.107 321.934 1000.87 321.166L1002.99 320.237L1003.15 320.169C1006.66 318.635 1010.18 317.101 1013.67 315.508C1015.02 314.888 1016.38 314.284 1017.75 313.704C1020.3 312.669 1022.82 311.583 1025.32 310.418C1026.94 309.66 1028.57 308.913 1030.22 308.2C1033.93 306.625 1037.62 305.017 1041.31 303.385C1047.85 300.486 1054.41 297.606 1060.97 294.749C1068.22 291.595 1075.46 288.428 1082.7 285.247C1088.83 282.551 1094.97 279.866 1101.11 277.211C1103.77 276.068 1106.42 274.936 1109.05 273.746C1112.22 272.292 1115.42 270.889 1118.62 269.509L1119.89 268.966C1124.02 267.188 1128.16 265.411 1132.23 263.483C1134.71 262.306 1137.21 261.181 1139.73 260.088L1141.14 259.481C1142.42 258.926 1143.7 258.377 1144.99 257.85L1146.21 257.355C1146.97 257.016 1147.74 256.69 1148.51 256.377C1150.6 255.707 1151.87 255.971 1153.86 256.845L1154.9 257.355C1155.96 257.832 1157.02 258.313 1158.07 258.81C1162.63 260.979 1167.26 262.935 1171.93 264.846C1172.66 265.145 1173.39 265.443 1174.12 265.742C1175.57 266.336 1177.01 266.93 1178.46 267.523C1184.88 270.151 1191.28 272.795 1197.68 275.463L1198.8 275.929C1204.61 278.349 1210.41 280.777 1216.22 283.214C1221.93 285.612 1227.64 287.989 1233.36 290.353C1237.9 292.225 1242.43 294.104 1246.95 296.007L1248.48 296.65C1254.1 299.02 1259.73 301.39 1265.4 303.633C1267.28 304.364 1269.15 305.097 1270.98 305.927C1274.44 307.521 1277.93 309.003 1281.45 310.449C1282.55 310.901 1283.66 311.354 1284.76 311.808C1288.63 313.399 1292.5 314.976 1296.38 316.518C1298.12 317.204 1299.84 317.909 1301.54 318.681C1304.68 320.157 1307.82 321.533 1311.05 322.804C1312.5 323.376 1313.95 323.953 1315.39 324.552C1317.4 325.398 1319.4 326.24 1321.44 327.02C1324.05 328.008 1326.63 329.013 1329.16 330.181C1330.37 330.754 1331.59 331.307 1332.83 331.811C1336.36 333.21 1339.86 334.667 1343.36 336.139L1343.56 336.222C1347.51 337.886 1351.46 339.55 1355.43 341.18C1360.05 343.079 1364.66 345.01 1369.27 346.954L1370.78 347.593C1375.26 349.482 1379.74 351.371 1384.22 353.236C1385.12 353.608 1386.01 353.981 1386.91 354.353L1389.82 355.562C1390.94 356.029 1392.06 356.495 1393.18 356.962L1395.86 358.073C1400.69 360.082 1405.52 362.09 1410.38 364.02L1410.79 364.182C1413.65 365.316 1416.5 366.447 1419.3 367.735C1422.21 369.095 1425.18 370.317 1428.16 371.54L1428.9 371.844L1430.03 372.311L1432.82 373.457C1435.02 374.366 1437.23 375.278 1439.43 376.197C1441.46 377.042 1443.49 377.884 1445.51 378.722C1451.86 381.346 1458.21 383.977 1464.55 386.62L1465.68 387.091C1469.56 388.705 1473.43 390.319 1477.3 391.938C1479.29 392.767 1481.27 393.595 1483.25 394.423L1484.41 394.908C1489.16 396.891 1493.92 398.863 1498.7 400.755C1500.54 401.47 1502.36 402.189 1504.15 402.998C1507.64 404.603 1511.16 406.103 1514.71 407.562C1515.34 407.818 1515.96 408.075 1516.59 408.333L1519.37 409.479C1522.01 410.568 1524.66 411.663 1527.3 412.765C1528.19 413.136 1529.08 413.507 1529.97 413.878L1532.11 414.772L1534.41 415.729L1550.14 422.284L1552.96 423.457C1556.9 425.104 1560.85 426.738 1564.8 428.364C1570.53 430.722 1576.27 433.083 1582 435.45L1583.85 436.215C1586.62 437.357 1589.39 438.5 1592.14 439.677C1597.2 441.852 1602.28 443.976 1607.36 446.087L1609.75 447.082L1610.95 447.577C1613.11 448.477 1615.28 449.379 1617.44 450.298L1619.21 451.056L1621.12 451.865L1622.4 452.412C1624.69 453.402 1626.93 454.309 1629.32 455.005C1631.35 454.97 1632.29 454.431 1633.95 453.319L1635.01 452.568C1635.77 452.051 1636.53 451.533 1637.29 451.015C1638.61 450.096 1639.93 449.181 1641.27 448.29L1642.98 447.159C1644.73 445.983 1646.49 444.81 1648.26 443.656C1655.63 438.873 1662.94 434.009 1670.21 429.085C1681.26 421.609 1692.39 414.262 1703.55 406.947L1703.87 407.124C1705.71 408.137 1707.55 409.149 1709.35 410.218L1710.4 410.869L1711.62 411.624L1712.9 412.419C1716.6 414.719 1720.29 417.046 1723.97 419.392C1727.85 421.873 1731.75 424.331 1735.66 426.771C1738.84 428.753 1742.02 430.737 1745.18 432.739C1749.14 435.245 1753.11 437.736 1757.08 440.217C1759.94 442.001 1762.8 443.785 1765.64 445.587C1769.21 447.845 1772.77 450.1 1776.36 452.323L1777.56 453.069L1778.7 453.781L1779.76 454.435C1781.02 455.213 1782.12 455.791 1783.6 455.977L1783.6 455.975C1790.89 451.194 1790.89 451.193 1798.24 446.504C1804.09 442.765 1809.93 439.017 1815.74 435.23C1820.81 431.931 1825.88 428.649 1830.97 425.395C1835.2 422.689 1839.43 419.974 1843.65 417.24C1845.37 416.123 1847.09 415.008 1848.82 413.894C1850.95 412.511 1853.09 411.128 1855.23 409.745L1857.41 408.335L1858.49 407.634C1860.43 406.374 1862.38 405.114 1864.33 403.863C1867.43 401.875 1870.52 399.875 1873.6 397.86C1878.25 394.82 1882.92 391.801 1887.6 388.81C1892.87 385.443 1898.13 382.063 1903.37 378.646L1904.63 377.823L1907.2 376.146C1908.86 375.065 1910.51 373.994 1912.18 372.926L1920.18 367.923V1080Z" fill="#FC7D48"/>
<path d="M1159.59 259.121C1157.15 257.983 1154.83 256.995 1152.21 256.354L1151.71 256.854C1153.25 258.538 1154.98 259.847 1156.81 261.191L1158.03 262.076C1161.25 264.435 1164.48 266.777 1167.72 269.112C1171.61 271.914 1175.48 274.75 1179.33 277.599C1181.32 279.067 1183.31 280.532 1185.29 281.996L1187.67 283.746L1201.93 294.252L1203.12 295.128L1205.49 296.879L1206.02 297.265C1207.83 298.598 1209.63 299.93 1211.44 301.265C1215.33 304.137 1219.22 307.007 1223.14 309.833C1229.24 314.227 1235.31 318.665 1241.32 323.189C1244.41 325.522 1247.53 327.822 1250.68 330.087C1255 333.198 1259.29 336.353 1263.58 339.52C1268.29 343 1272.99 346.487 1277.75 349.908C1280.95 352.214 1284.14 354.537 1287.29 356.916C1290.1 359.037 1292.94 361.116 1295.8 363.17C1298.32 364.984 1300.84 366.812 1303.32 368.683C1306.43 371.028 1309.55 373.342 1312.71 375.615C1316.64 378.437 1320.53 381.294 1324.42 384.165C1326.8 385.924 1329.19 387.68 1331.57 389.436L1331.98 389.736C1333.83 391.097 1335.67 392.458 1337.52 393.822C1341.77 396.966 1346.04 400.102 1350.33 403.194C1354.21 405.988 1358.06 408.815 1361.91 411.654C1364.07 413.25 1366.23 414.842 1368.39 416.434L1370.95 418.321L1373.12 419.923L1373.85 420.455C1372.33 420.484 1370.86 420.457 1369.35 420.289L1367.75 420.048C1364.94 419.631 1362.14 419.184 1359.34 418.735C1356.34 418.253 1353.34 417.812 1350.33 417.415C1346.51 416.912 1342.71 416.363 1338.92 415.685L1338.85 415.673C1335.37 415.046 1331.92 414.422 1328.4 414.058C1325.3 413.752 1322.25 413.377 1319.18 412.821C1313.55 411.788 1307.91 410.951 1302.24 410.172C1295.19 409.207 1288.16 408.223 1281.13 407.103C1276.62 406.384 1272.12 405.697 1267.59 405.102C1265.59 404.847 1263.59 404.605 1261.61 404.216C1258.65 403.598 1255.7 403.127 1252.71 402.721C1251.45 402.553 1250.19 402.383 1248.93 402.212L1246.98 401.947C1240.8 401.11 1234.62 400.302 1228.47 399.192C1221.6 397.948 1214.73 396.81 1207.74 396.44C1208.74 397.441 1208.74 397.441 1209.93 398.132L1211.43 398.934C1212.3 399.398 1213.17 399.862 1214.03 400.323C1214.66 400.655 1215.28 400.987 1215.91 401.319C1221.08 404.081 1226.29 406.795 1231.5 409.488C1234.3 410.935 1237.1 412.387 1239.89 413.859C1243.51 415.768 1247.13 417.661 1250.75 419.54C1255.23 421.856 1259.7 424.171 1264.15 426.521C1267.12 428.085 1270.08 429.641 1273.05 431.19C1276.65 433.065 1280.25 434.941 1283.84 436.834C1287.9 438.977 1291.97 441.103 1296.05 443.219C1299.34 444.93 1302.64 446.644 1305.92 448.376C1310.45 450.766 1314.99 453.134 1319.54 455.495C1326.15 458.933 1332.77 462.371 1339.37 465.848C1343.92 468.25 1348.49 470.631 1353.06 473.005L1353.75 473.366C1360.1 476.666 1366.46 479.967 1372.79 483.309C1377.21 485.645 1381.66 487.951 1386.1 490.248C1390.18 492.35 1394.25 494.456 1398.3 496.595C1401.73 498.409 1405.17 500.21 1408.62 502.005C1411.69 503.606 1414.76 505.209 1417.82 506.827C1421.96 509.011 1426.11 511.175 1430.26 513.327L1431.22 513.825C1434.72 515.634 1438.21 517.442 1441.74 519.183C1444.91 520.744 1448.02 522.396 1451.11 524.112C1455.99 526.823 1460.93 529.401 1465.89 531.965C1468.09 533.102 1470.29 534.247 1472.47 535.403C1476.65 537.611 1480.84 539.794 1485.04 541.967C1488.86 543.947 1492.68 545.927 1496.5 547.916L1497.92 548.659C1500.09 549.79 1502.26 550.922 1504.43 552.065C1508.53 554.234 1512.63 556.394 1516.76 558.497L1518.04 559.146C1519.73 560.007 1521.43 560.869 1523.12 561.729C1524.43 562.387 1525.73 563.046 1527.03 563.708L1528.26 564.336C1530.7 565.557 1532.88 566.743 1534.94 568.546C1533.46 569.61 1531.97 570.674 1530.48 571.728L1529.95 572.101C1526.66 574.409 1523.37 576.716 1520.15 579.106C1517.07 581.388 1513.94 583.591 1510.77 585.744C1507.63 587.876 1504.53 590.046 1501.46 592.279C1498.72 594.272 1495.96 596.242 1493.19 598.181C1489.92 600.455 1486.67 602.735 1483.44 605.066C1478.39 608.727 1473.32 612.342 1468.2 615.913C1463.72 619.045 1459.23 622.181 1454.8 625.393C1449.86 628.976 1444.9 632.538 1439.86 635.974C1436.85 638.023 1433.86 640.082 1430.96 642.281C1427.76 644.715 1424.52 647.058 1421.19 649.314C1418.41 651.196 1415.65 653.097 1412.93 655.063C1407.61 658.932 1402.27 662.787 1396.83 666.493C1393.82 668.542 1390.83 670.601 1387.93 672.799C1384.73 675.234 1381.49 677.577 1378.16 679.833C1375.03 681.954 1371.93 684.112 1368.87 686.337C1366.13 688.33 1363.38 690.3 1360.61 692.238C1356.96 694.777 1353.33 697.332 1349.74 699.939C1346.82 702.054 1343.9 704.151 1340.95 706.224C1337.23 708.844 1333.52 711.484 1329.82 714.135L1330.82 714.636C1331.71 714.187 1332.6 713.729 1333.47 713.232C1337.05 711.141 1340.69 709.162 1344.37 707.258C1348.43 705.166 1352.49 703.062 1356.49 700.865C1360.31 698.766 1364.13 696.698 1368 694.696C1372.48 692.383 1376.94 690.048 1381.35 687.619C1384.72 685.767 1388.1 683.955 1391.51 682.188C1396.01 679.865 1400.49 677.518 1404.93 675.08C1408.16 673.304 1411.4 671.559 1414.67 669.859C1418.45 667.899 1422.23 665.928 1425.96 663.88C1430.33 661.481 1434.71 659.136 1439.14 656.85C1443.08 654.812 1447 652.737 1450.89 650.596C1454.26 648.744 1457.64 646.933 1461.06 645.165C1465.08 643.088 1469.09 641.005 1473.06 638.829C1476.93 636.701 1480.81 634.598 1484.73 632.555L1486.35 631.71C1488.79 630.436 1491.22 629.149 1493.71 627.973C1496 626.918 1498.26 625.876 1500.42 624.58L1920.18 932.77V367.923C1917.68 368.923 1917.68 368.923 1916.61 369.546L1915.55 370.25L1914.34 371.043C1913.46 371.624 1912.58 372.203 1911.7 372.78L1910.33 373.68C1908.41 374.941 1906.49 376.197 1904.57 377.444L1903.58 378.085C1900.63 379.996 1897.67 381.892 1894.7 383.785C1890.09 386.732 1885.49 389.691 1880.91 392.688C1876.86 395.338 1872.79 397.962 1868.71 400.568C1863.42 403.951 1858.13 407.345 1852.87 410.781C1847.35 414.384 1841.84 417.974 1836.29 421.518C1831.65 424.476 1827.04 427.457 1822.43 430.457C1816.99 434.002 1811.53 437.521 1806.05 440.999C1803.22 442.791 1800.4 444.591 1797.62 446.461C1794.94 448.275 1792.23 450.043 1789.48 451.753L1788.26 452.506L1787.09 453.23L1786 453.899C1784.72 454.686 1783.6 455.291 1782.1 455.476C1781.23 454.898 1780.36 454.325 1779.47 453.769L1778.16 452.947L1776.68 452.025C1772.77 449.585 1768.85 447.144 1764.96 444.679C1761.52 442.504 1758.08 440.337 1754.63 438.182C1749.7 435.104 1744.77 432.016 1739.86 428.907C1737.91 427.674 1735.96 426.442 1734.01 425.211L1731.63 423.706L1726.88 420.705L1725.69 419.955L1723.31 418.454L1722.93 418.216C1721.06 417.031 1719.18 415.847 1717.3 414.653L1716.04 413.845L1713.55 412.262C1710.3 410.17 1706.97 408.269 1703.55 406.446C1696.21 411.184 1688.94 416.017 1681.7 420.911C1672.69 427.011 1663.64 433.044 1654.54 439.019C1650.78 441.492 1647.01 443.964 1643.26 446.458L1642.08 447.245C1639.58 448.905 1637.11 450.588 1634.66 452.318C1633.38 453.282 1633.38 453.282 1632 453.975C1629.05 454.914 1627.15 454.107 1624.43 452.919C1623.34 452.422 1622.25 451.933 1621.16 451.451L1619.37 450.669C1617 449.62 1614.61 448.599 1612.21 447.612L1611.09 447.151C1609.58 446.537 1608.08 445.925 1606.58 445.314C1603.29 443.976 1599.99 442.658 1596.76 441.18C1594.15 439.954 1591.56 438.775 1588.86 437.753C1585.2 436.373 1581.59 434.868 1577.97 433.354C1577.19 433.026 1576.41 432.699 1575.62 432.372C1574.03 431.705 1572.43 431.038 1570.84 430.371C1567.95 429.161 1565.05 427.953 1562.16 426.746L1560.65 426.115L1560.04 425.861C1558.13 425.062 1556.22 424.262 1554.3 423.493C1551.77 422.488 1549.25 421.46 1546.74 420.407L1545.44 419.861C1544.01 419.263 1542.58 418.665 1541.16 418.067L1540.73 417.888C1538.94 417.135 1537.14 416.381 1535.35 415.628L1533.96 415.045C1531.41 413.975 1528.87 412.916 1526.3 411.892C1524.07 411.001 1521.84 410.092 1519.61 409.172L1518.09 408.541L1517.58 408.329C1514.96 407.241 1512.33 406.153 1509.76 404.947L1508.93 404.548L1507.93 404.07C1505.88 403.089 1503.84 402.193 1501.7 401.41C1497.46 399.873 1493.3 398.184 1489.15 396.438C1488.39 396.12 1487.64 395.802 1486.88 395.485C1485.27 394.812 1483.66 394.139 1482.05 393.464C1479.68 392.468 1477.3 391.474 1474.92 390.484L1473.78 390.008L1471.5 389.061C1464.64 386.207 1457.79 383.343 1450.94 380.467L1450.85 380.429C1445.86 378.333 1440.86 376.237 1435.86 374.183L1433.68 373.291C1432.57 372.836 1431.46 372.38 1430.35 371.925C1426.5 370.35 1422.64 368.795 1418.86 367.059C1417 366.203 1415.14 365.405 1413.24 364.659C1404.52 361.173 1404.52 361.173 1395.86 357.544L1393.55 356.578L1392.43 356.111C1390.61 355.348 1388.78 354.586 1386.95 353.848C1384.61 352.925 1382.3 351.967 1379.99 350.975C1376.36 349.412 1372.72 347.908 1369.06 346.409C1366.08 345.191 1363.09 343.985 1360.17 342.639C1357.5 341.386 1354.85 340.188 1352.09 339.141C1349.32 338.098 1346.58 336.982 1343.85 335.826L1342.2 335.121C1339.65 334.04 1337.09 332.969 1334.56 331.838C1332.49 330.903 1330.42 330.036 1328.28 329.258C1326.23 328.517 1324.16 327.8 1322.19 326.866C1319.99 325.69 1317.75 324.783 1315.4 323.927C1313.11 323.105 1310.87 322.212 1308.66 321.191C1306.33 320.121 1303.99 319.14 1301.61 318.199C1296.61 316.234 1291.64 314.228 1286.67 312.184L1285.73 311.794C1282.66 310.528 1279.58 309.278 1276.57 307.868C1273.25 306.275 1269.95 304.849 1266.5 303.57C1261.61 301.76 1256.84 299.718 1252.07 297.617C1248.97 296.249 1245.87 294.898 1242.7 293.697C1237.21 291.544 1237.21 291.544 1231.78 289.259C1229.41 288.261 1227.03 287.264 1224.66 286.268L1223.21 285.661C1219.43 284.072 1215.64 282.492 1211.85 280.925C1205.57 278.334 1199.3 275.721 1193.03 273.089C1190.24 271.915 1187.44 270.741 1184.64 269.575C1183.19 268.968 1181.73 268.362 1180.27 267.754L1177.36 266.54L1175.88 265.922C1172.28 264.42 1168.67 262.927 1165.06 261.451C1163.23 260.701 1161.4 259.94 1159.59 259.121Z" fill="#FE9D49"/>
<path d="M541.833 321.394C544.309 321.623 545.9 322.895 547.806 324.365C548.479 324.87 549.152 325.376 549.825 325.881C550.163 326.136 550.501 326.392 550.849 326.655C552.309 327.75 553.792 328.811 555.279 329.868C555.563 330.071 555.848 330.273 556.141 330.482C558.058 331.847 559.981 333.203 561.905 334.557C562.257 334.805 562.609 335.053 562.971 335.309C563.327 335.559 563.682 335.809 564.048 336.067C567.045 338.181 570.017 340.327 572.987 342.479C575.514 344.308 578.055 346.116 580.607 347.91C585.438 351.308 590.219 354.774 595.001 358.239C599.375 361.408 603.76 364.556 608.177 367.663C611.141 369.75 614.079 371.872 617.014 373.999C619.542 375.827 622.083 377.635 624.634 379.43C629.465 382.828 634.246 386.293 639.028 389.759C643.402 392.927 647.787 396.076 652.204 399.182C655.168 401.269 658.106 403.391 661.042 405.518C663.569 407.347 666.11 409.155 668.661 410.949C671.978 413.281 675.269 415.647 678.552 418.026C681.079 419.854 683.62 421.662 686.172 423.457C691.033 426.876 695.844 430.362 700.655 433.85C701.872 434.733 703.09 435.614 704.308 436.496C704.678 436.764 705.047 437.032 705.428 437.309C707.405 438.74 709.398 440.129 711.438 441.468C711.933 441.798 712.428 442.128 712.939 442.468C712.665 442.571 712.39 442.673 712.108 442.779C708.465 444.184 704.975 445.863 701.475 447.584C699.653 448.479 697.827 449.368 696.001 450.256C695.623 450.44 695.246 450.624 694.857 450.813C688.405 453.948 681.903 456.981 675.404 460.017C674.449 460.463 673.495 460.91 672.541 461.357C667.229 463.843 661.913 466.318 656.558 468.709C656.236 468.853 655.914 468.997 655.582 469.145C654.042 469.833 652.501 470.517 650.959 471.198C647.407 472.776 643.931 474.452 640.479 476.234C638.948 476.964 637.544 477.602 635.891 477.99C634.973 477.602 634.973 477.602 634.203 476.876C633.91 476.61 633.617 476.344 633.315 476.071C633.009 475.775 632.704 475.48 632.389 475.176C631.725 474.567 631.061 473.959 630.396 473.351C630.061 473.039 629.727 472.727 629.382 472.405C627.876 471.015 626.32 469.687 624.759 468.359C624.469 468.11 624.178 467.861 623.878 467.604C622.159 466.132 620.42 464.688 618.662 463.262C615.816 460.951 613.054 458.548 610.29 456.141C607.622 453.818 604.932 451.521 602.244 449.221C601.351 448.456 600.459 447.688 599.568 446.92C596.9 444.623 594.225 442.34 591.489 440.123C589.298 438.345 587.204 436.482 585.118 434.583C583.405 433.058 581.625 431.623 579.843 430.18C578.192 428.826 576.567 427.444 574.948 426.052C574.654 425.8 574.361 425.548 574.058 425.288C572.853 424.251 571.649 423.213 570.445 422.175C566.116 418.445 561.755 414.764 557.28 411.207C556.775 410.802 556.269 410.397 555.748 409.98C555.057 409.431 555.057 409.431 554.351 408.872C554.018 408.566 553.684 408.261 553.341 407.947C553.341 407.617 553.341 407.287 553.341 406.947C563.742 406.781 574.143 406.616 584.86 406.446C580.766 397.837 580.766 397.837 576.402 389.434C574.79 386.412 573.356 383.301 571.888 380.207C570.082 376.402 568.224 372.627 566.324 368.867C565.494 367.22 564.671 365.57 563.847 363.92C563.514 363.253 563.18 362.586 562.846 361.919C562.179 360.585 561.512 359.251 560.845 357.916C560.689 357.605 560.534 357.293 560.373 356.972C560.039 356.305 559.706 355.637 559.372 354.97C558.569 353.364 557.766 351.759 556.963 350.154C555.263 346.761 553.57 343.363 551.887 339.961C550.971 338.109 550.052 336.259 549.133 334.409C548.66 333.455 548.188 332.501 547.717 331.546C547.027 330.148 546.333 328.752 545.639 327.357C545.429 326.93 545.22 326.503 545.004 326.063C544.806 325.669 544.609 325.274 544.406 324.867C544.235 324.521 544.063 324.176 543.887 323.819C543.307 322.85 542.663 322.155 541.833 321.394Z" fill="#FE9D49"/>
<path d="M174.608 444.97C181.731 448.487 188.841 452.051 195.715 456.039C198.474 457.639 201.284 459.076 204.146 460.48C206.658 461.721 209.075 463.074 211.495 464.486C213.586 465.696 215.715 466.796 217.885 467.859C221.53 469.65 225.092 471.575 228.652 473.53C232.47 475.626 236.306 477.689 240.148 479.741C244.915 482.288 249.669 484.857 254.41 487.452C257.68 489.241 260.965 490.999 264.263 492.738C265.664 493.5 265.664 493.5 267.165 494.5C261.172 497.933 255.175 501.358 249.153 504.738C247.143 505.868 245.14 507 243.179 508.214C242.654 508.538 242.128 508.863 241.587 509.197C241.162 509.469 240.738 509.741 240.301 510.022C239.148 510.51 239.148 510.51 237.95 510.555C235.938 509.714 234.785 508.218 233.363 506.602C229.899 502.779 226.296 499.123 222.621 495.503C220.83 493.73 219.07 491.96 217.431 490.044C215.147 487.383 212.625 484.953 210.13 482.493C204.798 477.236 204.798 477.236 202.907 475.02C200.48 472.183 197.775 469.604 195.121 466.983C192.168 464.069 189.237 461.174 186.543 458.015C185.365 456.698 184.12 455.455 182.865 454.214C182.623 453.975 182.382 453.736 182.133 453.49C181.13 452.501 180.125 451.514 179.118 450.529C178.374 449.8 177.633 449.068 176.893 448.335C176.454 447.905 176.015 447.474 175.563 447.031C174.608 445.971 174.608 445.971 174.608 444.97Z" fill="#FE9D49"/>
<path d="M1920.18 367.422C1920.18 436.27 1920.18 505.117 1920.18 576.05C1917.29 575.085 1914.5 574.11 1911.71 572.916C1911.35 572.761 1910.98 572.605 1910.6 572.446C1909.82 572.113 1909.03 571.779 1908.24 571.444C1906.12 570.542 1904 569.646 1901.88 568.749C1901.45 568.565 1901.01 568.381 1900.56 568.192C1896.18 566.334 1891.78 564.498 1887.38 562.667C1887.01 562.512 1886.63 562.357 1886.25 562.198C1880.58 559.836 1874.9 557.484 1869.22 555.136C1862.06 552.175 1854.9 549.202 1847.76 546.188C1840.09 542.951 1832.42 539.721 1824.72 536.557C1824.37 536.417 1824.03 536.276 1823.68 536.131C1822.98 535.843 1822.28 535.556 1821.58 535.268C1821.23 535.124 1820.88 534.98 1820.51 534.832C1819.98 534.614 1819.98 534.614 1819.44 534.392C1806.94 529.253 1794.46 524.046 1781.98 518.819C1774.35 515.619 1766.7 512.431 1759.06 509.249C1756.89 508.346 1754.72 507.442 1752.56 506.537C1747.78 504.541 1743 502.564 1738.19 500.653C1734.78 499.291 1731.39 497.896 1728.06 496.345C1725.14 495.002 1722.16 493.82 1719.17 492.646C1715.03 491.013 1710.93 489.269 1706.83 487.537C1704.74 486.654 1702.64 485.776 1700.55 484.899C1700.13 484.723 1699.71 484.546 1699.27 484.365C1697.96 483.814 1696.64 483.263 1695.32 482.712C1694.86 482.518 1694.4 482.324 1693.92 482.124C1680.21 476.388 1666.5 470.676 1652.77 464.99C1649.07 463.459 1645.38 461.926 1641.69 460.384C1641.13 460.152 1640.58 459.921 1640.01 459.683C1639.03 459.274 1638.06 458.865 1637.08 458.455C1634.57 457.406 1632.05 456.414 1629.5 455.476C1630 455.311 1630.49 455.146 1631 454.976C1631 454.646 1631 454.316 1631 453.975C1631.97 453.283 1632.93 452.656 1633.94 452.037C1636.7 450.316 1639.42 448.544 1642.12 446.731C1645.39 444.546 1648.67 442.375 1651.95 440.219C1661.91 433.677 1671.84 427.089 1681.7 420.411C1688.94 415.516 1696.21 410.684 1703.55 405.946C1706.96 407.769 1710.3 409.669 1713.55 411.762C1714.38 412.29 1715.21 412.817 1716.04 413.345C1716.67 413.745 1716.67 413.745 1717.3 414.153C1719.3 415.426 1721.31 416.689 1723.31 417.953C1724.1 418.454 1724.89 418.954 1725.69 419.454C1726.08 419.702 1726.47 419.95 1726.87 420.205C1730.44 422.456 1730.44 422.456 1731.63 423.206C1732.42 423.708 1733.21 424.209 1734.01 424.711C1735.96 425.942 1737.91 427.174 1739.86 428.407C1744.77 431.515 1749.7 434.603 1754.63 437.682C1758.08 439.837 1761.52 442.003 1764.96 444.179C1768.85 446.644 1772.76 449.085 1776.68 451.525C1777.17 451.829 1777.65 452.134 1778.16 452.447C1778.81 452.854 1778.81 452.854 1779.47 453.268C1780.36 453.825 1781.23 454.397 1782.1 454.976C1783.6 454.79 1784.72 454.186 1786 453.399C1786.36 453.178 1786.72 452.957 1787.09 452.73C1787.48 452.491 1787.86 452.252 1788.26 452.005C1788.66 451.757 1789.06 451.509 1789.48 451.253C1792.23 449.543 1794.94 447.775 1797.62 445.961C1800.4 444.09 1803.22 442.291 1806.05 440.498C1811.53 437.02 1816.99 433.502 1822.43 429.957C1827.04 426.957 1831.65 423.976 1836.29 421.018C1841.83 417.474 1847.35 413.884 1852.86 410.281C1858.13 406.845 1863.42 403.451 1868.71 400.067C1872.79 397.461 1876.86 394.837 1880.91 392.187C1885.49 389.191 1890.09 386.231 1894.7 383.285C1899.04 380.516 1903.36 377.729 1907.67 374.927C1908.1 374.647 1908.53 374.367 1908.98 374.079C1911.2 372.637 1913.42 371.194 1915.64 369.75C1916 369.518 1916.36 369.285 1916.73 369.046C1919.21 367.422 1919.21 367.422 1920.18 367.422Z" fill="#FC7D48"/>
<path d="M1706.55 408.948C1710.75 410.575 1714.59 412.477 1718.4 414.889C1718.85 415.173 1719.31 415.457 1719.78 415.749C1723.47 418.07 1727.16 420.417 1730.84 422.767C1734.78 425.279 1738.73 427.757 1742.7 430.228C1745.75 432.131 1748.79 434.042 1751.83 435.964C1755.41 438.229 1758.99 440.476 1762.58 442.719C1770.16 447.448 1770.16 447.448 1773.87 449.785C1774.25 450.022 1774.63 450.258 1775.02 450.502C1777.27 451.92 1779.49 453.352 1781.6 454.976C1781.6 455.306 1781.6 455.636 1781.6 455.977C1782.42 456.307 1783.25 456.637 1784.1 456.977C1784.1 457.307 1784.1 457.638 1784.1 457.978C1783.17 458.671 1782.21 459.318 1781.24 459.944C1780.94 460.138 1780.64 460.331 1780.34 460.531C1779.36 461.163 1778.38 461.79 1777.41 462.418C1776.74 462.849 1776.08 463.279 1775.41 463.711C1774.41 464.357 1773.42 465.004 1772.42 465.649C1769.66 467.435 1766.91 469.249 1764.18 471.08C1763.81 471.329 1763.43 471.578 1763.05 471.835C1762.23 472.385 1761.4 472.936 1760.58 473.487C1758.5 472.707 1757.35 471.187 1755.99 469.516C1755.74 469.225 1755.5 468.933 1755.25 468.633C1754.52 467.753 1753.8 466.868 1753.08 465.983C1752.69 465.513 1752.31 465.043 1751.91 464.558C1751.18 463.667 1750.46 462.774 1749.73 461.881C1748.47 460.345 1747.18 458.833 1745.89 457.321C1743.99 455.102 1742.17 452.842 1740.38 450.536C1738.18 447.695 1735.86 444.978 1733.49 442.278C1731.39 439.879 1729.42 437.406 1727.47 434.888C1725.92 432.899 1724.3 431.022 1722.6 429.161C1721.29 427.649 1720.07 426.073 1718.84 424.489C1716.86 421.941 1714.8 419.52 1712.62 417.144C1707.87 411.851 1707.87 411.851 1706.55 408.948Z" fill="#FE9D49"/>
<path d="M786.985 406.446C807.127 406.446 820.265 406.946 841.018 406.946C840.051 408.881 839.38 409.653 837.797 411.043C837.348 411.438 836.898 411.833 836.435 412.241C835.08 413.394 833.709 414.521 832.325 415.639C830.047 417.481 827.892 419.418 825.749 421.412C823.704 423.304 821.566 425.056 819.395 426.802C817.884 428.059 816.441 429.372 815.002 430.711C812.697 432.856 810.313 434.862 807.861 436.838C805.936 438.429 804.103 440.115 802.264 441.804C799.179 444.632 795.984 447.336 792.806 450.057C786.274 455.642 786.274 455.642 779.855 461.355C778.197 462.86 776.5 464.294 774.759 465.701C771.89 468.02 769.177 470.481 766.472 472.987C766.472 471.294 766.693 471 767.666 469.686C767.926 469.331 768.186 468.976 768.454 468.61C768.739 468.228 769.024 467.846 769.318 467.452C769.919 466.634 770.52 465.815 771.122 464.996C771.431 464.577 771.74 464.159 772.058 463.727C773.462 461.821 774.845 459.899 776.228 457.978C776.768 457.23 777.308 456.482 777.848 455.734C778.116 455.363 778.384 454.992 778.661 454.61C779.493 453.457 780.326 452.305 781.159 451.153C783.609 447.764 786.058 444.373 788.486 440.967C791.746 436.393 795.043 431.845 798.335 427.293C803.098 420.706 807.839 414.106 812.5 407.447C801.769 407.447 792.538 407.612 781.481 407.612C781.481 407.447 787.485 406.196 786.985 406.446Z" fill="#FE9E4A"/>
</svg>
