<svg width="1920" height="1080" viewBox="0 0 1920 1080" fill="none" xmlns="http://www.w3.org/2000/svg">
<path d="M1808.23 536.783C1807.38 535.53 1807.38 535.53 1805.64 535C1803.9 535.031 1803.9 535.031 1803.09 535.661C1801.07 538.201 1801.07 538.201 1800.32 545.794C1799.02 559.871 1796.59 573.082 1785.36 582.759C1783.67 584.204 1782.25 585.571 1780.97 587.403C1780.6 588.65 1780.6 588.65 1780.97 589.897C1781.96 591.225 1783 592.118 1784.46 592.89C1786.74 593.255 1788.75 593.12 1790.94 592.391C1792.71 590.876 1794.1 590.571 1796.42 590.396C1797.06 590.921 1797.06 590.921 1796.99 592.109L1796.98 593.607C1796.98 594.532 1796.97 595.458 1796.92 596.382L1796.42 597.379C1794.57 602.296 1791.54 606.371 1787.79 610.036C1784.42 613.308 1781.18 616.805 1778.54 620.707C1777.03 623.443 1776.24 626.192 1776.99 629.301C1778.32 631.109 1779.05 631.592 1781.2 632.064C1784.14 632.292 1785.89 631.699 1788.32 630.049C1790.03 628.848 1790.8 628.325 1792.9 627.992C1794.48 628.314 1795.27 628.694 1796.42 629.8L1796.33 631.109C1793.91 635.75 1793.91 635.75 1789.44 638.778C1788.87 639.177 1788.29 639.577 1787.72 639.976C1781.99 644.006 1774.63 649.459 1773.3 656.82C1773.26 658.783 1773.65 659.83 1774.93 661.286C1776.92 662.477 1778.31 662.476 1780.59 662.375C1784.35 661.956 1786.2 660.719 1788.59 657.802C1789.68 656.441 1790.75 655.115 1791.98 653.88C1793.68 652.741 1795.46 652.963 1797.42 653.243C1797.73 654.16 1797.73 654.16 1797.92 655.238C1796.64 659.078 1794.43 661.356 1791.34 663.873C1785.58 668.508 1777.09 674.653 1774.99 682.172C1774.71 684.813 1774.43 687.762 1776.12 689.981C1777.4 690.976 1777.4 690.976 1780.67 690.848C1784.2 690.316 1786.09 688.098 1788.26 685.414C1788.98 684.495 1789.71 683.58 1790.44 682.671C1792.07 680.978 1793.51 679.891 1795.92 679.678L1795.96 680.608L1795.98 681.829C1796.04 683.027 1796.04 683.027 1795.92 684.167C1794.57 686.201 1793 687.727 1791.06 689.208C1786.39 692.53 1782.25 696.274 1778.82 700.884C1776.37 704.517 1773.74 708.075 1774.5 712.598C1775.53 714.145 1775.8 714.5 1777.49 715.092C1780.37 715.413 1781.71 714.89 1783.96 713.097C1785.63 711.369 1786.94 709.802 1789.37 709.329C1791.24 709.284 1792.78 709.121 1794.33 710.268C1795.22 712.298 1795.22 712.298 1794.93 714.593C1791.49 719.414 1791.49 719.414 1786.39 722.732C1781.48 726.142 1774.01 730.356 1772.66 736.633C1773.14 738.619 1773.83 739.351 1775.49 740.53C1777.96 740.953 1780.1 740.61 1782.2 739.219L1782.49 739.018C1785 737.273 1786.77 736.046 1789.94 736.54C1790.39 737.595 1790.39 737.595 1790.44 739.034C1785.93 746.202 1785.93 746.202 1778.45 750.755C1777.05 751.668 1775.66 752.591 1774.28 753.539C1770.13 756.646 1766.91 760.407 1766.06 765.656C1766.01 768.112 1766.43 768.794 1768.02 770.582C1770.18 771.845 1772.05 771.892 1774.5 771.455C1776.34 770.389 1777.12 769.551 1778.22 767.755L1778.35 767.53C1779.42 765.661 1780.3 764.133 1781.94 762.663C1784.3 761.601 1786.5 761.692 1788.95 762.476C1789.07 763.64 1789.07 763.64 1788.95 764.97C1788.35 766.088 1787.71 766.782 1786.68 767.521C1785.14 768.569 1783.79 769.55 1782.59 770.987C1781.48 772.36 1780.32 773.678 1779.11 774.977C1776.33 777.972 1773.65 781.04 1771.01 784.156C1770.26 785.043 1769.5 785.929 1768.75 786.812C1768.24 787.397 1767.74 787.983 1767.24 788.57L1766.52 789.411C1764.88 791.316 1763.32 793.227 1762.04 795.396C1762.01 797.204 1762.01 797.204 1762.54 798.888C1763.47 800.103 1763.47 800.103 1765.03 800.883C1768.06 801.198 1770.84 801.047 1773.68 799.912L1774.93 799.324C1778.57 797.667 1778.57 797.667 1783.25 790.065C1784.75 787.602 1786.02 785.589 1788.45 783.924C1788.6 785.997 1788.36 787.535 1787.47 789.419L1786.95 790.408C1785.4 793.405 1783.81 795.839 1781.17 797.96L1779.98 798.888C1777.18 801.248 1774.49 803.818 1770.88 804.78C1768.93 805.183 1767.03 805.647 1765.12 806.232C1761.6 807.312 1758.05 808.264 1754.47 809.144C1751.47 809.874 1748.52 810.658 1745.56 811.544C1743.69 812.129 1742.99 812.483 1741.11 811.856C1738.4 809.436 1736.98 806.883 1736.13 803.377C1737.86 803.874 1738.59 804.34 1739.77 805.746C1741.27 807.656 1742.94 809.202 1745.1 810.36C1747.06 810.832 1748.56 810.673 1750.33 809.611C1751.23 808.107 1751.29 807.095 1751.29 805.372C1750.75 802.861 1750.75 802.861 1744.81 798.282L1743.96 797.641C1743.39 797.203 1742.81 796.767 1742.23 796.331C1739.2 794.106 1737.11 791.763 1735.47 788.382C1735.01 787.088 1735.15 786.194 1735.63 784.922L1736.66 784.766C1738.2 784.931 1738.62 785.176 1739.83 786.075C1741.38 787.246 1742.76 788.226 1744.6 788.912C1747.09 789.163 1748.95 789.333 1751.08 787.914C1751.03 785.378 1750.79 783.933 1749.08 782.023C1748.01 780.906 1746.98 779.802 1746 778.603L1745.72 778.25C1744.37 776.552 1743.04 774.872 1741.48 773.35C1739.15 771.172 1738 769.557 1737.12 766.467C1738.87 766.791 1740.12 767.505 1741.61 768.462C1744.45 770.339 1746.58 772.038 1750.08 771.455C1751.07 770.457 1751.07 770.457 1751.2 768.742C1751.05 766.615 1750.45 765.863 1749.01 764.333C1742.69 757.737 1738.37 749.285 1737.53 740.094C1737.36 737.374 1737.02 736.044 1735.13 734.046C1733.67 734.233 1733.67 734.233 1732.14 734.545C1731.57 735.676 1731.57 735.676 1729.93 740.445L1729.92 740.455C1729.59 741.434 1729.25 742.414 1728.91 743.392C1727.74 746.767 1726.6 750.145 1725.56 753.563C1724.24 758.026 1722.69 761.153 1719.28 764.378C1717.8 765.705 1716.78 766.347 1716.5 768.343V768.344C1716.69 769.459 1716.69 769.46 1717.19 769.958C1720.02 770.358 1722.25 770.086 1724.79 768.774C1726.55 767.794 1728.2 767.03 1730.15 766.467C1728.98 772.394 1726.4 775.594 1721.71 779.186L1721.29 779.505C1718.65 781.501 1715.93 783.562 1714.2 786.418C1713.98 787.872 1713.98 788.575 1714.79 789.808C1715.7 790.408 1715.7 790.408 1716.88 790.572L1718.19 790.533C1719.02 790.518 1719.85 790.479 1720.68 790.408C1722.33 789.858 1722.33 789.858 1723.61 787.946C1724.76 786.206 1725.66 785.567 1727.65 784.922C1726.65 789.689 1725.83 792.273 1721.77 795.116C1719.91 796.391 1718.04 797.627 1716.33 799.11C1715.27 800.409 1715.23 801.751 1715.2 803.377C1715.91 804.156 1715.91 804.156 1717.19 804.873C1719.64 805.055 1721.27 804.685 1723.23 803.19C1724.85 801.711 1726.13 801.154 1728.15 800.384C1727.36 803.41 1726.41 806.261 1724.95 809.037C1721.19 815.356 1717.46 819.171 1710.37 821.201C1707.32 822.057 1704.28 822.959 1701.27 823.919C1698.08 824.938 1694.89 825.941 1691.69 826.894C1688.06 827.971 1684.45 829.08 1680.85 830.243C1673.31 832.683 1665.73 834.957 1658.12 837.163C1654.7 838.152 1651.29 839.147 1647.93 840.298C1643.06 841.965 1638.14 843.42 1633.19 844.835L1632.24 845.107L1630.34 845.651C1629.06 846.014 1627.77 846.377 1626.5 846.771C1620.65 848.921 1615.63 849.635 1609.41 849.629C1608.61 849.628 1607.81 849.63 1607.01 849.634L1606.4 849.638C1603.64 849.663 1600.89 849.678 1598.13 849.681C1596.39 849.682 1594.64 849.684 1592.89 849.689C1586.8 849.712 1580.71 849.729 1574.61 849.728C1568.91 849.726 1563.2 849.739 1557.5 849.778C1552.55 849.812 1547.6 849.834 1542.66 849.836L1541.61 849.836C1539.01 849.834 1536.41 849.833 1533.82 849.853C1531.01 849.878 1528.21 849.897 1525.4 849.885C1524.36 849.878 1523.33 849.873 1522.29 849.871C1515.89 849.967 1511.57 849.956 1506.68 845.517C1505.41 844.277 1505.41 844.277 1504.19 843.295C1502.74 842.18 1501.61 841.037 1500.52 839.568C1499.07 837.312 1498 835.576 1498.44 832.805C1500.15 832.706 1501.45 832.52 1502.95 833.428C1503.68 834.084 1504.4 834.739 1505.13 835.392C1507.79 836.747 1510.45 836.553 1513.38 836.296C1513.88 835.798 1513.88 835.798 1514.13 834.052C1514.1 831.61 1514.1 831.61 1511.38 828.421L1510.39 827.318C1509.25 825.972 1508.09 824.639 1506.91 823.328L1506.69 823.096C1503.93 820.189 1501.49 817.603 1499.93 813.851C1501.79 814.1 1502.83 814.288 1504.41 815.347C1505.87 816.415 1507.33 817.44 1508.9 818.34C1510.83 818.879 1511.78 819.119 1513.6 818.278C1514.38 817.343 1514.38 817.343 1514.6 816.158C1514.26 814.125 1513.24 812.753 1511.88 811.231C1505.67 804.803 1502.36 796.914 1500.92 788.186C1500.5 785.643 1499.84 783.341 1498.93 780.931C1497.81 780.557 1497.81 780.557 1496.44 780.433C1495.14 781.46 1494.51 782.261 1493.91 783.813C1493.31 786.047 1492.7 788.264 1491.88 790.428C1490.53 793.766 1489.43 797.113 1488.44 800.571C1487.21 805.032 1485.9 808.21 1482.36 811.388L1482.12 811.604C1480.71 812.858 1480.04 813.453 1479.82 815.47C1480 816.844 1480 816.844 1480.5 817.343C1483.44 817.813 1485.58 817.48 1488.13 815.909C1489.7 814.828 1491.15 814.009 1492.95 813.352C1492.35 818.209 1490.65 821.623 1486.86 824.739C1484.74 826.395 1482.66 828.051 1480.71 829.906L1479.97 830.623C1478.03 832.477 1477.2 833.59 1477.01 836.296L1477.97 837.294C1479.79 838.481 1480.84 838.495 1482.94 838.459C1484.45 838.217 1485.28 837.554 1486.19 836.359L1486.32 836.166C1487.62 834.258 1488.56 832.872 1490.96 832.306L1490.77 833.647C1489.99 837.822 1488 840.554 1484.6 842.995C1483.82 843.545 1483.04 844.098 1482.27 844.655L1481.06 845.555C1479.73 846.52 1479.09 847.051 1478.44 848.573L1478 849.764C1474.04 849.721 1470.08 849.687 1466.12 849.666L1465.61 849.664C1463.76 849.655 1461.9 849.645 1460.04 849.627C1458.06 849.604 1456.08 849.585 1454.11 849.577C1453.35 849.575 1452.59 849.572 1451.82 849.569C1446.98 849.498 1442.75 849.771 1438.1 851.276C1436.88 851.682 1435.68 852.018 1434.43 852.302C1431.36 852.987 1428.32 853.693 1425.3 854.553C1420.86 855.825 1416.4 856.966 1411.92 858.08C1405.68 859.631 1399.45 861.189 1393.22 862.789L1392.11 863.075C1387.78 864.187 1383.45 865.318 1379.14 866.527C1374.74 867.763 1370.38 868.772 1365.86 869.493L1364.39 869.715L0 966.5V1080H1352.18H1920V1078.53V794.897H1880.14V793.401C1878.76 791.231 1876.97 789.511 1874.91 788.006C1870.65 784.989 1867.16 782.105 1864.55 777.528C1864.1 776.168 1864.31 775.309 1864.69 773.948C1866.87 773.762 1867.88 774.234 1869.67 775.445L1870.52 776.099C1873.28 778.075 1875.78 778.476 1879.14 777.939C1880.14 776.941 1880.14 776.941 1880.42 775.414C1880 772.493 1880 772.493 1871.17 762.975C1868.93 760.587 1867.28 758.604 1866.18 755.493C1868.74 756.313 1870.75 757.323 1872.97 758.829C1874.96 760.241 1876.18 760.768 1878.64 760.481C1880.14 759.484 1880.14 759.484 1880.63 758.393C1880.63 756.496 1880.63 756.496 1878.14 753.499L1878.14 753.498C1875.58 750.473 1873.17 747.565 1871.37 744.014L1870.67 742.525C1868.69 738.35 1867.47 734.537 1866.84 729.962C1866.6 727.917 1866.5 726.129 1865.47 724.323C1864.4 723.3 1863.67 723.109 1862.2 723.073C1860.76 724.09 1860.3 725.407 1859.74 727.032L1859.39 728.06C1858.64 730.268 1857.9 732.483 1857.17 734.701L1856.59 736.464C1856.2 737.663 1855.8 738.863 1855.41 740.062L1855.18 740.771C1853.61 745.658 1852.28 749.792 1848.37 753.342C1846.97 754.581 1845.83 755.432 1845.56 757.374V757.375C1845.75 758.486 1845.75 758.486 1846.25 758.985C1849.09 759.386 1851.33 759.105 1853.88 757.8C1855.47 756.904 1857.01 756.139 1858.71 755.493V757.489C1857.85 762.378 1854.56 765.323 1850.77 768.212L1850.36 768.522C1847.72 770.521 1845 772.585 1843.26 775.445L1843.25 775.508C1843.09 776.994 1843.02 777.64 1843.98 778.843C1845.87 779.719 1847.69 779.632 1849.74 779.435C1851.23 778.936 1851.23 778.936 1851.95 778.05L1852.09 777.832C1853.37 775.913 1854.3 774.517 1856.72 773.948C1856.54 775.713 1856.43 777.366 1855.81 779.03L1855.22 779.934C1854.02 781.786 1852.62 782.906 1850.83 784.142C1848.97 785.418 1847.1 786.654 1845.39 788.137C1844.33 789.435 1844.29 790.778 1844.26 792.403L1844.26 792.404C1845.04 793.152 1845.04 793.152 1846.25 793.9C1848.44 794.092 1849.39 794.136 1851.23 792.902C1853.15 791.248 1854.88 790.327 1857.21 789.411L1856.72 791.406L1855.72 796.394H1832.8C1834.48 793.444 1835.23 792.904 1834.79 789.91C1832.65 783.345 1827.87 779.546 1822.3 775.944L1822.12 775.825C1819.06 773.854 1816.07 771.934 1814.17 768.711C1813.34 766.912 1813.2 766.296 1813.86 764.472L1815.39 764.316C1817.89 764.515 1818.96 765.394 1820.84 766.965C1822.11 768.084 1823.34 769.135 1824.82 769.958C1826.9 770.383 1828.61 770.215 1830.59 769.491C1831.52 768.144 1831.52 768.144 1831.52 765.194C1830.5 759.417 1824.96 754.282 1820.51 750.874L1819.61 750.178C1819.18 749.852 1818.76 749.527 1818.34 749.202L1817.72 748.729C1815.46 747.044 1813.78 745.541 1812.37 743.024C1812.13 741.333 1812.2 740.401 1812.9 738.847C1813.87 737.878 1813.87 737.878 1815.54 737.849C1818.11 738.115 1819.3 738.494 1821.15 740.343C1822.1 741.341 1823.07 742.227 1824.13 743.11L1825.57 744.208C1827.12 745.394 1827.97 745.979 1829.92 746.192C1831.3 746.017 1831.3 746.017 1832.3 745.02L1832.3 745.019C1832.5 743.187 1832.41 741.37 1832.3 739.532C1831.26 733.159 1826.46 727.75 1821.62 723.821C1818.8 721.568 1816.24 719.268 1813.95 716.479C1812.07 713.919 1811.48 712.275 1811.87 709.107C1812.53 707.777 1812.96 707.615 1814.36 707.111C1816.65 706.876 1818.33 706.933 1820.34 708.109C1822.75 709.735 1825.13 711.446 1827.81 712.598C1830.82 713.13 1833.6 713.173 1836.29 711.601C1836.52 710.075 1836.56 709.115 1836.29 707.61C1833.15 700.57 1827.33 695.42 1820.97 691.345C1817.43 689.094 1814.35 686.606 1811.9 683.166C1811.07 681.606 1811.06 680.395 1811.37 678.681L1812.86 677.683C1815.4 677.433 1816.87 677.421 1818.97 679.002C1820.99 680.566 1823.04 682.014 1825.32 683.17C1827.46 683.631 1829.09 683.485 1831.08 682.609C1831.8 681.674 1831.8 681.674 1832.08 680.302C1831.58 677.411 1831.58 677.411 1826.88 672.727C1825.37 671.253 1823.92 669.778 1822.55 668.175C1821.65 667.116 1820.73 666.108 1819.75 665.124C1816.98 662.42 1813.19 659.485 1812.62 655.487C1812.74 654.275 1812.74 654.275 1813.36 653.742C1815.42 653.44 1816.57 653.773 1818.25 654.895C1820 656.067 1821.66 656.871 1823.68 657.479C1826.16 658.026 1828.36 658.308 1830.59 656.953C1831.3 655.737 1831.3 655.737 1831.61 654.086L1831.61 654.085C1831.03 650.664 1831.03 650.664 1825.73 646.821L1825.11 646.389C1821.85 644.096 1818.48 641.723 1815.89 638.685L1814.86 637.282C1813.24 635.179 1812.61 633.969 1812.86 631.296C1814.93 631.132 1816.12 631.172 1817.97 632.152C1820.18 633.693 1822.35 635.445 1825.07 635.879C1827.01 635.775 1827.93 635.672 1829.31 634.289C1829.68 632.699 1829.68 632.699 1829.31 630.798C1827.54 627.379 1824.57 626.064 1821.09 624.851C1819.48 624.29 1818.14 623.685 1816.69 622.77C1815.36 621.819 1815.36 621.82 1814.17 621.196L1813.36 620.822V619.824C1812.25 618.524 1811.88 617.992 1811.74 616.239C1811.71 614.885 1811.71 614.885 1812.37 614.338C1815.48 613.935 1817.01 614.27 1819.62 616.052C1821.96 617.683 1823.47 618.328 1826.32 618.328C1826.82 617.829 1826.82 617.829 1826.9 616.65L1826.91 615.179C1826.98 610.333 1826.98 610.333 1819.8 602.617L1819.8 602.617C1816.22 598.808 1811.77 594.967 1811.87 589.399C1813.22 588.59 1813.22 588.59 1814.86 588.401C1815.17 589.241 1815.5 590.072 1815.85 590.895C1816.85 591.892 1816.85 591.892 1817.88 592.007L1819.06 591.986C1820.51 591.974 1821.43 591.86 1822.83 591.394C1824.32 589.942 1824.79 589.188 1825.01 587.092C1824.79 585.106 1824.21 584.296 1822.82 582.903C1821.7 581.842 1820.61 580.769 1819.54 579.666C1811.27 570.823 1808.6 561.513 1808.85 549.587L1808.85 549.405C1808.89 547.674 1808.93 545.944 1808.95 544.213L1808.97 542.934C1809.04 540.666 1809.03 538.935 1808.23 536.784L1808.23 536.783Z" fill="#7F0133"/>
</svg>
